<svg xmlns="http://www.w3.org/2000/svg" width="332.365" height="439.428" viewBox="0 0 332.365 439.428">
  <g id="Group_2877" data-name="Group 2877" transform="translate(-840.027 -4101.994)">
    <g id="Layer_2" data-name="Layer 2" transform="translate(840.03 4101.854)">
      <g id="Layer_1" data-name="Layer 1" transform="translate(1.97 2.338)">
        <path id="Path_6664" data-name="Path 6664" d="M16.071,34.453C6.8,43.873,4.768,52.522,2.611,67.064s1.715,61.614,2.942,76.324c8.409,100.581,14.734,150.531,28.755,247.769,2.068,14.349,8.626,27.512,20.682,35.577,8.561,5.732,30.975,5.94,41.244,5.146,61.052-4.738,65.181-5.652,107.836-9.836,22.887-2.253,32.867-2.261,42.639-6.638s23.456-12.025,27.8-21.973c7.511-17.155,3.9-37.444,1.828-62.527-7.968-96.324-17.692-161.449-28.458-265.469-1.291-12.433-1.443-42.487-12.137-49-7.768-4.706-28.819-7.215-37.813-5.924C135.266,19.359,78.735,25.579,16.071,34.453" transform="translate(-1.97 -3.894)" fill="#9b9b9a" stroke="#1f1f1c" stroke-miterlimit="10" stroke-width="3.93"/>
        <path id="Path_6665" data-name="Path 6665" d="M21.237,27.335c-6.092,9.123-7.135,20.45-5.611,42.743C19.193,120.4,25.518,164.8,30.111,206.484c4.81,43.609,6.8,65.95,11.608,109.567,2.6,23.5,5.171,63.882,11.832,82.448,3.207,8.994,6.5,8.6,10.509,10.7,11.72,6.165,38.623,3.832,51.8,2.469,18.3-1.884,37.516-5.066,60.018-6.99,26.735-2.293,49.244-4.273,75.306-7.816,8.449-1.146,25.757-3.463,29.789-22.045,3.439-15.864-.505-36.506-3.776-66.423Q263.828,186.146,250.464,63.9c-1.13-10.333-4.5-37.372-6.533-47.184C240.284-.923,215.265,2.284,201,3.085c-11.616.609-36.755,2.357-66.5,5.924-39.1,4.682-98.866,6.309-113.271,18.438" transform="translate(-4.555 -2.338)" fill="#f4f2f1" stroke="#1d1d1b" stroke-miterlimit="10" stroke-width="4.57"/>
        <rect id="Rectangle_1810" data-name="Rectangle 1810" width="186.26" height="318.145" transform="matrix(0.994, -0.105, 0.105, 0.994, 32.147, 50.266)" fill="#e6e5e5"/>
        <path id="Path_6666" data-name="Path 6666" d="M260.523,355.49l-18.542,1.964-44.162,4.682-53.381,5.652-46.423,4.922-15.183,1.6-4.73.505a12.827,12.827,0,0,0-2.485.265,1.38,1.38,0,0,1-.313,0l1.162,1.162-.9-8.489-2.4-22.991-3.631-33.989-4.409-41.613-4.81-45.6-4.858-45.853L50.928,134.96,47.088,98.7,44.306,72.753l-.858-8.08a41.059,41.059,0,0,0-.441-4.217c-.04-.168-.04-.353-.064-.529l-1.162,1.138L60.323,59.1l44.17-4.682,53.381-5.652L204.3,43.83l15.183-1.6,4.73-.5a12.737,12.737,0,0,0,2.477-.265,1.4,1.4,0,0,1,.321,0l-1.17-1.162.906,8.489,2.4,22.991,3.6,33.981,4.409,41.621,4.81,45.6,4.858,45.854,4.537,42.751,3.84,36.258,2.75,25.981c.433,4.1.85,8.209,1.307,12.313,0,.184.04.361.056.537.152,1.475,2.485,1.491,2.333,0l-.906-8.489-2.4-22.991-3.6-33.989-4.409-41.613-4.81-45.6-4.858-45.853-4.537-42.751-3.84-36.29-2.75-25.973c-.433-4.1-.85-8.217-1.307-12.321a1.7,1.7,0,0,0-.056-.529c-.064-.577-.489-1.243-1.162-1.17l-18.542,1.964-44.17,4.682-53.381,5.66L64.491,56.328c-7.447.8-14.967,1.355-22.39,2.4h-.321c-.569.064-1.235.489-1.162,1.17l.9,8.489,2.4,22.991,3.6,33.989,4.409,41.613,4.81,45.6L61.6,258.436l4.585,42.719,3.84,36.258,2.758,25.981c.433,4.1.85,8.209,1.3,12.321a1.7,1.7,0,0,0,.056.529c.064.577.489,1.235,1.17,1.17l18.526-1.94,44.162-4.673,53.381-5.66,46.423-4.914c7.455-.8,14.975-1.355,22.4-2.4l.313-.04C262,357.662,262.014,355.329,260.523,355.49Z" transform="translate(-9.635 -9.631)" fill="#1f1f1c"/>
        <path id="Path_6667" data-name="Path 6667" d="M137.61,33.2c18.141-1.707,33.083-3.712,51.224-5.419" transform="translate(-28.876 -7.385)" fill="none" stroke="#1d1d1b" stroke-miterlimit="10" stroke-width="3.93"/>
        <path id="Path_6668" data-name="Path 6668" d="M116.434,39.728a3.944,3.944,0,1,0-3.944-3.944A4.008,4.008,0,0,0,116.434,39.728Z" transform="translate(-23.893 -8.19)" fill="#1d1d1b"/>
        <path id="Path_6669" data-name="Path 6669" d="M200.89,461.855a12.129,12.129,0,0,0-6.549,1.932c-1.6,1.154-2.886,1.844-3.768,3.6a12.634,12.634,0,0,0-1.451,8.738,9.828,9.828,0,0,0,2.092,4.625,16.362,16.362,0,0,0,5.772,3.527c2.036.617,7.311.321,10.421-1.363a9.62,9.62,0,0,0,5.106-8.209,16.059,16.059,0,0,0-3.591-10.221,8.32,8.32,0,0,0-2.269-1.707,11.167,11.167,0,0,0-5.764-.922" transform="translate(-39.048 -93.478)" fill="#9b9b9a" stroke="#1f1f1c" stroke-miterlimit="10" stroke-width="1.97"/>
        <path id="Path_6670" data-name="Path 6670" d="M167.209,140.329c8.97-1.251,15.977,4.521,20.69,11.536a42.84,42.84,0,0,1,3.134,5.427c.216.729.409,1.459.585,2.164a14.159,14.159,0,0,1,.257,1.491c5.018,1.066,10.149.521,15.231.224,2.341-.136,4.666-.12,7.006-.072a29.659,29.659,0,0,0-1.363-6.5A50.383,50.383,0,0,0,201.2,136.16c-12.986-13.475-29.228-18.726-47.481-13.059-.641.2-1.218.465-1.828.7,1.772,6.718,6.132,12.369,9.62,18.349A17.764,17.764,0,0,1,167.209,140.329Z" transform="translate(-31.709 -25.846)" fill="#ff8300" opacity="0.5"/>
        <path id="Path_6671" data-name="Path 6671" d="M186.993,161.505a25.953,25.953,0,0,1-3.832,13.011l-.2.176a28.234,28.234,0,0,1-16.2,6.485c-7.728.473-17.411-1.916-19.824-10.277-2.71-9.363,1.876-22.518,9.7-28.193-2.83-6.662-4.625-13.459-7.8-19.047-18.438,7.664-24.121,31.632-20.394,49.509,2.517,12.1,9.924,22.157,21.78,26.31,20.321,7.127,40.386.369,53.028-16.834a30.1,30.1,0,0,0,5.948-21.251C201.856,162.2,194.328,160.671,186.993,161.505Z" transform="translate(-26.843 -26.404)" fill="#ff8300"/>
        <path id="Path_6672" data-name="Path 6672" d="M199.006,238.025c1.459-.345.842-2.6-.617-2.245q-30.358,7.335-61.229,12.377-15.351,2.5-30.815,4.425c-4.217.521-8.433.994-12.666,1.355-2.83.24-6.469.513-8.505,2.774a5.475,5.475,0,0,0-1.146,4.465c.176,1.844.561,3.655.874,5.483.89,5.291,1.707,10.59,2.605,15.88a1.154,1.154,0,0,0,1.122.858q19.239-1.94,38.414-3.9l44.21-4.433,25.484-2.533c1.483-.152,1.491-2.477,0-2.333h0" transform="translate(-18.229 -48.638)" fill="#cecccc"/>
        <path id="Path_6673" data-name="Path 6673" d="M215.2,358.719c1.459-.353-2.036-3.575-3.5-3.207q-30.374,7.335-61.229,12.377-15.367,2.5-30.823,4.425c-4.217.521-8.425.994-12.666,1.355-2.822.24-6.469.505-8.5,2.774a5.445,5.445,0,0,0-1.146,4.465c.176,1.844.561,3.655.866,5.475.89,5.291,1.715,10.6,2.605,15.888a1.17,1.17,0,0,0,1.122.858q19.239-1.932,38.414-3.9,22.1-2.237,44.218-4.433l25.516-2.557c1.475-.144,6.99-6.068,5.491-5.916Z" transform="translate(-20.879 -72.39)" fill="#cecccc"/>
        <path id="Path_6674" data-name="Path 6674" d="M206.605,298.346c-.136-1.5.842-2.605-.617-2.253q-30.358,7.351-61.229,12.377-15.367,2.5-30.815,4.425c-4.225.521-8.433.994-12.666,1.355-2.83.241-6.477.513-8.505,2.782a5.428,5.428,0,0,0-1.146,4.457c.176,1.844.561,3.655.866,5.483.9,5.291,1.715,10.59,2.605,15.888a1.162,1.162,0,0,0,1.13.85q19.239-1.924,38.406-3.9,22.117-2.221,44.218-4.425c8.5-.85,30.35-2.79,38.847-3.631,1.475-.152,1.034-20.554-.465-20.41l-7.64-7.319Z" transform="translate(-19.744 -60.596)" fill="#5c5957"/>
        <path id="Path_6675" data-name="Path 6675" d="M375.922,276.29q-.232-2.477-.441-4.938c-.273-3.247-.561-6.6-.954-9.892-.273-2.229-.7-4.457-1.114-6.613-.208-1.09-.425-2.18-.609-3.271l-.345-1.964c-.641-3.688-1.307-7.5-1.924-11.223-.377-2.341-.738-4.682-1.1-7.022-.6-3.912-1.227-7.952-1.94-11.912-.8-4.473-1.82-9.195-3.03-14.045a65.994,65.994,0,0,0-3.03-9.419c-1.515-3.639-3.207-7.271-4.858-10.774l-1.908-4.112a6.55,6.55,0,0,0-.737-1.194,65.5,65.5,0,0,0-20.185-17.86c-.489-.273-1.01-.553-1.6-.842.232-.385.449-.762.649-1.146,4.249-8.137,5.427-15.736,3.607-23.247a62.9,62.9,0,0,0-11-23.352,26.229,26.229,0,0,0-11.223-8.217c-2.445-1-4.914-1.892-7.335-2.653a15.736,15.736,0,0,0-9.732-.136c-1.467.473-2.982.9-4.449,1.307-2.237.625-4.545,1.275-6.782,2.108a53.014,53.014,0,0,0-8.545,4.217,33.981,33.981,0,0,0-13.564,15.64c-2.349,5.219-2.822,10.6-3.167,16.594v.152a48.283,48.283,0,0,0,5.724,20.354l.329.585a48.2,48.2,0,0,0-4.12,3.207,82.473,82.473,0,0,0-16.169,18.991c-.746,1.234-1.6,2.461-2.4,3.647a58.669,58.669,0,0,0-3.207,5.05,64.692,64.692,0,0,0-4.192,8.994c-.369.978-.746,1.956-1.114,2.926-2,5.235-4.08,10.646-4.954,16.393-.321,2.084-.657,4.168-.994,6.253-.617,3.784-1.251,7.7-1.756,11.584a168.072,168.072,0,0,0-.85,27.047v.617a3.783,3.783,0,0,1,4.85.505,4.238,4.238,0,0,1,6.605,3.022c.962,10.638.369,21.291.617,31.953.24,10.349,1.379,20.554.649,30.919a1.131,1.131,0,0,1-.056.433c.249,5.235.529,10.718.85,16.658q.216,3.944.473,7.872c.16,2.621.329,5.235.465,7.856.16,2.91.3,5.812.441,8.722.184,3.8.377,7.736.6,11.6v.521c.337,5.756.689,11.7,1.243,17.54.265,2.766.673,5.555,1.058,8.249.289,1.948.577,3.96.8,5.932.208,1.715.353,3.479.5,5.179.168,2.044.345,4.16.617,6.237.361,2.669.8,5.355,1.3,7.944.224,1.307.457,2.613.681,3.912.1.6.176,1.2.257,1.8s.176,1.251.281,1.876c.457,2.726.93,5.451,1.4,8.177a3.615,3.615,0,0,0,2.99,3.078l.385.088a6.483,6.483,0,0,0,1.2.2l2.269.1c3.295.136,6.694.289,10.052.353h.249a3.535,3.535,0,0,0,2.75-.89c.705-.8.754-1.844.625-3.207-.184-1.892-.4-3.784-.609-5.676-.4-3.631-.8-7.383-1.034-11.063-.289-4.97-.97-9.948-1.6-14.766-.705-5.1-1.435-10.365-1.675-15.576-.168-3.615-.457-7.279-.729-10.822-.184-2.349-.377-4.77-.529-7.151-.441-6.918-.8-13.852-1.194-20.554-.136-2.5-.249-4.994-.369-7.5-.08-1.691-.152-3.391-.24-5.082a72.147,72.147,0,0,1,2.541-23.127c1.01-3.623,3.014-5.692,6.934-7.159a92.048,92.048,0,0,1,17.2-4.265l2.718-.465a88.875,88.875,0,0,1,14.91-1.707,36.689,36.689,0,0,1,4.81.289c6.605.8,11.608,2.589,15.76,5.5a15.864,15.864,0,0,1,6.517,9.467,106.783,106.783,0,0,1,2.02,11.672,119.02,119.02,0,0,1,1.09,12.7c.112,7.688,0,15.279-.16,24.322-.056,3.07-.232,6.2-.409,9.243-.1,1.876-.208,3.744-.289,5.611-.1,2.453-.184,4.946-.257,7.351-.144,4.714-.3,9.58-.665,14.341-.593,7.656-1.483,15.423-2.341,22.935l-.329,2.926c-.24,2.108-.641,4.233-1.018,6.277-.176.938-.345,1.852-.5,2.75a1.218,1.218,0,0,0,.184.866,4.906,4.906,0,0,0,4.513,2.325c2.6.08,5.259.289,7.824.489,1.812.136,3.688.281,5.547.385h.7c4.088,0,4.97-2.541,5.315-5.283a106.168,106.168,0,0,0,.577-12.6c0-1.066,0-2.124,0-3.207.1-7.151.289-13.628,1.6-20.041a45.254,45.254,0,0,0,.713-6.517c0-.449.048-.9.08-1.339.24-3.607.441-7.455.617-11.776l.176-4.233c.24-5.74.489-11.672.609-17.524.064-3.207.048-6.517.04-9.7s0-6.686,0-10.02c.072-3.142.265-6.341.449-9.443.128-2.237.265-4.545.361-6.83.056-1.483,0-2.982,0-4.433q0-1.243-.048-2.477l1.6-.545c1.6-.513,3.086-1.01,4.561-1.643a10.581,10.581,0,0,0,6.132-6.982,92.528,92.528,0,0,0,3.463-21.38C377.373,293.854,376.676,284.338,375.922,276.29Z" transform="translate(-46.555 -22.058)" fill="#13100d"/>
        <path id="Path_6676" data-name="Path 6676" d="M375.031,289.8c-.465-4.938-.8-9.884-1.395-14.8-.393-3.295-1.138-6.549-1.716-9.828-.8-4.4-1.539-8.818-2.261-13.227-1.026-6.3-1.908-12.634-3.038-18.919-.8-4.682-1.86-9.339-3.014-13.964a65,65,0,0,0-2.974-9.243c-2.092-5.018-4.473-9.916-6.75-14.854a5.755,5.755,0,0,0-.6-.97,64.034,64.034,0,0,0-19.816-17.54,54.3,54.3,0,0,0-14.654-5.547,77.838,77.838,0,0,0-11.351-1.379,73.066,73.066,0,0,0-9.179-.168,51.776,51.776,0,0,0-8.225,1.058c-4.473.93-8.882,2.156-13.339,3.207-5.1,1.154-9.275,4.008-13.083,7.359A80.652,80.652,0,0,0,247.7,199.7c-1.8,2.934-3.92,5.668-5.611,8.658a63.48,63.48,0,0,0-4.08,8.818c-2.341,6.253-4.994,12.417-6.012,19.087-.906,5.932-1.964,11.856-2.742,17.8a162.357,162.357,0,0,0-.8,26.855c.048,1.539.064,3.07.072,4.609a4.008,4.008,0,0,1,3.271.337q0-6.253-.08-12.5c0-1.515-.168-3.038-.048-4.537.5-6.076,1.026-12.153,1.651-18.213.281-2.758.746-5.5,1.267-8.225.866-4.489,1.675-9,2.838-13.419A91.727,91.727,0,0,1,241,218.727a69.928,69.928,0,0,1,4.064-8.818,97.743,97.743,0,0,1,5.78-8.529c2.453-3.4,4.906-6.806,7.559-10.052,1.868-2.277,4.048-4.313,6.141-6.413,3.407-3.4,7.215-6.317,11.864-7.7s9.62-2.621,14.429-3.615c6.694-1.355,13.443-.89,20.193-.144a56.571,56.571,0,0,1,36.739,19.432,27.137,27.137,0,0,1,3.15,4.409c1.924,3.728,3.776,7.5,5.419,11.367a86.078,86.078,0,0,1,4.377,11.784c1.475,5.724,2.5,11.568,3.5,17.4,1.892,11,3.768,22.013,5.379,33.051,1.122,7.736,2.012,15.52,2.605,23.311.529,6.942.545,13.924.713,20.891,0,1.387.128,2.878-1.194,4.321l-11.447-1.523c-.2-2.221-.417-4.12-.537-6.02-.353-5.339-.641-10.686-1-16.033q-1.058-15.848-2.18-31.7c-.072-1.042-.208-2.084-.345-3.126q-1.1-8.225-2.213-16.45c-.593-4.425-1.17-8.866-1.78-13.291-.152-1.09-1.034-1.475-2.108-1.114-1.21.409-1.218,1.307-1.082,2.317.906,6.694,1.659,13.419,2.758,20.089a128.034,128.034,0,0,1,1.884,20.714c0,1.716.08,3.431.224,5.138.505,5.884,1.066,11.768,1.6,17.636q.625,7.263,1.13,14.542a12.825,12.825,0,0,1-.273,2.325c-2.164.281-4.136.593-6.125.8-3.038.273-6.1.369-9.131.681-9.387.962-18.806.762-28.21.8a4.73,4.73,0,0,1-3.543-1.523c-1.772-1.812-3.792-3.383-5.756-5.106-1.6,1.828-3.038,3.383-4.409,4.954a5.018,5.018,0,0,1-3.455,1.691c-9.091,1.146-18.221,1.828-27.376,2.172a43.888,43.888,0,0,0-5.443.273c-5.611.93-11.263.537-16.906.5a19.015,19.015,0,0,1-2.4-.321c.136-2.4.337-4.706.377-6.974.16-8.225.1-16.458.433-24.674.281-6.67,1.026-13.323,1.6-19.977.385-4.762,1.066-9.523,1.114-14.285a102.007,102.007,0,0,1,1.691-15.079c.345-2.148,1.122-4.225,1.667-6.349.273-1.05,0-2.06-1.122-2.253a1.876,1.876,0,0,0-2.164,1.427c-.048.176-.048.377-.1.561a72.867,72.867,0,0,0-2.79,15.159c-.313,3.207-.248,6.477-.513,9.708-.449,5.475-1.042,10.942-1.555,16.409-.24,2.565-.441,5.13-.657,7.7-.3,3.615-.754,7.215-.874,10.838-.16,5.138-.08,10.285-.112,15.423,0,.746-.08,1.483-.128,2.317h-.553v2.148h.593v3.744h-.665v1.876h.6c-.569,6.718.6,12.89.329,19.351-.281-.08-.553-.16-.8-.257.08,1.066.128,2.132.152,3.207l.882.257c0,2.2-.048,4.369.048,6.525q.457,10.165,1.018,20.313c.289,5.243.657,10.485.946,15.728.361,6.774.641,13.548,1.042,20.321.353,6,.7,12.025,1.267,18.013.457,4.738,1.307,9.427,1.868,14.157.449,3.792.609,7.616,1.106,11.4.529,3.952,1.315,7.872,1.972,11.816.2,1.219.337,2.453.537,3.672.457,2.726.93,5.443,1.411,8.169a2.4,2.4,0,0,0,2.036,2.108,9.722,9.722,0,0,0,1.411.273c4.088.168,8.193.361,12.289.449,2.2,0,2.629-.513,2.4-2.8-.545-5.611-1.323-11.175-1.643-16.786-.585-10.173-2.846-20.161-3.311-30.35-.281-5.988-.874-11.968-1.259-17.957-.441-6.846-.8-13.708-1.194-20.562-.232-4.193-.4-8.385-.609-12.586a72.756,72.756,0,0,1,2.581-23.5c1.138-4.1,3.527-6.413,7.664-7.96a92.787,92.787,0,0,1,17.323-4.353c7.527-1.259,15.095-2.87,22.75-1.892,5.772.738,11.383,2.253,16.305,5.708a17.011,17.011,0,0,1,7,10.165,106.429,106.429,0,0,1,2.036,11.8,117.074,117.074,0,0,1,1.1,12.826c.128,8.121,0,16.241-.152,24.362-.1,4.962-.489,9.924-.705,14.894-.313,7.215-.369,14.51-.922,21.732-.665,8.65-1.7,17.275-2.677,25.9-.353,3.118-1.026,6.2-1.523,9.1a3.776,3.776,0,0,0,3.551,1.788c4.473.128,8.93.633,13.4.874,3.287.176,4.345-.938,4.762-4.225a141.745,141.745,0,0,0,.593-15.656c.1-6.766.265-13.556,1.667-20.241a55.865,55.865,0,0,0,.8-7.7q.385-5.868.609-11.744c.3-7.215.641-14.486.8-21.732.136-6.573-.064-13.155.088-19.728.12-5.427.585-10.854.8-16.289.1-2.349-.064-4.706-.064-7.054a1.7,1.7,0,0,1,.24-.746c2.4-.8,4.593-1.459,6.67-2.349a9.4,9.4,0,0,0,5.459-6.237,92.188,92.188,0,0,0,3.415-21.107A174.721,174.721,0,0,0,375.031,289.8Zm-18.51,67.818c-.168,10.133-.257,20.265-.409,30.4-.12,7.632-.24,15.231-.449,22.895-.072,2.766-.369,5.531-.6,8.3-.481,5.507-.617,11.087-1.6,16.514-1.106,6.253-1.058,12.546-1.507,18.822-.273,3.776-.232,7.583-.385,11.367a16.454,16.454,0,0,1-.5,2.4l-14.245-1.2a22.3,22.3,0,0,1,.144-2.661c.8-5.956,1.836-11.88,2.4-17.86s.906-12.193,1.235-18.245c.192-3.72.168-7.455.345-11.183.369-7.824.946-15.64,1.162-23.472.2-7.167.216-14.341,0-21.5-.249-7.808-.465-15.648-2.357-23.247-.85-3.423-1.6-6.974-4.1-9.676a31.44,31.44,0,0,0-14.117-8.77c-6.565-2.052-13.195-1.924-19.808-1.411-5.387.417-10.7,1.764-16.033,2.541a51.65,51.65,0,0,0-11.159,2.565c-1.243.473-2.589.689-3.8,1.218-3.207,1.419-6.726,2.766-7.936,6.485a71.094,71.094,0,0,0-3.311,12.658,91.986,91.986,0,0,0-.313,19.087c.681,8.265.713,16.578,1.042,24.851,0,.762.12,1.515.192,2.277.505,5.315,1.058,10.622,1.507,15.937.505,6.084.754,12.193,1.411,18.261,1.186,10.87,2.589,21.716,3.944,32.867-4.1.505-7.752-1.8-11.648-.505a23.956,23.956,0,0,1-.858-2.71c-.5-2.693-.866-5.419-1.387-8.121-.9-4.658-1.683-9.315-2.188-14.045-.729-6.894-2-13.74-2.742-20.634s-1.2-13.844-1.6-20.778c-.249-4.072,0-8.177-.265-12.249-.457-8.016-1.186-16.033-1.6-24.009s-.6-15.848-.85-23.768c-.168-5.347-.281-10.694-.4-16.033V320.23a15.088,15.088,0,0,1,1.5-.184c7.928-.048,15.832-.337,23.752-1.122,9.091-.906,18.261-1.05,27.4-1.475a4.65,4.65,0,0,0,3.808-2.012c1.05-1.411,2.365-2.637,3.671-4.064a52.84,52.84,0,0,1,4.906,4.321,4.505,4.505,0,0,0,4.008,1.547c4.762-.232,9.531-.329,14.293-.521,6.766-.273,13.532-.545,20.289-.9,3-.152,5.98-.5,9.2-.8.1,1.363.241,2.485.232,3.615,0,3.447-.1,6.886-.08,10.333,0,2.766.273,5.531.232,8.289C356.906,344.07,356.641,350.844,356.521,357.618Zm12.265-19.239a2.629,2.629,0,0,1-1.042,1.3,19.238,19.238,0,0,1-7.583,2.653c0-5.836-.064-11.4-.1-17.371l11.824,1.234c-.433,4.521-1.852,8.345-3.1,12.209Zm-8.73-15.407c.08-1.17.16-2.309.249-3.511l11.952,1.523v3.4C368.161,323.693,364.113,324.663,360.056,322.971Z" transform="translate(-46.858 -35.456)" fill="#13100d"/>
        <path id="Path_6677" data-name="Path 6677" d="M373.745,315.863c-.168-6.966-.184-13.948-.713-20.891-.593-7.792-1.483-15.576-2.605-23.312-1.6-11.039-3.487-22.053-5.379-33.051-1-5.828-2.028-11.672-3.5-17.4a86.069,86.069,0,0,0-4.377-11.784c-1.6-3.864-3.5-7.64-5.419-11.367a27.136,27.136,0,0,0-3.15-4.409,56.571,56.571,0,0,0-36.739-19.432c-6.75-.746-13.5-1.21-20.193.144-4.858.994-9.692,2.2-14.429,3.615s-8.457,4.3-11.864,7.7c-2.092,2.092-4.273,4.128-6.141,6.413-2.653,3.247-5.106,6.654-7.559,10.052a97.751,97.751,0,0,0-5.78,8.529,69.932,69.932,0,0,0-4.064,8.818,91.722,91.722,0,0,0-3.575,10.245c-1.162,4.417-1.972,8.93-2.838,13.419-.521,2.726-.986,5.467-1.267,8.225-.625,6.06-1.154,12.137-1.651,18.213a40.845,40.845,0,0,0,.048,4.537q.048,6.758.088,13.524a12.145,12.145,0,0,1,5.852-.962,4.762,4.762,0,0,1,3.11,1.563c.192-2.742.505-5.475.738-8.217.216-2.565.417-5.13.657-7.7.513-5.467,1.106-10.934,1.555-16.409.265-3.207.2-6.485.513-9.708a72.869,72.869,0,0,1,2.79-15.159c.056-.184.056-.385.1-.561a1.876,1.876,0,0,1,2.164-1.427c1.154.192,1.395,1.2,1.122,2.253-.545,2.124-1.323,4.2-1.667,6.349a106.5,106.5,0,0,0-1.691,15.079c-.048,4.762-.729,9.523-1.114,14.285-.545,6.654-1.291,13.307-1.6,19.977-.337,8.217-.273,16.45-.433,24.674,0,2.269-.24,4.537-.377,6.974a19.021,19.021,0,0,0,2.4.321c5.611.04,11.287.433,16.906-.5a43.881,43.881,0,0,1,5.443-.273c9.155-.345,18.285-1.026,27.376-2.172a5.019,5.019,0,0,0,3.455-1.691c1.371-1.6,2.774-3.126,4.409-4.954,1.964,1.724,4.008,3.295,5.756,5.106a4.73,4.73,0,0,0,3.543,1.523c9.4-.056,18.822.144,28.21-.8,3.03-.313,6.092-.409,9.131-.681,1.988-.184,3.96-.5,6.125-.8a12.828,12.828,0,0,0,.273-2.325q-.505-7.271-1.13-14.542c-.505-5.884-1.066-11.768-1.6-17.636-.144-1.707-.224-3.423-.224-5.138a128.037,128.037,0,0,0-1.884-20.778c-1.01-6.67-1.812-13.4-2.686-20.113-.136-1.01-.128-1.908,1.082-2.317,1.074-.361,1.956,0,2.108,1.114.609,4.425,1.186,8.866,1.78,13.291l2.213,16.45c.136,1.042.273,2.084.345,3.126q1.106,15.848,2.18,31.7c.361,5.339.649,10.686,1,16.033.12,1.9.337,3.8.537,6.02l11.447,1.523C373.873,318.741,373.777,317.249,373.745,315.863ZM332.6,205.405a54.614,54.614,0,0,1-.8,5.66A65.967,65.967,0,0,1,321.5,237.23c-.8,1.194-1.395,2.621-2.453,3.5-3.712,3.134-6.012,7.327-8.818,11.127a56.113,56.113,0,0,1-9.387,9.956,2.782,2.782,0,0,1-3.455.152,11.029,11.029,0,0,1-2.148-1.9A74.44,74.44,0,0,1,282.8,239.98c-1.683-4.048-3.142-8.185-4.682-12.3-1.1-2.95-2.124-5.924-3.207-8.858a45.18,45.18,0,0,1-2.99-22.67,16.57,16.57,0,0,1,5.058-10.229,22.446,22.446,0,0,1,10.678-5.66,100.16,100.16,0,0,1,13.371-2.02c3.287.449,6.638.665,9.86,1.419s6.91,1.451,9.708,3.207C328.709,188.042,333.19,195.473,332.6,205.405Z" transform="translate(-47.688 -36.291)" fill="#ff8300"/>
        <path id="Path_6678" data-name="Path 6678" d="M247.51,355.356v4.754c.12,5.347.232,10.694.4,16.033.249,7.92.441,15.856.85,23.768s1.154,16.033,1.6,24.009c.232,4.072,0,8.177.265,12.249.417,6.934.874,13.868,1.6,20.778s2.084,13.748,2.8,20.618c.505,4.73,1.291,9.387,2.188,14.045.521,2.7.89,5.427,1.387,8.121a23.948,23.948,0,0,0,.858,2.71c3.9-1.3,7.551,1.01,11.648.505-1.355-11.127-2.758-21.973-3.944-32.867-.657-6.068-.906-12.177-1.411-18.261-.449-5.315-1-10.622-1.507-15.936-.072-.762-.168-1.515-.192-2.277-.329-8.3-.361-16.61-1.042-24.851a91.988,91.988,0,0,1,.313-19.087,71.1,71.1,0,0,1,3.311-12.658c1.21-3.72,4.69-5.066,7.936-6.485,1.21-.529,2.557-.746,3.8-1.219a51.649,51.649,0,0,1,11.095-2.581c5.371-.8,10.686-2.124,16.033-2.541,6.613-.513,13.243-.641,19.808,1.411a31.44,31.44,0,0,1,14.117,8.77c2.485,2.7,3.207,6.253,4.1,9.676,1.892,7.632,2.108,15.471,2.357,23.247.232,7.159.216,14.333,0,21.5-.216,7.832-.8,15.648-1.162,23.472-.176,3.728-.152,7.463-.345,11.183-.321,6.084-.569,12.185-1.17,18.237s-1.6,11.9-2.4,17.86c-.112.8-.1,1.659-.144,2.661l14.245,1.2a16.449,16.449,0,0,0,.5-2.4c.152-3.784.112-7.591.385-11.367.449-6.277.4-12.57,1.507-18.822.954-5.427,1.09-11.006,1.6-16.514.232-2.766.529-5.531.6-8.3.208-7.632.329-15.231.449-22.895.152-10.133.24-20.265.409-30.4.12-6.774.385-13.548.489-20.329.04-2.758-.216-5.523-.232-8.289,0-3.447.08-6.894.08-10.333,0-1.13-.136-2.253-.232-3.615-3.207.273-6.2.617-9.2.8-6.758.353-13.524.625-20.289.9-4.762.192-9.531.289-14.293.521a4.505,4.505,0,0,1-4.008-1.547,52.846,52.846,0,0,0-4.906-4.321c-1.307,1.427-2.621,2.653-3.671,4.064a4.65,4.65,0,0,1-3.888,1.988c-9.139.425-18.309.569-27.4,1.475-7.92.8-15.824,1.074-23.752,1.122A14.8,14.8,0,0,0,247.51,355.356Z" transform="translate(-50.677 -70.606)" fill="#888583"/>
        <path id="Path_6679" data-name="Path 6679" d="M392.68,363.51l.1,17.371a19.11,19.11,0,0,0,7.583-2.653,2.629,2.629,0,0,0,1.042-1.3c1.251-3.864,2.669-7.688,3.1-12.185Z" transform="translate(-79.473 -73.982)" fill="#fff"/>
        <path id="Path_6680" data-name="Path 6680" d="M404.891,361.572v-3.4l-11.952-1.523c-.088,1.2-.168,2.341-.249,3.511C396.73,361.829,400.779,360.859,404.891,361.572Z" transform="translate(-79.475 -72.622)" fill="#fff"/>
        <path id="Path_6681" data-name="Path 6681" d="M320.554,180.839c3.319.8,6.91,1.451,9.708,3.207,8.121,5.146,12.6,12.578,12.025,22.51a54.614,54.614,0,0,1-.8,5.66A65.967,65.967,0,0,1,331.175,238.4c-.8,1.194-1.395,2.621-2.453,3.5-3.712,3.134-6.012,7.327-8.818,11.127a56.113,56.113,0,0,1-9.387,9.956,2.782,2.782,0,0,1-3.455.152,11.029,11.029,0,0,1-2.148-1.9,74.441,74.441,0,0,1-12.441-20.089c-1.683-4.048-3.142-8.185-4.682-12.3-1.1-2.95-2.124-5.924-3.207-8.858a45.18,45.18,0,0,1-2.99-22.67,16.57,16.57,0,0,1,5.058-10.229,22.446,22.446,0,0,1,10.678-5.66,100.16,100.16,0,0,1,13.371-2.02C313.98,179.885,317.331,180.085,320.554,180.839Zm-12.826,2.693c-2.814.489-5.611.858-8.473,1.227A2.341,2.341,0,0,0,297,187.228a16.032,16.032,0,0,0,1.066,7.832c1.6,3.7,3.527,7.006,7.423,8.682a2.309,2.309,0,0,1,1.443,2.8c-.417,2.245-.874,4.481-1.427,6.686-1.5,6-3.11,11.968-4.569,17.973-.746,3.054-.874,6.309-1.988,9.2-1.387,3.6-.4,6.413,1.547,9.283q3.15,4.569,6.413,9.058c1.026,1.411,2.2,1.507,3.607.056q3.607-3.7,6.862-7.7c1.451-1.764,2.605-3.768,3.9-5.66a4.986,4.986,0,0,0,.9-4.561c-.738-2.365-1.146-4.81-1.884-7.215-2.669-8.569-5.339-17.147-8.169-25.652-.8-2.309-.569-3.84,1.451-5.443,5.2-4.152,7.487-9.964,8.577-16.345a4.112,4.112,0,0,0-.128-1.13C317.315,183.564,312.634,182.691,307.728,183.532Zm21.7,51.529a54.63,54.63,0,0,0,8.473-22.534c.216-1.78.8-3.519,1.066-5.3.649-4.473-.858-8.529-2.926-12.321a18.526,18.526,0,0,0-10.069-8.882,11.36,11.36,0,0,0-1.6-.329c-.8,2.653-1.371,5.259-2.285,7.752a22.9,22.9,0,0,1-6.589,9.868,3.479,3.479,0,0,0-1.218,4.209c2.333,7.543,4.425,15.159,6.622,22.742.986,3.383,2,6.75,3.03,10.117a8.746,8.746,0,0,0,.8,1.363c1.659-2.389,3.3-4.457,4.7-6.686Zm-30.566-1.6c.8-3.615,1.6-7.215,2.4-10.862,1.114-4.81,2.221-9.62,3.431-14.429a2.854,2.854,0,0,0-1.355-3.4c-6.285-4.265-8.578-10.421-8.233-17.724a3.478,3.478,0,0,0-.16-.8c-5.611,1.964-9.066,5.772-9.98,11.576-.7,4.433-.184,8.874.361,13.259.281,2.229,1.331,4.353,2.044,6.525a225.012,225.012,0,0,0,8.618,22.943c.136.3.3.593.729,1.419.826-3.247,1.523-5.876,2.14-8.521Z" transform="translate(-57.361 -37.465)" fill="#13100d"/>
        <path id="Path_6682" data-name="Path 6682" d="M325.9,186.048c-4.706-1.547-9.387-2.4-14.293-1.6-2.814.489-5.611.858-8.473,1.227a2.341,2.341,0,0,0-2.253,2.469,16.033,16.033,0,0,0,1.066,7.832c1.6,3.7,3.527,7.006,7.423,8.682a2.309,2.309,0,0,1,1.443,2.8c-.417,2.245-.874,4.481-1.427,6.686-1.5,6-3.11,11.968-4.569,17.973-.746,3.054-.874,6.309-1.988,9.2-1.387,3.6-.4,6.413,1.547,9.283q3.15,4.569,6.413,9.058c1.026,1.411,2.2,1.507,3.607.056q3.607-3.7,6.862-7.7c1.451-1.764,2.605-3.768,3.9-5.66a4.986,4.986,0,0,0,.9-4.561c-.738-2.365-1.146-4.81-1.884-7.215C321.5,226,318.833,217.424,316,208.918c-.8-2.309-.569-3.84,1.451-5.443,5.2-4.152,7.487-9.964,8.577-16.345a4.112,4.112,0,0,0-.128-1.082Z" transform="translate(-61.244 -38.401)" fill="#e9530e"/>
        <path id="Path_6683" data-name="Path 6683" d="M332.805,243.3c1.7-2.4,3.343-4.457,4.738-6.686a54.63,54.63,0,0,0,8.473-22.534c.216-1.78.8-3.519,1.066-5.3.649-4.473-.858-8.529-2.926-12.321a18.525,18.525,0,0,0-10.069-8.882,11.355,11.355,0,0,0-1.6-.329c-.8,2.653-1.371,5.259-2.285,7.752a22.9,22.9,0,0,1-6.589,9.868,3.479,3.479,0,0,0-1.218,4.209c2.333,7.543,4.425,15.159,6.622,22.742.986,3.383,2,6.75,3.03,10.117A8.745,8.745,0,0,0,332.805,243.3Z" transform="translate(-65.476 -39.018)" fill="#fff"/>
        <path id="Path_6684" data-name="Path 6684" d="M297.6,243.576c.8-3.207,1.491-5.8,2.108-8.449.8-3.615,1.6-7.215,2.4-10.862,1.114-4.81,2.22-9.62,3.431-14.429a2.854,2.854,0,0,0-1.355-3.4c-6.285-4.265-8.577-10.421-8.233-17.724a3.48,3.48,0,0,0-.16-.8c-5.611,1.964-9.066,5.772-9.98,11.576-.7,4.433-.184,8.874.361,13.259.281,2.229,1.331,4.353,2.044,6.525a225.026,225.026,0,0,0,8.618,22.943C297.007,242.493,297.176,242.75,297.6,243.576Z" transform="translate(-58.208 -39.149)" fill="#fff"/>
        <path id="Path_6685" data-name="Path 6685" d="M321.22,321.108c1.732-.168,3.7,2.092,3.68,4.008,0,1.756-2.4,3.7-4.465,3.663a3.423,3.423,0,0,1-3.447-3.7C317.076,322.342,318.6,321.364,321.22,321.108Zm1.868,3.816a2.349,2.349,0,0,0-2.453-2.269,2.2,2.2,0,0,0-1.908,2.148,2.4,2.4,0,0,0,2.124,2.269,2.285,2.285,0,0,0,2.237-2.148Z" transform="translate(-64.456 -65.569)" fill="#13100d"/>
        <path id="Path_6686" data-name="Path 6686" d="M321.284,327.456a2.285,2.285,0,0,0,2.237-2.148,2.349,2.349,0,0,0-2.453-2.269,2.2,2.2,0,0,0-1.908,2.148A2.4,2.4,0,0,0,321.284,327.456Z" transform="translate(-64.89 -65.954)" fill="#fff"/>
        <path id="Path_6687" data-name="Path 6687" d="M319.192,298c1.555-.088,4.16,2.277,4.12,3.752s-2.621,3.463-4.4,3.463a3.591,3.591,0,0,1-3.511-3.367A3.824,3.824,0,0,1,319.192,298Zm-.24,5.459c1.355-.136,2.4-.994,2.4-1.988,0-.842-1.235-1.788-2.245-1.715a2.1,2.1,0,0,0-1.964,2.028,1.6,1.6,0,0,0,1.8,1.7Z" transform="translate(-64.144 -60.987)" fill="#13100d"/>
        <path id="Path_6688" data-name="Path 6688" d="M317.579,302.247a1.6,1.6,0,0,0,1.8,1.675c1.355-.136,2.4-.994,2.4-1.988,0-.842-1.235-1.788-2.245-1.715A2.1,2.1,0,0,0,317.579,302.247Z" transform="translate(-64.576 -61.427)" fill="#fff"/>
        <path id="Path_6689" data-name="Path 6689" d="M259.476,504a23.964,23.964,0,0,1-.858-2.71c-.5-2.693-.866-5.419-1.387-8.121-.9-4.657-1.683-9.315-2.188-14.045-.729-6.894-2-13.74-2.742-20.634s-1.2-13.844-1.6-20.778c-.249-4.072,0-8.177-.265-12.249-.457-8.016-1.186-16.033-1.6-24.009s-.6-15.848-.85-23.768c-.168-5.347-.281-10.694-.4-16.033V356.9a14.81,14.81,0,0,1,1.5-.184c7.928-.048,15.832-.337,23.752-1.122,8.313-.8,16.69-1.026,25.051-1.371,2.333,3.856,4.882,7.7,7.68,11.527h0c-5.379.417-10.678,1.756-16.033,2.533a51.65,51.65,0,0,0-11.151,2.6c-1.243.473-2.589.689-3.8,1.218-3.207,1.419-6.726,2.766-7.936,6.485a71.094,71.094,0,0,0-3.311,12.658,91.986,91.986,0,0,0-.313,19.087c.681,8.265.713,16.578,1.042,24.851,0,.762.12,1.515.192,2.277.505,5.315,1.058,10.622,1.507,15.937.505,6.084.754,12.193,1.411,18.261,1.186,10.87,2.589,21.716,3.944,32.867C267.028,505.007,263.372,502.7,259.476,504Z" transform="translate(-50.691 -72.14)" fill="#736f6e"/>
        <path id="Path_6690" data-name="Path 6690" d="M273.132,214.336a43.007,43.007,0,0,1-1.275-17.452,16.57,16.57,0,0,1,5.114-10.221,26.841,26.841,0,0,1,2.982-2.349l2.726-7.094c-1.836.481-3.663.978-5.483,1.523-4.649,1.387-8.457,4.3-11.864,7.7-2.092,2.092-4.273,4.128-6.141,6.413-2.653,3.247-5.106,6.654-7.559,10.052a97.745,97.745,0,0,0-5.78,8.529,69.934,69.934,0,0,0-4.064,8.818,91.723,91.723,0,0,0-3.575,10.245c-1.162,4.417-1.972,8.93-2.838,13.419-.521,2.726-.986,5.467-1.267,8.225-.625,6.06-1.154,12.137-1.651,18.213a40.845,40.845,0,0,0,.048,4.537l.1,14.846a3.864,3.864,0,0,1,3.126-.89,4.345,4.345,0,0,1,5.9-.681c.192-2.453.457-4.906.665-7.367s.417-5.13.657-7.7c.513-5.467,1.106-10.934,1.555-16.409.265-3.207.2-6.485.513-9.708a72.869,72.869,0,0,1,2.79-15.159c.056-.184.056-.385.1-.561a1.876,1.876,0,0,1,2.164-1.427c1.154.192,1.395,1.2,1.122,2.253-.545,2.124-1.323,4.2-1.667,6.349a106.5,106.5,0,0,0-1.691,15.079c-.048,4.762-.729,9.523-1.114,14.285-.545,6.654-1.291,13.307-1.6,19.977-.337,8.217-.273,16.45-.433,24.674,0,2.269-.24,4.537-.377,6.974a19.021,19.021,0,0,0,2.4.321c5.611.04,11.287.433,16.906-.5a43.887,43.887,0,0,1,5.443-.273c8.193-.3,16.361-.89,24.506-1.828C270.936,278.434,270.23,239.122,273.132,214.336Z" transform="translate(-47.68 -37.029)" fill="#de7816"/>
        <path id="Path_6691" data-name="Path 6691" d="M270.48,142.658a47.024,47.024,0,0,0,5.611,19.865,36.875,36.875,0,0,0,9.82,11.367c3.856,3.03,8.433,3.912,13.051,4.649a30.88,30.88,0,0,0,7.11.553A58.744,58.744,0,0,0,323,175.381a24.3,24.3,0,0,0,5.724-3.647c4.417-3.471,9.018-6.854,11.688-11.968,3.671-7.03,5.443-14.429,3.511-22.4a61.573,61.573,0,0,0-10.79-22.911,25.083,25.083,0,0,0-10.758-7.832c-2.4-.97-4.81-1.852-7.215-2.621a14.542,14.542,0,0,0-8.994-.16c-3.7,1.194-7.527,2.044-11.167,3.4a51.808,51.808,0,0,0-8.353,4.12,32.61,32.61,0,0,0-13.091,15.1C271.217,131.66,270.8,137.111,270.48,142.658Z" transform="translate(-55.233 -22.347)" fill="#13100d"/>
        <path id="Path_6692" data-name="Path 6692" d="M274.5,140.535c.457-2.237,1.13-6.076,2.028-9.86,1.683-7.143,6.718-11.744,12.361-15.8a18.919,18.919,0,0,1,3.768-2.02c2.621-1.09,5.339-1.972,7.944-3.094a24.722,24.722,0,0,1,7.88-2.076c.176,0,2.148-.3,2.317-.3a15.232,15.232,0,0,1,4.489.521,45.848,45.848,0,0,1,5.307,1.812,25.6,25.6,0,0,1,11.688,8.818,63.865,63.865,0,0,1,7.816,15.528,28.388,28.388,0,0,1,1.515,15.423c-1.435,7.319-4.81,13.371-10.766,17.933-.8.633-1.683,1.235-2.5,1.884a29.011,29.011,0,0,1-11.119,5.611,44.587,44.587,0,0,1-20.386.649,20.081,20.081,0,0,1-8.738-4.008,35.112,35.112,0,0,1-8.818-10.686C276.143,154.909,275.005,148.7,274.5,140.535Z" transform="translate(-56.031 -23.175)" fill="#fff"/>
        <path id="Path_6693" data-name="Path 6693" d="M276.5,131.467c1.683-7.143,6.718-11.744,12.361-15.8a18.918,18.918,0,0,1,3.768-2.02c1.956-.8,3.96-1.507,5.932-2.277-.3.521-.585,1.05-.874,1.6-1.916,3.712-3.134,8.714-4.008,14.478-.361,2.4-.553,4.112-.8,6.605a49.991,49.991,0,0,0-.241,5.563c0,.208.128,2.645.136,2.878a76.714,76.714,0,0,0,.946,9.756c.505,3.207.906,6.6,1.395,9.844.249,1.6.545,3.247.914,4.666a66.989,66.989,0,0,0,3.319,10.044c-.8-.12-1.651-.273-2.485-.449a20.081,20.081,0,0,1-8.738-4.008,35.112,35.112,0,0,1-8.818-10.686c-3.158-5.94-4.3-12.153-4.81-20.313C274.957,139.131,275.63,135.251,276.5,131.467Z" transform="translate(-56.031 -23.967)" fill="#e6e5e5"/>
        <path id="Path_6694" data-name="Path 6694" d="M318.922,152.94c-.2,2.309-4.369,5.371-6.678,4.994s-3.447-1.908-4.1-4.048c-.681-2.293-.705-4.2,1.427-5.924,1.491-1.21,4.633-2,6.157-1.1,1.924,1.146,3.367,2.613,3.207,4.81C318.93,152.29,318.954,152.619,318.922,152.94Zm-4.665-3.9a2.227,2.227,0,0,0-2.814.8c-1.267,1.435-1.227,1.972.377,4.81,2.124.232,2.124.232,4.088-1.026C316.229,150.96,315.772,149.757,314.257,149.044Z" transform="translate(-62.624 -30.93)" fill="#13100d"/>
        <path id="Path_6695" data-name="Path 6695" d="M316.6,154.2c.321-2.661-.136-3.864-1.651-4.577a2.227,2.227,0,0,0-2.814.8c-1.267,1.435-1.227,1.972.377,4.81C314.64,155.491,314.64,155.491,316.6,154.2Z" transform="translate(-63.32 -31.509)" fill="#fff"/>
        <path id="Path_6696" data-name="Path 6696" d="M293.47,145.71c3.207,0,6.269,3.158,6.245,6.573,0,2.693-2.549,4.85-6.638,5.179-2.782.224-5.363-2.718-5.387-5.908a6.116,6.116,0,0,1,5.78-5.844Zm-.1,8.818c2.18,0,3.415-.8,3.463-2.229.072-2-1.539-4.168-3.07-4.12a3.407,3.407,0,0,0-3.062,2.974c-.056,2.14.938,3.391,2.669,3.4Z" transform="translate(-58.647 -30.778)" fill="#13100d"/>
        <path id="Path_6697" data-name="Path 6697" d="M291.449,151.794c-.056,2.116.938,3.367,2.669,3.375,2.18,0,3.415-.8,3.463-2.229.072-2-1.539-4.169-3.07-4.12A3.407,3.407,0,0,0,291.449,151.794Z" transform="translate(-59.392 -31.395)" fill="#fff"/>
        <path id="Path_6698" data-name="Path 6698" d="M257.248,283.664a6.413,6.413,0,0,1-.93,1.09,4.128,4.128,0,0,1-1.363.8c-2.124.609-4.265,1.154-6.413,1.724l-12.954,3.4c-1.034.273-2.068.537-3.094.8-.729.208-1.114-.168-1.435-.746-1.339-2.4-2.645-4.81-4.008-7.151-2.493-4.257-5.034-8.481-7.559-12.714-1.74-2.91-3.511-5.8-5.2-8.722-1.451-2.517-2.79-5.1-4.209-7.632-.874-1.563-1.86-3.062-2.71-4.633-.609-1.146-.473-1.2.577-2.012,1.94-1.491,3.816-3.054,5.724-4.585,2.084-1.667,4.1-3.439,6.285-4.978s4.6-2.974,6.934-4.4a4.16,4.16,0,0,1,1.748-.729c2.4-.168,4.882-.136,7.311-.353a3.655,3.655,0,0,1,3.864,2.229c1.547,2.838,3.158,5.611,4.738,8.441,1.339,2.4,2.758,4.754,4.008,7.215,2.4,4.81,4.569,9.708,7.054,14.429a118.553,118.553,0,0,1,5.868,13.091C259.949,280.193,258.6,281.933,257.248,283.664Zm-47.93-34.222c1.2,2.213,2.4,4.537,3.7,6.782,3.207,5.515,6.485,11,9.724,16.5q4.625,7.84,9.259,15.688c.754,1.283.721,1.259,2.076.89,5.4-1.475,10.814-2.91,16.209-4.4,1.243-.345,2.4-.866,3.84-1.371-.473-.9-.858-1.683-1.283-2.445-2.124-3.736-4.361-7.415-6.357-11.223-3.207-6.125-6.221-12.361-9.387-18.518-2.269-4.4-4.617-8.762-6.982-13.115a33.971,33.971,0,0,0-1.94-2.814c-7.126,3.768-12.994,8.77-18.854,14.029Zm49.846,28.482a60.12,60.12,0,0,0-3.423-8.257c-2.557-4.994-4.882-10.117-7.479-15.095-3.15-6.036-6.493-11.968-9.692-17.981a2.758,2.758,0,0,0-3.134-1.707,56.475,56.475,0,0,1-5.86.048c.8,1.491,1.491,2.669,2.108,3.872,1.467,2.87,2.862,5.772,4.369,8.618,2.012,3.8,4.112,7.551,6.149,11.335,1.13,2.1,2.325,4.177,3.279,6.357a140.227,140.227,0,0,0,7.76,14.341c.633,1.082,1.283,2.156,2.156,3.607Z" transform="translate(-42.642 -48.055)" fill="#13100d"/>
        <path id="Path_6699" data-name="Path 6699" d="M230.684,238.874c2.365,4.353,4.714,8.714,6.982,13.115,3.207,6.157,6.181,12.393,9.387,18.518,2,3.808,4.233,7.487,6.357,11.223.425.8.8,1.547,1.283,2.445-1.4.505-2.6,1.026-3.84,1.371-5.4,1.491-10.806,2.926-16.209,4.4-1.355.369-1.323.393-2.076-.89q-4.617-7.856-9.259-15.688c-3.207-5.5-6.509-10.982-9.724-16.5-1.307-2.245-2.493-4.569-3.7-6.782,5.86-5.3,11.728-10.261,18.854-14.029A33.97,33.97,0,0,1,230.684,238.874Z" transform="translate(-43.214 -48.701)" fill="#2e2b29"/>
        <path id="Path_6700" data-name="Path 6700" d="M258.824,279.957a140.228,140.228,0,0,1-7.76-14.341c-.954-2.18-2.148-4.257-3.279-6.357-2.036-3.784-4.136-7.535-6.149-11.335-1.507-2.846-2.9-5.748-4.369-8.618-.617-1.2-1.291-2.4-2.108-3.872a56.48,56.48,0,0,0,5.86-.048,2.758,2.758,0,0,1,3.134,1.707c3.207,6.012,6.541,11.944,9.692,17.981,2.6,4.978,4.922,10.1,7.479,15.095a60.121,60.121,0,0,1,3.423,8.257l-3.768,5.122C260.107,282.1,259.458,281.023,258.824,279.957Z" transform="translate(-48.227 -48.555)" fill="#454240"/>
        <path id="Path_6701" data-name="Path 6701" d="M247.27,252.032a2.4,2.4,0,0,0,2.188,2.277c1.018,0,1.932-.673,1.94-1.443a2.838,2.838,0,0,0-2.461-2.565A1.8,1.8,0,0,0,247.27,252.032Z" transform="translate(-50.629 -51.525)" fill="#13100d"/>
        <path id="Path_6702" data-name="Path 6702" d="M248.05,252.264a1.667,1.667,0,0,0,1.531,1.6c.713,0,1.347-.473,1.355-1.01a1.972,1.972,0,0,0-1.715-1.788,1.243,1.243,0,0,0-1.17,1.194Z" transform="translate(-50.784 -51.678)" fill="#2e2b29"/>
        <path id="Path_6703" data-name="Path 6703" d="M247.805,245.4a2.4,2.4,0,0,0-2.645-1.732c-.994.224-1.732,1.09-1.6,1.844a2.83,2.83,0,0,0,2.974,1.94,1.78,1.78,0,0,0,1.275-2.052Z" transform="translate(-49.89 -50.205)" fill="#13100d"/>
        <path id="Path_6704" data-name="Path 6704" d="M247.348,245.6a1.651,1.651,0,0,0-1.852-1.2c-.689.152-1.2.762-1.09,1.283a1.972,1.972,0,0,0,2.076,1.355,1.243,1.243,0,0,0,.866-1.435Z" transform="translate(-50.058 -50.35)" fill="#2e2b29"/>
        <path id="Path_6705" data-name="Path 6705" d="M218.462,254.2a3.006,3.006,0,0,0-3.351-2.18c-1.259.281-2.188,1.371-1.988,2.325a3.583,3.583,0,0,0,3.768,2.453,2.261,2.261,0,0,0,1.571-2.6Z" transform="translate(-43.85 -51.86)" fill="#13100d"/>
        <path id="Path_6706" data-name="Path 6706" d="M217.791,254.491a1.972,1.972,0,0,0-2.2-1.427c-.8.184-1.435.906-1.3,1.523a2.349,2.349,0,0,0,2.469,1.6,1.483,1.483,0,0,0,1.026-1.7Z" transform="translate(-44.084 -52.069)" fill="#fff"/>
        <path id="Path_6707" data-name="Path 6707" d="M234.332,264.727a6.413,6.413,0,0,0-6.694,5.339,6.654,6.654,0,0,0,1.307,4.81,5.964,5.964,0,0,0,4.585,2.894c2.782.176,5.267-.689,6.814-3.158a5.8,5.8,0,0,0-.345-6.726,6.02,6.02,0,0,0-2.012-2.052C236.657,264.824,235.27,264.944,234.332,264.727Z" transform="translate(-46.726 -54.385)" fill="#13100d"/>
        <path id="Path_6708" data-name="Path 6708" d="M234.555,276.957a5.416,5.416,0,0,1-1.018-.088,6,6,0,0,1-4.048-3.126,5.138,5.138,0,0,1-.265-4.9,4.7,4.7,0,0,1,3.5-2.838,6.413,6.413,0,0,1,4.185.7,7.672,7.672,0,0,1,2.79,2.541,4.946,4.946,0,0,1-.329,5.555A6.5,6.5,0,0,1,234.555,276.957Z" transform="translate(-46.948 -54.622)" fill="#454240"/>
        <path id="Path_6709" data-name="Path 6709" d="M241.544,289c2.02.729,3.3,2.325,4.5,3.96a11.867,11.867,0,0,1,.689,13.74c-3.142,5.026-8.217,6.8-13.884,6.413-4.008-.257-7.119-2.4-9.411-5.812a13.617,13.617,0,0,1-2.653-9.836,13.179,13.179,0,0,1,13.628-10.9C236.373,286.911,239.371,286.694,241.544,289Zm2.926,17.788c2.2-2.661,3.311-7.744.8-11.592a16.145,16.145,0,0,0-5.852-5.331A13.379,13.379,0,0,0,230.6,288.4c-3.543.473-5.772,2.9-7.343,5.956-1.8,3.519-1.066,6.958.545,10.285,1.732,3.591,4.81,5.507,8.513,6.565a11.71,11.71,0,0,0,2.124.184C238.289,311.088,241.881,309.918,244.47,306.791Z" transform="translate(-45.352 -58.716)" fill="#13100d"/>
        <path id="Path_6710" data-name="Path 6710" d="M234.895,311.8c3.776-.3,7.367-1.475,9.956-4.6,2.2-2.661,3.311-7.744.8-11.592a16.145,16.145,0,0,0-5.852-5.331,13.379,13.379,0,0,0-8.818-1.467c-3.543.473-5.772,2.9-7.343,5.956-1.8,3.519-1.066,6.958.545,10.285,1.732,3.591,4.81,5.507,8.513,6.565a11.713,11.713,0,0,0,2.2.184Z" transform="translate(-45.733 -59.123)" fill="#fff"/>
        <path id="Path_6711" data-name="Path 6711" d="M224.275,305.115c-1.6-3.327-2.349-6.766-.545-10.285,1.515-2.958,3.655-5.315,7.006-5.9-1.764,3.575-3.207,10.606,1.459,22.558C228.765,310.4,225.911,308.506,224.275,305.115Z" transform="translate(-45.751 -59.188)" fill="#e6e5e5"/>
        <path id="Path_6712" data-name="Path 6712" d="M148.656,84.323c17.091-2.894,34-6.814,51.168-9.187q6.565-.914,13.179-1.451c2.156-.176,4.3-.321,6.461-.409,1.844-.072,3.559.1,4.6,1.8a11.76,11.76,0,0,1,1.339,4.633,21.027,21.027,0,0,1,.208,4.914,5.539,5.539,0,0,1-2.028,4.056c-1.435,1.026-3.343,1.186-5.042,1.347-16.778,1.6-33.524,3.447-50.206,5.852q-12.313,1.78-24.546,3.936" transform="translate(-30.102 -16.407)" fill="#1f1f1c"/>
        <path id="Path_6713" data-name="Path 6713" d="M149.779,98.02c17.588-2.613,35.272-4.537,52.964-6.253,3.543-.345,7.119-1.21,8.586-4.81,1.251-3.1.746-6.974.056-10.165a9.748,9.748,0,0,0-2.028-4.465,6.349,6.349,0,0,0-4.922-1.94,119.627,119.627,0,0,0-13.628,1.018c-18.221,2-36.074,6.1-54.118,9.331-23.127,4.1-46.807,5.443-70.175,7.7A4.008,4.008,0,0,0,64,89.314c-.8.8-.754,2.06-.657,3.207a141.145,141.145,0,0,0,2.164,15.231,5.507,5.507,0,0,0,1.058,2.669c1.018,1.13,2.734,1.227,4.249,1.17,8.914-.321,18.6-4.585,27.32-6.413a12.534,12.534,0,0,1,5.732-.313" transform="translate(-14.135 -15.835)" fill="#5c5957"/>
      </g>
    </g>
  </g>
</svg>
