<svg xmlns="http://www.w3.org/2000/svg" width="420.72" height="358.464" viewBox="0 0 420.72 358.464">
  <g id="Layer_2" data-name="Layer 2" transform="translate(0 0)">
    <g id="Layer_1" data-name="Layer 1">
      <path id="Path_6419" data-name="Path 6419" d="M21.72,221.07a17,17,0,0,1-6.5-3.31,2.76,2.76,0,0,1-.77-1.54c-1.34-9.65-2.67-19.3-2.29-29.05.19-5,.43-10.1.62-15.15.05-2.08.57-2.62,2.53-2.52,1.67.09,3.4.19,5.55.34.66,8.37-.86,16.88-.15,25.39S21.38,212.16,21.72,221.07Z" fill="#fff"/>
      <path id="Path_6420" data-name="Path 6420" d="M21.67,150.69c-.19,5.14-.38,9.95-.62,15-5.21,1.24-10.47.25-15.72.94a31.37,31.37,0,0,1-.63-10.24l.3-2.68c.19-2.23.62-2.48,2.82-3,4.21-.94,8.36-.15,12.57-.4a9.849,9.849,0,0,1,1.28.38Z" fill="#de7816"/>
      <path id="Path_6421" data-name="Path 6421" d="M144.46,153.49c-.19-5.44-.77-6.13-5-7.47a9.93,9.93,0,0,1,.19-1.09,25.69,25.69,0,0,0,.48-5.1c-.15-5.19-.53-10.49-.86-15.64l-.19-3a50.371,50.371,0,0,0-.72-6.48A99.1,99.1,0,0,0,127.25,85.9a67.57,67.57,0,0,0-17.32-20.1c-.48-.34-1-.74-1.48-1.09.19-.34.38-.64.53-.94a52.09,52.09,0,0,0,5.77-21.23v-.15c-.34-6.24-.81-11.88-3.2-17.32A35.22,35.22,0,0,0,97.9,8.71a51.93,51.93,0,0,0-8.59-4.4c-2.24-.89-4.58-1.54-6.82-2.18C81,1.68,79.49,1.24,78,.74a15.1,15.1,0,0,0-9.78.15c-2.44.79-4.92,1.73-7.4,2.77a26.41,26.41,0,0,0-11.3,8.57A66.38,66.38,0,0,0,38.46,36.58c-1.81,7.82-.62,15.74,3.63,24.25.33.65.71,1.34,1.09,2-1.81.89-3.34,1.69-4.72,2.53C34,68,30.54,71.77,27.16,75.49l-.24.24a8.68,8.68,0,0,0-1.15,1.73l-.67,1.29c-.85,1.64-1.76,3.37-2.62,5-.43.84-.86,1.73-1.29,2.57A40.39,40.39,0,0,0,18,93.7c-2.52,8.91-4.86,18.17-7.25,28.36a106.7,106.7,0,0,0-2.86,18.47c-.09,1.53-.24,3-.43,4.5l-.14,1.19a6.408,6.408,0,0,0-.86.34,18.4,18.4,0,0,1-3,1c-2.53.55-2.91,2.48-3,3.91a20.543,20.543,0,0,1-.19,2.48C.16,155.38,0,156.81,0,158.3c0,3.66,0,6.48.24,9.1.24,3.27,1.24,4.21,4.48,4.21a8.469,8.469,0,0,0,1.67-.2l1-.15h.82v3.07c0,1.93-.14,3.91-.19,5.84-.13,3.37-.23,6.88-.32,10.3a158.38,158.38,0,0,0,1.15,18.21c.18,1.94.41,4,.59,5.94.14,1.34.27,2.73.46,3.91a4.92,4.92,0,0,0,2.51,4c1.83,1,3.61,2,5.49,3.07.59.35,1.23.7,1.83,1v6a19.37,19.37,0,0,1,.68,3.16,25.169,25.169,0,0,1,0,3.37v4.45c.1,1.34,0,2.78.1,4.16,0,2.28.1,4.61.14,6.83.05,1.29.05,2.58.1,3.91v3c0,1.59.05,3.17.09,4.75l.15,3.57c0,.89.09,1.83.14,2.72.1,1.93.14,3.86.19,5.79.1,4.21.24,8.52.62,12.77.19,2.13.53,4.31.81,6.39a64.641,64.641,0,0,1,1,9.2c.05,3.52.19,6.93.38,10.2.15,2.57.34,5.64.77,8.66.62,4.85,1.38,9.8,2.1,14.56l.19,1.08a34.439,34.439,0,0,0,1,4.51c.71,2.37,4.58,3.78,4.58,3.78h1.41c3.21-.1,6.6-.3,10-.6a9.56,9.56,0,0,0,2.41-.54,9.549,9.549,0,0,1,1.08-.3,3.57,3.57,0,0,0,2.64-2.92,12.5,12.5,0,0,0-.14-5.79c-.09-.6-.24-1.19-.28-1.78-.24-1.78-.47-3.57-.76-5.3-.37-2.62-.75-5.3-1-8a35.48,35.48,0,0,1-.15-3.86c0-1.14,0-2.33-.09-3.51-.19-2.38-.43-4.76-.61-7-.29-2.77-.52-5.6-.71-8.42-.33-4.85-.57-9.8-.76-14.6,0-1.29-.09-2.57-.18-3.86l-.1-2.38c-.19-4.4-.42-8.95-.52-13.41,0-1.53-.09-3.07-.14-4.65-.19-5.55-.38-11.24-.19-16.83a87.179,87.179,0,0,1,1.75-13l.19-.94c.42-2.33,1.08-4.7,3-6.39,3.06-2.67,6-4.15,9.05-4.5,4.11-.5,8.35-.74,12.41-1,1.13-.05,2.26-.15,3.44-.25a6.549,6.549,0,0,1,1.65.15,1.415,1.415,0,0,1,.66.1,77.767,77.767,0,0,1,14.15,3.71l1.32.45c4.76,1.58,7.4,4.75,8.3,10.05.09.64.24,1.33.38,2,.28,1.53.56,3.11.7,4.65a56.711,56.711,0,0,1,.33,7.82c-.14,2.92-.37,5.94-.56,8.86-.33,4.55-.66,9.26-.76,13.86a290.746,290.746,0,0,1-1.55,29.55c-.57,4.85-.8,9.75-1.09,14.5-.14,2.28-.23,4.66-.42,6.93a8.7,8.7,0,0,0,0,1.14,26.342,26.342,0,0,1-.42,4,73.159,73.159,0,0,0-1.75,12,26.57,26.57,0,0,1-.28,3.27c0,.44-.1.89-.14,1.38a4.48,4.48,0,0,0,.89,3.52,4.35,4.35,0,0,0,3.49,1.38c2.5,0,5-.1,7.5-.25,1.42,0,2.83-.14,4.2-.19,4.34-.15,4.91-.75,5.19-5.2v-.35a151.678,151.678,0,0,1,1.6-18.51c.28-2.13.57-4.36.8-6.58.33-3,.66-6.09,1-9.56.23-2.62.37-5.29.47-7.87v-.49c.09-1.34.14-2.67.18-4,.1-2.08.19-4.26.33-6.39.19-2.92.43-5.89.66-8.71.19-2.37.38-4.7.57-7.08.38-4.9.66-9.75.94-14.3.43-7,.9-14.36,1.32-21.78.19-2.92.33-5.89.48-8.86l.14-2.72h.19a10.478,10.478,0,0,0,5.47-2c2.83-1.73,4.85-3.71,5.51-7.82l.1-.7a106.642,106.642,0,0,0,1.84-17.86V172.45h0a7.839,7.839,0,0,1,1.72-.78c3.57-1.14,4.48-3.61,4.58-5.49l.09-1.54C144.31,160.92,144.54,157.22,144.46,153.49ZM132,190.1a120,120,0,0,1-1.1,20.93c-.14,1-.38,2-.57,2.92s-.39,1.93-.58,2.92c-.14.75-.67,1.09-1.62,1.64l-.53.29a10.929,10.929,0,0,1-2.39.95h0a64.091,64.091,0,0,1,.57-13.77,65.17,65.17,0,0,0,.76-10.54c0-3.27.24-6.63.53-9.9.09-1.43.24-2.87.33-4.3l.53-8.07,4.11-.25v4.6c0,1.39,0,2.73-.05,4.11.05,2.78.05,5.65.05,8.48Zm-1.44-23.31H127.7v-3.61c0-1.19,0-2.43-.09-3.62,0-1.63-.09-3.31-.13-4.95v-1.83a6.811,6.811,0,0,1,1.57-.44l.53-.1a24,24,0,0,1,5.19-.75,9.679,9.679,0,0,1,1.7.15c1.4.25,1.4.74,1.36,1.34-.09,3.51-.18,7.28-.35,11.83,0,.3-.05,1-1.14,1.29l-.35.09a16.911,16.911,0,0,1-3.05.65,17.48,17.48,0,0,0-2.4,0Z"/>
      <path id="Path_6422" data-name="Path 6422" d="M138,146.58c4.67,1.43,4.91,1.48,5.05,6.63.14,4.16-.19,8.32-.42,12.47-.14,2.38-1.56,3.72-3.69,4.41a18.458,18.458,0,0,0-2.55,1.19v26.18a119.247,119.247,0,0,1-1.94,18.37c-.57,3.51-2.22,5.29-4.91,7-2,1.18-3.74,2.27-6.15,1.68q-.36,6.52-.71,12.92c-.42,7.27-.9,14.5-1.32,21.78q-.435,7.125-1,14.25c-.38,5.25-.9,10.55-1.23,15.79-.23,3.47-.33,6.93-.52,10.4-.14,2.77-.28,5.54-.52,8.31-.23,3.17-.56,6.34-.89,9.51-1,8.41-2.41,16.73-2.46,25.24v.3c-.24,3.81-.38,3.91-4.07,4-3.87.14-7.8.39-11.67.39-2.41,0-3.45-1.33-3.26-3.51.14-1.59.38-3.17.42-4.75a65.729,65.729,0,0,1,1.7-11.78,32.479,32.479,0,0,0,.52-5.3c.48-7.13.71-14.31,1.52-21.38,1.13-9.9,1.46-19.75,1.6-29.7.1-7.58,1-15.1,1.33-22.67a56.51,56.51,0,0,0-.33-8c-.24-2.28-.71-4.46-1.09-6.73-1-5.55-3.83-9.31-9.12-11S82,219,76.55,218.3a15.742,15.742,0,0,0-2.56-.25c-5.29.35-10.63.65-15.92,1.24A18.48,18.48,0,0,0,48.38,224c-2.13,1.83-2.93,4.46-3.41,7.08A102.67,102.67,0,0,0,43,245.28c-.24,7.17.14,14.35.33,21.53.14,5.3.42,10.54.66,15.84.28,6.19.52,12.32.94,18.51.33,5.15,1,10.3,1.37,15.44.19,2.48,0,5,.24,7.43.47,4.45,1.23,8.86,1.8,13.31.28,2.33,1.13,4.66.47,7.08-.28,1.09-.71,1.78-1.8,2a26.324,26.324,0,0,1-3.31.84q-5,.45-9.92.6a3.39,3.39,0,0,1-3.55-2.77,33.64,33.64,0,0,1-.89-4.31c-.81-5.2-1.61-10.4-2.27-15.64-.38-2.82-.57-5.69-.76-8.57-.19-3.36-.28-6.73-.38-10.14-.09-5.3-1.32-10.45-1.79-15.69-.52-6.14-.52-12.33-.76-18.52-.09-2.07-.24-4.15-.28-6.23-.1-2.58-.1-5.2-.15-7.77,0-3.57-.18-7.13-.23-10.7-.05-2.87.09-5.74,0-8.61,0-2.18-.24-4.35-.29-6.53-.05-2.48,0-4.95,0-7-2.93-1.59-5.58-3.12-8.27-4.51a3.65,3.65,0,0,1-2-3.06c-.19-1.34-.34-2.58-.48-3.87C11,206,9.85,198.06,10,190c.09-5.4.37-10.74.52-16.09v-4.35c-.95,0-1.56-.05-2.18,0-.85,0-1.7.29-2.5.29-2.51,0-3.07-.39-3.26-3.07-.24-3-.24-6-.24-9,.05-2.27.28-4.5.43-6.78.09-1.43.47-2.42,2-2.77a45.87,45.87,0,0,0,4.72-1.63c.19-2,.52-4.31.67-6.54A107.311,107.311,0,0,1,13,121.88c2.18-9.51,4.54-18.91,7.19-28.26.94-3.37,2.83-6.49,4.34-9.71,1-2.12,2.13-4.2,3.27-6.33a6.25,6.25,0,0,1,.94-1.49c3.4-3.76,6.81-7.57,11.16-10.14a122.73,122.73,0,0,1,12.29-6c4.44-2.08,9.21-2.23,13.75-3.81,1.65-.55,3.59-.2,5.39-.05,5.58.34,11.2.49,16.73,1.28,4.21.6,8.56.89,12.38,3.12a76.869,76.869,0,0,1,8.89,5.89,65.18,65.18,0,0,1,16.83,19.75,99.67,99.67,0,0,1,10.87,28.46,55.135,55.135,0,0,1,.75,6.78c.38,6,.85,12.08,1,18.12a57.225,57.225,0,0,1-.78,7.09ZM126.6,148c2.91-.49,5.54-.89,7.93-1.33a57.83,57.83,0,0,0,.72-15.59c-.24-4.06-.72-8.12-1.1-12.18a16.5,16.5,0,0,0-.72-4.7c-2.44-6.49-3.49-13.42-6.88-19.6-2.24-4.16-4.4-8.42-7-12.33-5.25-7.82-12.42-13.46-20.16-18.36a4.89,4.89,0,0,0-1-.45A53.5,53.5,0,0,0,83.07,60.8a16.63,16.63,0,0,1-3.16,0A52.83,52.83,0,0,0,58,61.49,18,18,0,0,0,53.35,63c-3.78,2.17-7.89,3.46-11.61,5.84A43.21,43.21,0,0,0,30.46,78.91c-4.06,5.45-6.45,12-9,18.27a34.33,34.33,0,0,0-.91,4.06c-1.67,6.53-3.44,13-5,19.6-.9,3.86-1.72,7.77-2.29,11.68-.62,4.6-.91,9.26-1.39,14.06,3.73.2,7,.89,10.28-.05.71-5.25,1.53-10.35,2.15-15.44.71-6.24,1.29-12.48,1.86-18.72.1-1.23.38-2.17,1.77-2.22s1.86.84,1.72,2.52c-.14,1.88-.53,3.76-.72,5.64L27,135.54c-.72,6.83-1.53,13.66-2.15,20.49-.29,3.57-.14,7.18-.24,10.79-.14,5.84-.33,11.73-.53,17.57a2.52,2.52,0,0,0,1.29,2.43c2.39,1.63,4.74,3.27,7.22,4.75a55.62,55.62,0,0,0,14.19,5.64c3.82,1,7.74,1.49,11.61,2.23a2.788,2.788,0,0,0,2.77-1.19c3.4-3.66,6.88-7.22,10.33-10.84.95-1,1.81-2.07,3.58-2.07,4.2,4.85,8.55,9.75,12.8,14.75,1.25,1.43,2.44,2.17,4.26,1.48,4.3-1.58,9.08-1.88,13-4.65a1.83,1.83,0,0,1,.53-.25c5.16-1,9.13-4.55,13.67-6.93,2.34-1.24,3.29-3.27,3.34-6,0-4.5.48-9,.57-13.46,0-2-.33-4-.33-5.94,0-5.25.29-10.5.24-15.74,0-5.94-.19-11.88-.48-17.77-.29-6.34-.33-12.72-2.77-18.76a2,2,0,0,1-.19-.89c.19-.6.33-1.59.71-1.69a2.41,2.41,0,0,1,2.06.4,6.3,6.3,0,0,1,1.1,2.08c1.1,2.72,1.1,5.64,1.48,8.46a199.838,199.838,0,0,1,1.48,20.69C126.69,143.3,126.6,145.54,126.6,148ZM44.75,343.53c-.19-2.23-.29-3.91-.48-5.59-.29-2.58-.77-5.15-1-7.72-.43-5.05-.72-10.1-1.2-15.15s-1.19-10.3-1.58-15.44c-.33-4.76-.33-9.56-.52-14.31-.24-6-.57-11.93-.86-17.92-.24-5.19-.72-10.34-.77-15.54A105.149,105.149,0,0,1,40.69,230a18.85,18.85,0,0,1,2.24-6.09C46,219,51.05,217,56.21,215.78c4.16-.94,8.56-.89,12.91-1.19a22.61,22.61,0,0,1,5.2,0c4.16.69,8.27,1.68,12.38,2.52a32.519,32.519,0,0,1,11.52,4.56,10.77,10.77,0,0,1,4.2,4.75,44.079,44.079,0,0,1,3.06,11.09c1.15,6.88.52,13.66.09,20.44-.28,4.75-.71,9.55-.9,14.3-.24,5.55-.29,11.14-.53,16.68-.09,2.38-.38,4.76-.52,7.13-.29,4-.48,8-.77,11.93-.33,4.65-.76,9.36-1.19,14-.15,1.88-.34,3.76-.63,5.64-.62,4.31-1.33,8.66-2,13a25.907,25.907,0,0,0,0,3.42c3.77-.2,7.16-.4,10.6-.65,1.25-.1,1.48-1,1.53-2.13.19-3.26.38-6.58.72-9.85.81-7.42,1.91-14.8,2.63-22.22.57-5.94.67-11.93,1.14-17.87.67-8.61,1.53-17.22,2.2-25.89.29-3.56.1-7.17.34-10.74.38-5.74,1-11.48,1.48-17.22.28-3.57.38-7.18.52-10.74s.58-7.38.48-11a62.06,62.06,0,0,1,.67-11.88,58.881,58.881,0,0,0,.48-13.61c-1.87,1.09-3.49,2.12-5.16,3.07-3.83,2.07-7.74,4-11.71,5.74-4.16,1.88-8.55,2.82-12.8,4.3-2.73.94-4.5-.19-6.26-2.57-3.25-4.41-7.08-8.42-10.66-12.57a6.42,6.42,0,0,0-1.19-.84c-4.59,4.8-9.13,9.55-13.67,14.25a99.51,99.51,0,0,1-19.26-4.31,64.56,64.56,0,0,1-17.25-9.2c.1,4.65.19,9.11.29,13.56.05,1.49,0,3,.05,4.5.28,7.38.71,14.75.81,22.13.1,5.35-.29,10.74-.24,16.09.05,7.08.34,14.15.48,21.23.09,4.41.09,8.76.29,13.17.19,4.8.52,9.55.9,14.3.43,5.15,1.2,10.3,1.63,15.45.29,3.46.24,7,.43,10.44.52,8.56,2.29,16.93,3.87,25.29C36.58,344.13,40.4,343.83,44.75,343.53Zm-23-122.46c-.34-8.91-.34-17.37-1.06-25.84s.82-17,.15-25.39c-2.15-.15-3.83-.25-5.55-.34-2-.1-2.48.44-2.53,2.52-.19,5-.43,10.1-.62,15.15-.38,9.8,1,19.4,2.29,29.05a2.5,2.5,0,0,0,.77,1.54,17.59,17.59,0,0,0,6.55,3.31Zm101.89.15a27.521,27.521,0,0,0,4.11-1.53c1.1-.65,2.49-1.14,2.77-2.82.34-2,.82-3.91,1.1-5.85a119.481,119.481,0,0,0,1.1-21.13c-.05-4.21,0-8.37.05-12.57v-5.89c-2.34.14-4.35.24-6.45.39-.19,3.22-.38,6.19-.58,9.16-.28,4.75-.86,9.5-.86,14.25a67.55,67.55,0,0,1-.76,10.35,73.049,73.049,0,0,0-.51,15.64ZM21.67,150.69a5.759,5.759,0,0,0-1.29-.3c-4.21.25-8.36-.54-12.57.4-2.2.49-2.63.69-2.82,3l-.29,2.67a30.06,30.06,0,0,0,.63,10.24c5.3-.69,10.56.3,15.72-.94C21.29,160.63,21.48,155.78,21.67,150.69ZM126.5,167.86c2.68,0,4.88.1,7.07-.05a26.59,26.59,0,0,0,4-.75,2.53,2.53,0,0,0,2.15-2.47c.19-4,.33-7.92.38-11.83.05-1.69-1-2.33-2.53-2.58-2.92-.44-5.74.2-8.56.74s-2.77.6-2.72,3.52.19,5.74.24,8.61c.05,1.54,0,3.08,0,4.81Z"/>
      <path id="Path_6423" data-name="Path 6423" d="M125.88,148c0-2.47.05-4.7,0-6.93a201.624,201.624,0,0,0-1.48-20.69c-.38-2.87-.38-5.74-1.48-8.46a4.88,4.88,0,0,0-1.1-2.08,2.52,2.52,0,0,0-2.06-.4c-.38.1-.57,1.09-.71,1.69a1.53,1.53,0,0,0,.19.89c2.39,6,2.48,12.42,2.77,18.76.24,5.94.43,11.88.48,17.77,0,5.24-.24,10.49-.24,15.74,0,2,.38,4,.33,5.94-.14,4.5-.52,9-.57,13.46-.05,2.77-1,4.8-3.35,6-4.49,2.38-8.5,5.89-13.66,6.93a1.72,1.72,0,0,0-.53.25c-3.92,2.77-8.69,3.07-13,4.65-1.82.69-3.06,0-4.26-1.48-4.25-5-8.55-9.9-12.8-14.75-1.77,0-2.63,1.08-3.59,2.07-3.44,3.62-6.93,7.23-10.32,10.84-.81.85-1.53,1.44-2.77,1.19-3.87-.74-7.79-1.24-11.61-2.23a53.85,53.85,0,0,1-14.19-5.64c-2.49-1.48-4.83-3.17-7.22-4.75a2.51,2.51,0,0,1-1.29-2.43c.19-5.84.38-11.73.53-17.57.09-3.61-.05-7.22.24-10.79.57-6.83,1.38-13.66,2.15-20.49.62-5.74,1.19-11.48,1.86-17.23.19-1.88.57-3.76.72-5.64.14-1.68-.53-2.52-1.72-2.52-1.39,0-1.68,1-1.77,2.22-.57,6.24-1.15,12.48-1.86,18.72-.63,5.14-1.39,10.24-2.15,15.44-3.25.94-6.55.25-10.28.05.48-4.85.77-9.46,1.39-14.06a110.53,110.53,0,0,1,2.29-11.68c1.58-6.53,3.35-13.07,5-19.6a26.63,26.63,0,0,1,.91-4.06c2.62-6.29,5-12.82,9-18.27A41.78,41.78,0,0,1,41.06,68.82c3.73-2.38,7.84-3.67,11.62-5.84a17.92,17.92,0,0,1,4.63-1.49,52.83,52.83,0,0,1,21.93-.74,17.56,17.56,0,0,0,3.16,0,52.15,52.15,0,0,1,15.29,2.67,4.06,4.06,0,0,1,1,.45c7.74,4.9,15,10.54,20.16,18.36,2.63,3.91,4.73,8.17,7,12.33,3.39,6.23,4.44,13.11,6.88,19.6a22.189,22.189,0,0,1,.72,4.7c.38,4.06.86,8.12,1.1,12.18a57.75,57.75,0,0,1-.72,15.59C131.42,147.07,128.84,147.52,125.88,148Z" fill="#ff8300"/>
      <path id="Path_6424" data-name="Path 6424" d="M44.75,343.53c-4.3.35-8.17.6-12.14.94-1.58-8.36-3.34-16.73-3.87-25.29-.19-3.47-.14-7-.43-10.45-.43-5.14-1.15-10.29-1.63-15.44-.43-4.75-.71-9.55-.9-14.3-.19-4.41-.19-8.77-.29-13.17-.14-7.08-.43-14.16-.48-21.24-.05-5.34.34-10.74.24-16.08-.14-7.38-.52-14.75-.81-22.13-.05-1.48-.05-3-.05-4.5-.09-4.46-.19-8.91-.29-13.56a65,65,0,0,0,17.25,9.2,100.421,100.421,0,0,0,19.26,4.31c4.49-4.7,9.08-9.51,13.67-14.26.57.4.9.6,1.19.84,3.58,4.16,7.36,8.17,10.66,12.58,1.76,2.42,3.53,3.51,6.26,2.57,4.25-1.48,8.64-2.42,12.8-4.31,4-1.78,7.89-3.61,11.71-5.74,1.67-.94,3.3-1.93,5.16-3.07a58,58,0,0,1-.48,13.62,58.271,58.271,0,0,0-.67,11.88c.1,3.66-.33,7.37-.48,11s-.28,7.18-.52,10.74c-.43,5.75-1,11.49-1.48,17.23-.24,3.56-.05,7.18-.34,10.74-.67,8.61-1.53,17.23-2.19,25.89-.48,5.94-.58,11.93-1.15,17.87-.72,7.42-1.82,14.8-2.63,22.22-.38,3.27-.53,6.54-.72,9.85,0,1.09-.28,2-1.53,2.13-3.44.25-6.88.4-10.6.64a25.719,25.719,0,0,1,0-3.41c.62-4.31,1.33-8.66,2-13,.28-1.88.43-3.76.62-5.64.43-4.66.81-9.31,1.19-14,.29-4,.53-8,.77-11.93.14-2.38.43-4.75.52-7.13.19-5.54.29-11.13.53-16.68.19-4.75.62-9.55.91-14.3.43-6.83,1-13.57-.1-20.45a41.86,41.86,0,0,0-3.06-11.08,11.09,11.09,0,0,0-4.2-4.76,33,33,0,0,0-11.52-4.55c-4.11-.89-8.22-1.83-12.37-2.52a19.76,19.76,0,0,0-5.21,0c-4.3.29-8.7.24-12.9,1.18-5.16,1.19-10.18,3.27-13.29,8.12a17.81,17.81,0,0,0-2.24,6.09,104.391,104.391,0,0,0-2.34,21.88c0,5.2.52,10.34.76,15.54.29,6,.62,11.93.86,17.92.19,4.75.19,9.55.53,14.3.38,5.15,1.09,10.3,1.57,15.45s.72,10.1,1.2,15.14c.24,2.58.71,5.15,1,7.73A49.348,49.348,0,0,0,44.75,343.53Z" fill="#5c5957"/>
      <path id="Path_6425" data-name="Path 6425" d="M81.54,99.16c-.05,2.28-.77,3.22-2.49,3.22-3,0-4.77-1.29-4.68-3.57a4,4,0,0,1,3.87-3.71C80.19,95.1,81.54,96.77,81.54,99.16Zm-1.67-1c-.39-.3-1-1.09-1.63-1.19a2.11,2.11,0,0,0-2.39,2C76,100.2,77,100.5,78,100.5s1.77-.6,1.87-2.33Z"/>
      <path id="Path_6426" data-name="Path 6426" d="M79.87,98.17c-.1,1.73-.77,2.28-1.87,2.28s-2-.25-2.1-1.54c-.14-.94,1.2-2.18,2.39-2C78.91,97.13,79.48,97.87,79.87,98.17Z" fill="#fff"/>
      <path id="Path_6427" data-name="Path 6427" d="M75,164.5c1.72,0,3.2,1.18,3.25,2.57,0,2.48-1.43,4.7-3.06,4.7-2.1,0-3.2-1.28-3.34-3.91A3,3,0,0,1,75,164.5Zm-1.38,4.2c.14.15.43.94,1,1.14.77.3,1.91-1.09,1.72-2.18-.09-.59-.76-1.48-1.24-1.53-1.15-.06-1.63.84-1.48,2.57Z"/>
      <path id="Path_6428" data-name="Path 6428" d="M73.61,168.7c-.15-1.78.28-2.67,1.43-2.57.48.05,1.15.94,1.24,1.53.19,1.09-1,2.48-1.72,2.18C74.09,169.64,73.75,168.85,73.61,168.7Z" fill="#fff"/>
      <path id="Path_6429" data-name="Path 6429" d="M76.33,141.28c1.91.05,2.87,1,2.82,2.92-.1,2.23-1.58,3.86-3.58,3.81a3.81,3.81,0,0,1-3.3-3.81C72.37,142.57,74.23,141.23,76.33,141.28Zm-.47,1c-.86.84-1.82,1.29-2.11,2.08s.43,1.68,1.44,1.78a2.04,2.04,0,0,0,2-2.08c-.1-.54-.72-1-1.34-1.79Z"/>
      <path id="Path_6430" data-name="Path 6430" d="M76,142.31c.63.79,1.25,1.24,1.34,1.78.19.94-1.1,2.18-2,2.08s-1.72-.89-1.44-1.78C74.23,143.66,75.18,143.16,76,142.31Z" fill="#fff"/>
      <path id="Path_6431" data-name="Path 6431" d="M73.56,122a4.26,4.26,0,0,1,4.2-3.22,3,3,0,0,1,2.59,3.29.25.25,0,0,1,0,.08A4.07,4.07,0,0,1,76,125.63,3.41,3.41,0,0,1,73.56,122Zm5.18-1c-1-.15-1.82-.55-2.3-.3a2.78,2.78,0,0,0-1.19,1.73c-.1.35.48,1.14.91,1.34.9.45,1.38-.25,1.72-1,.14-.29.32-.63.86-1.72Z"/>
      <path id="Path_6432" data-name="Path 6432" d="M78.82,121a19,19,0,0,0-.86,1.73c-.34.79-.82,1.48-1.72,1a1.86,1.86,0,0,1-.91-1.34,2.78,2.78,0,0,1,1.19-1.73C77,120.49,77.8,120.84,78.82,121Z" fill="#fff"/>
      <path id="Path_6433" data-name="Path 6433" d="M116.76,193.45c-3.83,2.08-7.75,4-11.71,5.74-4.16,1.89-8.55,2.83-12.81,4.31-2.72.94-4.49-.2-6.26-2.57-.62-.84-1.24-1.64-1.91-2.43a75.49,75.49,0,0,1-9.7,16.24c4.16.69,8.27,1.68,12.38,2.52a32.29,32.29,0,0,1,11.51,4.56,10.79,10.79,0,0,1,4.21,4.75,44.429,44.429,0,0,1,3.06,11.08c1.14,6.89.52,13.67.09,20.45-.28,4.75-.71,9.55-.91,14.3-.23,5.55-.28,11.14-.52,16.68-.1,2.38-.38,4.76-.53,7.13-.28,4-.47,8-.76,11.93-.34,4.65-.77,9.36-1.2,14-.14,1.88-.33,3.76-.62,5.64-.62,4.31-1.34,8.66-2,13a27.6,27.6,0,0,0,0,3.41c3.73-.19,7.17-.39,10.61-.64,1.24-.1,1.48-1,1.53-2.13.19-3.26.38-6.58.72-9.85.81-7.42,1.91-14.8,2.63-22.22.57-5.94.66-11.93,1.14-17.87.67-8.61,1.53-17.23,2.2-25.89.29-3.56.1-7.18.33-10.74.39-5.74,1-11.48,1.49-17.22.28-3.57.38-7.18.52-10.75s.57-7.37.48-11A61.261,61.261,0,0,1,121.4,204a58.94,58.94,0,0,0,.48-13.62C120.05,191.47,118.41,192.51,116.76,193.45Z" fill="#454240"/>
      <path id="Path_6434" data-name="Path 6434" d="M134.18,118.91a16.85,16.85,0,0,0-.71-4.7c-2.44-6.49-3.49-13.42-6.89-19.6-2.24-4.16-4.39-8.42-7-12.33-5.26-7.82-12.43-13.46-20.17-18.36a4.89,4.89,0,0,0-1-.45,59.7,59.7,0,0,0-8.12-2l-5.3,18s20,69.1,0,117c1,1.19,2,2.33,3,3.52,1.24,1.43,2.43,2.17,4.25,1.48,4.3-1.58,9.08-1.88,13-4.65a1.78,1.78,0,0,1,.52-.25c5.16-1,9.13-4.55,13.67-6.93,2.34-1.24,3.3-3.27,3.34-6,.05-4.5.48-9,.58-13.46,0-2-.34-4-.34-5.94,0-5.25.29-10.49.24-15.74,0-5.94-.19-11.88-.48-17.77-.28-6.34-.33-12.72-2.77-18.76a2.09,2.09,0,0,1-.19-.89c.19-.6.34-1.59.72-1.68a2.35,2.35,0,0,1,2,.39,6,6,0,0,1,1.1,2.08c1.1,2.72,1.1,5.64,1.48,8.46A197.1,197.1,0,0,1,126.58,141c.1,2.23,0,4.46,0,6.93,2.92-.49,5.55-.89,7.94-1.33a57.82,57.82,0,0,0,.71-15.59C135.06,127,134.58,123,134.18,118.91Z" fill="#de7816"/>
      <path id="Path_6435" data-name="Path 6435" d="M113.6,42.09A50.11,50.11,0,0,1,108,62.83a38.39,38.39,0,0,1-9.89,11.88c-3.87,3.16-8.5,4.06-13.14,4.85a29.25,29.25,0,0,1-7.17.59,57.92,57.92,0,0,1-17.1-3.86,23.15,23.15,0,0,1-5.78-3.81C50.43,68.87,45.8,65.35,43.12,60c-3.68-7.33-5.49-15-3.53-23.37a64.58,64.58,0,0,1,10.89-24A25.2,25.2,0,0,1,61.33,4.46c2.39-1,4.82-1.93,7.31-2.72a14.25,14.25,0,0,1,9.08-.15C81.44,2.83,85.31,3.72,89,5.15a50.94,50.94,0,0,1,8.41,4.31A33.74,33.74,0,0,1,110.54,25.2C112.84,30.6,113.27,36.3,113.6,42.09Z"/>
      <path id="Path_6436" data-name="Path 6436" d="M110.35,39c-.48-2.33-1.14-6.34-2-10.3-1.72-7.42-6.79-12.22-12.47-16.48a22.33,22.33,0,0,0-3.78-2.13C89.42,9,86.7,8,84,6.89a23.55,23.55,0,0,0-7.93-2.17c-.19,0-2.15-.3-2.34-.3A15.47,15.47,0,0,0,69.21,5a40.9,40.9,0,0,0-5.35,1.88,25.86,25.86,0,0,0-11.75,9.21,66.38,66.38,0,0,0-7.89,16.19,30.83,30.83,0,0,0-1.53,16.08C44.13,56,47.57,62.28,53.54,67c.81.65,1.72,1.29,2.53,2a28.1,28.1,0,0,0,11.18,5.85,43.82,43.82,0,0,0,20.55.69,20.28,20.28,0,0,0,8.79-4.21,36.27,36.27,0,0,0,8.89-11.14C108.68,54,109.81,47.53,110.35,39Z" fill="#fff"/>
      <path id="Path_6437" data-name="Path 6437" d="M108.3,28.72c-1.72-7.42-6.79-12.22-12.47-16.48a22.33,22.33,0,0,0-3.78-2.13c-2-.84-4-1.58-6-2.37.29.54.57,1.08.86,1.68,1.91,3.86,3.15,9.11,4,15.1.38,2.47.58,4.3.82,6.88A50.771,50.771,0,0,1,92,37.19c0,.2-.14,2.77-.14,3a77.381,77.381,0,0,1-1,10.19c-.52,3.37-.9,6.88-1.43,10.3a44.521,44.521,0,0,1-.91,4.85A69.92,69.92,0,0,1,85.22,76c.81-.15,1.67-.29,2.48-.49a20.27,20.27,0,0,0,8.8-4.21,36.39,36.39,0,0,0,8.88-11.14c3.2-6.18,4.35-12.67,4.83-21.18C109.87,36.69,109.21,32.68,108.3,28.72Z" fill="#e6e5e5"/>
      <path id="Path_6438" data-name="Path 6438" d="M123.61,221.22a27.521,27.521,0,0,0,4.11-1.53c1.1-.65,2.49-1.14,2.77-2.82.34-2,.82-3.91,1.1-5.85a119.481,119.481,0,0,0,1.1-21.13c-.05-4.21,0-8.37.05-12.57v-5.89c-2.34.14-4.35.24-6.45.39-.19,3.22-.38,6.19-.58,9.16-.28,4.75-.86,9.5-.86,14.25a67.549,67.549,0,0,1-.76,10.35,73.05,73.05,0,0,0-.48,15.64Z" fill="#e6e5e5"/>
      <path id="Path_6439" data-name="Path 6439" d="M96.74,43.42c-.19-2.27,1.29-3.81,3.2-5,1.53-.94,4.68-.09,6.21,1.14,2.15,1.79,2.1,3.81,1.43,6.19-.66,2.23-1.72,3.81-4.1,4.21s-6.55-2.82-6.74-5.2Zm2.72,2.08c2,1.29,2,1.29,4.11,1.09,1.62-2.92,1.67-3.51.38-5-.76-.89-1.67-1.43-2.82-.84C99.6,41.44,99.13,42.75,99.46,45.5Z"/>
      <path id="Path_6440" data-name="Path 6440" d="M99.46,45.5c-.34-2.77.14-4,1.67-4.8,1.2-.59,2.06-.05,2.82.84,1.29,1.49,1.24,2.08-.38,5C101.42,46.78,101.42,46.78,99.46,45.5Z" fill="#fff"/>
      <path id="Path_6441" data-name="Path 6441" d="M94.63,43.23c0,3.31-2.63,6.38-5.45,6.13C85.08,49,82.5,46.79,82.5,44c0-3.57,3-6.88,6.3-6.88a6.37,6.37,0,0,1,5.83,6.11Zm-2.93-.4a3.58,3.58,0,0,0-3.11-3.12c-1.48-.05-3.15,2.23-3.1,4.31,0,1.48,1.29,2.32,3.48,2.32,1.77,0,2.78-1.33,2.73-3.52Z"/>
      <path id="Path_6442" data-name="Path 6442" d="M91.7,42.82c0,2.27-1,3.58-2.73,3.58-2.24,0-3.51-.86-3.56-2.37-.1-2.12,1.56-4.44,3.17-4.39a3.59,3.59,0,0,1,3.12,3.18Z" fill="#fff"/>
      <path id="Path_6443" data-name="Path 6443" d="M420.72,258.12c-.87,1.59-1.79.81-2.28,0-1.4-2.24-2.65-4.58-3.9-6.91a27.6,27.6,0,0,0-1.4-2.7c-.08,4.67,2.51,12.19,5.85,17.55-.82,1.12-1.55.94-2.12-.22a58.179,58.179,0,0,1-5.48-15.29,4.378,4.378,0,0,0-.39-1.12c-.06-.15-.27-.22-.64-.48,0,6.09,1.5,11.82,2.42,17.48-.91.76-1.47.68-1.75-.21a15.211,15.211,0,0,1-.5-2.32c-.68-4.61-1.33-9.22-2-13.82,0-.23-.24-.44-.8-.58.08,1.77.27,3.55.23,5.32a53.056,53.056,0,0,1-.5,5.33c-.23,1.79.09,3.73-1.32,5.62-.38-.68-.85-1.13-.82-1.54.14-2.08.35-4.16.67-6.21a15.73,15.73,0,0,0-.47-7.87c-.5,1.89-.91,3.54-1.37,5.18a5.57,5.57,0,0,1-.75,1.91c-.42.53-1.27,1.27-1.65,1.13-1.05-.4-.34-1.31-.15-2,.11-.39.26-.75.36-1.13.67-2.49,1.28-4.91,0-7.48-1-1.92-1.45-4.09-2.33-6.07a9.519,9.519,0,0,0-2-2.79,18.93,18.93,0,0,0-11.18-5.48c-7.58-1-14.83.08-22.06,2.13-3,.85-4,.2-4.47-3.06a16.81,16.81,0,0,1,.24-7.66,6.469,6.469,0,0,0,.15-.88c.69-4.17,1.21-4.6,5.25-4.87,2.28-.15,4.54-.5,6.8-.77a9.081,9.081,0,0,1,1.13-.17c4.48,0,9,.24,13.44.09s8.42,1.44,12.32,3.4c4.63,2.33,7.92,6.26,11.05,10.25,3.52,4.5,4.75,9.86,5,15.7.1,2.56,2,5.07,3.21,7.52a21,21,0,0,0,2.21,3.02Zm-57.45-25.79a61.18,61.18,0,0,1,6.44-1.84c2.43-.44,4.94-.4,7.39-.75a29.47,29.47,0,0,1,19.9,3.84,14.38,14.38,0,0,1,6.41,8,28,28,0,0,0,1.2,3.33c.26.52,1,1.22,1.41,1.16,2-.25,4.05-.74,6.1-1.15-.79-2.84-1.46-5.3-2.16-7.74a2.28,2.28,0,0,0-.51-.71c-2.09-2.45-4.2-4.88-6.3-7.32a21.27,21.27,0,0,0-13-7c-6-1.09-12-.29-18,0-2.84.15-5.67.55-8.39.82-1.24,4.5-1.24,4.5-.49,9.36Z" fill="#13100d"/>
      <path id="Path_6444" data-name="Path 6444" d="M363.27,232.33c-.75-4.86-.75-4.86.58-9.34,2.72-.27,5.55-.67,8.39-.82,6-.3,12-1.1,18,0a21.27,21.27,0,0,1,13,7c2.1,2.44,4.21,4.87,6.3,7.32a2.28,2.28,0,0,1,.51.71c.7,2.44,1.37,4.9,2.16,7.74-2,.41-4.06.9-6.1,1.15-.43.06-1.15-.64-1.41-1.16a28,28,0,0,1-1.2-3.33,14.38,14.38,0,0,0-6.41-8,29.47,29.47,0,0,0-19.93-3.84c-2.45.35-5,.31-7.39.75a61.175,61.175,0,0,0-6.5,1.82Z" fill="#ee7d00"/>
      <path id="Path_6445" data-name="Path 6445" d="M224.82,220.42c3.83,1,7.58,2.05,11.34,3.05,2.32.61,4.62,1.29,7,1.8,4.13.9,8.28,1.67,12.41,2.55a18.311,18.311,0,0,1,3.52,1.14c.95.41,1.79,1.42,1.12,2.36-1.63,2.28-1.48,5.1-2.5,7.54-.19.45-.3.94-.53,1.38-1.24,2.4-1.79,2.51-4.36,1.83-3.89-1-7.84-1.84-11.74-2.83-4.08-1-8.13-2.22-12.21-3.25-2.5-.63-5-1.1-7.86-1.71-.41,1.62-.91,3.1-1.14,4.62-.6,4-2.33,5.26-6.09,4.37-2.34-.56-4.65-1.27-7-1.61a2.24,2.24,0,0,1-2.21-2.52,4.39,4.39,0,0,1-.06-.88c1.32-8.33,2.73-16.65,6-24.46a18.256,18.256,0,0,1,6.92-7.81c1.93-1.36,6.93-.85,8.48.78a2.79,2.79,0,0,1,.65,1.87,27.194,27.194,0,0,1-.67,4.94C225.3,215.77,224.56,217.9,224.82,220.42ZM216,240.5c.38-1.52.59-2.44.84-3.36.6-2.18,1.17-4.37,1.83-6.53a36.518,36.518,0,0,0,1.5-4.42c.76-4.69.89-9.49,2.63-14a9.7,9.7,0,0,0,.26-2.59c-2.3-1.72-4.05-.51-5.8.84-3.88,3-5.2,7.56-6.45,12-1.42,5-2.16,10.18-3.17,15.17C210.21,239.9,213.29,238.49,216,240.5Zm5.29-10c11.19,2.25,21.6,6.56,33,7.31l1.54-6.19-33.29-8Z" fill="#13100d"/>
      <path id="Path_6446" data-name="Path 6446" d="M216,240.5c-2.74-2-5.82-.6-8.36-2.9,1-5,1.75-10.19,3.17-15.17,1.25-4.41,2.57-9,6.45-12,1.75-1.35,3.5-2.56,5.8-.84a9.7,9.7,0,0,1-.26,2.59c-1.74,4.49-1.87,9.29-2.63,14a36.519,36.519,0,0,1-1.5,4.42c-.66,2.16-1.23,4.35-1.83,6.53C216.62,238.06,216.41,239,216,240.5Z" fill="#fff"/>
      <path id="Path_6447" data-name="Path 6447" d="M221.32,230.49l1.29-6.9,33.29,8-1.54,6.19C242.92,237.05,232.51,232.74,221.32,230.49Z" fill="#b5b3b2"/>
      <path id="Path_6448" data-name="Path 6448" d="M381.18,187.49c1.46-.35,1.95-1.35,1.73-2.91-.67-4.7-1.31-9.41-1.85-14.13-.29-2.59-1.17-4.43-4.55-4.31-.24-4-.38-7.65-.7-11.29-.4-4.41-.67-8.87-1.5-13.2a93.33,93.33,0,0,0-6.48-20.93c-1.78-4-3.36-8-5.49-11.79a105.911,105.911,0,0,0-13.06-17.69,36.9,36.9,0,0,0-5.55-5.62c-4.65-3.39-9-7.41-14.89-8.59-4.21-.84-8.27-2.55-12.5-3.25-8-1.33-16-1.61-23.91.72-.64.19-1.34.19-2,.39-3.75,1.13-7.74,1.36-11.22,3.47-3.21,2-6.71,3.45-9.67,5.73-3.28,2.51-6.69,5.26-9,8.67a90.571,90.571,0,0,0-8,15.44,88.351,88.351,0,0,0-5.62,19c-.62,3.52-1.29,7-1.79,10.56-.75,5.4-1.28,10.83-2.05,16.22-.85,5.87-1.86,11.72-2.78,17.59-.33,2.11-.59,4.23-.86,6.19-2.22,1.06-4.52-.72-6.47,1.2a42.677,42.677,0,0,0-.65,4.81c-.12,4.38-.09,8.75-.12,13.13,0,3.11.26,3.52,3.24,4.12,1.58.31,3.2.45,4.67.65-.73,4.08-1.6,8-2.12,12a176,176,0,0,0-1.72,24.6c.05,4.84,0,4.87,4.56,6.13a1.83,1.83,0,0,1,1.62,1.71c.66,4.3,1.27,4.87,5.39,5.51l6.05,1c.14,2.69.25,5.25.41,7.81.31,4.75.69,9.5,1,14.25s.36,9.74.88,14.56c.74,6.7,1.92,13.33,2.07,20.12.11,5.15.95,10.29,1.47,15.43s1,10.26,1.56,15.39c.49,4.63,1,9.26,1.56,13.88.24,1.9,1,2.54,2.81,2.76,1.15.14,2.32.06,3.44.31,3.68.79,7.22-.25,10.8-.79a6.38,6.38,0,0,0,1.87-.75,2.93,2.93,0,0,0,1.68-3.4c-.88-6.17-1.63-12.37-2.47-18.55-.59-4.32-1.45-8.6-1.83-12.94-.64-7.29-1-14.61-1.46-21.91q-.5-8-.93-16c-.4-7.13-.76-14.27-1.16-21.4-.16-2.86-.37-5.7-.54-8.23,4.6-1.36,9-2.71,13.4-4,2.47-.7,3.54-2.31,3.81-4.9s.9-4.85,1.35-7.27c.19-1,.33-2,.49-2.93.45-2.93.8-5.88,1.38-8.79.69-3.52.9-3.63,4.38-4.06.38-.05.76-.06,1.15-.08,6.32-.22,12.66-.35,18.83,1.35a133.654,133.654,0,0,1,15.05,4.8c3.82,1.56,6.87,4.36,7.63,9,.17,1.07.72,2.06.95,3.12.68,3.19,1.73,6.38,1.82,9.59.18,6,0,12.11-.41,18.15-.38,5.71-1.28,11.39-1.82,17.1-.43,4.53-.6,9.09-1,13.63s-1,8.87-1.44,13.31c-.39,3.65-.68,7.31-1.15,11-.51,4-1.25,8-1.76,12-.27,2.23-.2,4.51-.39,6.75-.18,2.07-.49,4.13-.74,6.19s-.42,4.14-.76,6.18c-.38,2.31.66,3.6,2.91,3.43.94-.07,1.89-.12,2.83-.12h13c.42-2,1-4.26,1.39-6.56a300.106,300.106,0,0,0,3.74-31.22c.37-4.89,1.31-9.74,1.94-14.61q.71-5.42,1.28-10.83c.26-2.46.5-4.93.74-7.39a6.3,6.3,0,0,1,.13-1.72l.09-.47.3-3.09h.05c0-1,.06-1.94.06-2.91v-1a5.818,5.818,0,0,1,.29-1.84c1-14.11,2.06-28.13,3.11-42.47h.09c.05-1.2.14-2.4.28-3.61H368c.07-1.55.16-3.1.22-4.65.07-1.88.07-3.76.19-5.64.23-3.75.62-7.48.78-11.23.15-3.53.13-7.06.08-10.59,0-2.44-.23-4.87-.35-7.28,2-.24,3.56-.5,5.16-.61,1.88-.13,2.24.18,2.43,2,.46,4.73.94,9.46,1.3,14.21,0,.58.08,1.16.13,1.75a4.519,4.519,0,0,1,1.09-.6,4,4,0,0,1,2.26-.73c-.25-2.8-.56-5.59-.8-8.38a54.629,54.629,0,0,0-.72-6.79C379.42,188.73,379.55,187.88,381.18,187.49ZM275.6,86a8,8,0,0,1,3.62-3.6c4.56-2.27,9.45-3.14,14.29-4.33A55.53,55.53,0,0,1,316,77.39c4.5.74,8.89,2.32,13.28,3.68a42.461,42.461,0,0,1,5.51,2.39c5.4,2.57,7.16,7.7,9,13,2.43,7,1.59,14.08,1.28,21.16-.13,3-1.13,3.62-4,2.91-2.39-.6-4.73-1.41-7.1-2.13.62-3.88,1.34-7.37,1.68-10.9a54.9,54.9,0,0,0,.23-9.76,14.24,14.24,0,0,0-5.68-10c-3.79-3.05-8-5.54-12.89-6.09-4-.45-7.64-2.68-11.78-2a31.719,31.719,0,0,0-3.92.64c-3.75,1.15-7.48,2.4-11.2,3.66a8.48,8.48,0,0,0-3.94,2.83,19,19,0,0,0-4.68,13.32c.15,3,.45,5.93.65,8.9.06.89,0,1.78,0,2.94a39.23,39.23,0,0,1-11.31,3.16,37.473,37.473,0,0,1-.36-4.45q.25-6.69.74-13.37a22.08,22.08,0,0,1,3.13-9.49A12.326,12.326,0,0,0,275.6,86Zm56.92,14.73A68.11,68.11,0,0,1,331,116c-.62,2.58-1.61,5.07-2.34,7.64-1.88,6.63-5.3,12.49-8.59,18.4-3.06,5.47-6.33,10.82-9.61,16.15a43,43,0,0,1-3.5,4.33c-2.45-3.05-4.49-5.46-5.72-8.59-1.73-4.41-3.95-8.6-5.7-13-2.33-5.86-4.47-11.8-6.57-17.76-2.29-6.49-3-13.32-3.56-20.15-.4-5,.39-9.76,3.87-13.57A9.58,9.58,0,0,1,292.77,87c3-1.08,6.05-1.87,9.09-2.73a21.25,21.25,0,0,1,11.38.15c2.58.69,5.16,1.42,7.71,2.26a15.771,15.771,0,0,1,3.33,1.62c1.31.81,2.51,1.81,3.79,2.66,3.45,2.3,4.47,5.86,4.45,9.75Zm-96.67,96.66a86.362,86.362,0,0,1,.28-15.57c5.77.53,11.38.28,16.77,2.36-.13,2.32-.26,4.46-.39,6.51-1.39,1.26-3.81,0-4.48,2.3l-1.57,5.49a47.229,47.229,0,0,1-10.61-1.11Zm7.79,25.56c-.52,4.62-.7,9.28-1,13.93-.1,1.27-.26,2.53-.42,4-1.86-.19-2.46-.9-2.49-2.56-.16-9,1-17.82,2.15-26.67.42-3.2,1.25-6.34,1.92-9.61l2.27.12a3.66,3.66,0,0,1,.19,1c-.9,6.6-1.89,13.17-2.62,19.77Zm32.16,96.71c.46,4.91,1.18,9.79,1.79,14.68q.99,7.83,2,15.65a29.25,29.25,0,0,1,0,3,39.281,39.281,0,0,1-11.95.26c-1.1-.16-1.55-1-1.68-2.13-.19-1.68-.42-3.35-.59-5-.69-6.61-1.4-13.21-2-19.82-.72-7.7-1.34-15.41-2.05-23.12-.32-3.45-.84-6.89-1.11-10.35-.47-6-.78-12.08-1.23-18.12-.49-6.63-1.07-13.25-1.6-19.87v-1.83h14.26c.35,3,.87,6,1,9.05.37,7,.71,14.09.79,21.13.09,7.56.8,15,1.51,22.54.41,4.58.43,9.27.86,13.91ZM365.13,218c-.25,4.25-.35,8.52-.6,12.78-.13,2.26-.48,4.52-.66,6.79-.25,3.14-.44,6.29-.65,9.44-.39,5.64-.75,11.29-1.19,16.92-.41,5.34-.9,10.67-1.35,16-.39,4.72-.7,9.45-1.18,14.16-.78,7.79-1.58,15.58-2.52,23.36-1.05,8.76-2.16,17.51-3.43,26.24-.45,3.1-1.41,6.13-2.18,9.35H339.78c.19-2.86.32-5.57.57-8.28.22-2.46.66-4.9.84-7.36.14-1.85-.25-3.77.06-5.57a237.032,237.032,0,0,0,3-24.2,13.376,13.376,0,0,1,.43-2.34c1.66-6.2,1-12.65,1.92-18.93.39-2.74.89-5.48,1.05-8.24.49-8.71,1-17.41,1.2-26.12a50,50,0,0,0-4.18-21.12,12.15,12.15,0,0,0-6.78-6.15c-9.17-3.86-18.53-7.1-28.59-7.25-3.53,0-7.07.05-10.6.08h-2c1.15-5.87,2.24-11.48,3.33-17.1.26-.17.48-.47.73-.48,6.66-.29,13.32-.68,20-.76,4.49-.06,9,.33,13.46.5,5.25.21,10.49.38,15.74.58a10.708,10.708,0,0,1,2.26.32c4.54,1.17,9.07,2.38,13.83,3.63C365.76,208.79,365.39,213.4,365.13,218Zm-9.5-19.88c-4.69-1.32-9.5-1.06-14.26-1.46-4.48-.38-9-.57-13.46-.78-5.33-.24-10.62-.92-16-.13a87.5,87.5,0,0,1-12.86.48,2.16,2.16,0,0,0-2.51,2.13c-.83,5.07-1.66,10.13-2.52,15.19-1.09,6.44-2.22,12.86-3.31,19.3-.53,3.13-1,6.26-1.51,9.4a4.09,4.09,0,0,1-2.9,3.62,56.69,56.69,0,0,1-21.7,3.56c-4.21-.18-8.43-.39-12.63-.77a47.576,47.576,0,0,1-5.71-1.22c-.9-4.21-.64-8.46-.33-12.68a146.607,146.607,0,0,1,2.36-18.89c1-4.84,1.26-9.84,1.87-14.76.16-1.28.48-2.54.62-3.82a2.36,2.36,0,0,1,2.4-2.37c7.29-1,14.53-2.39,21.83-3.13,10.07-1,20.11-2.49,30.27-2.45,3.83,0,7.66.12,11.49,0,7.47-.13,14.94-.52,22.41-.48a114.449,114.449,0,0,1,12.5,1.12c4,.48,7.95,1.14,11.93,1.72.55.09,1.09.2,1.85.34.2,2.7.39,5.3.63,8.46-3.82-.79-7.18-1.42-10.46-2.35Zm10.09-39.73c-.64-4.11-1.16-8.24-1.6-12.37a35.12,35.12,0,0,0-1.95-9.55c-.54-1.34-1.14-1.71-2.33-1.37s-1.27,1.51-.91,2.42c1.47,3.74,1.65,7.73,2.28,11.62.68,4.3,1.09,8.64,1.63,13,.39,3.15.91,6.29,1.18,9.44.42,4.83.67,9.67,1,13.92l-2.17,2.37c-8.59-.83-17.22-1.8-25.88-2.42-3.6-.26-7.25.31-10.87.37-5.74.09-11.48,0-17.22.12-5.93.13-11.88.13-17.78.73-11.14,1.14-22.35,1.6-33.37,3.82-.46.09-.93.09-1.7.16.19-3.89.3-7.65.58-11.39.55-7.51,1.14-15,1.84-22.51.26-2.86.85-5.68,1.29-8.52a8.289,8.289,0,0,0,.22-1.47c-.06-5.61,1.41-11,2.21-16.47.22-1.48-.37-2.66-1.48-2.72-1.29-.08-1.71.7-1.92,2-.61,3.79-1.57,7.52-2.1,11.32s-.71,7.68-1.1,11.52c-.18,1.78-.6,3.53-.74,5.3-.5,6.28-.92,12.56-1.4,18.84-.08,1.07-.28,2.12-.49,3.57l-9.66-1.65c.25-2.82.37-5.86.79-8.86,1.43-10.21,2.87-20.42,4.47-30.6,1.55-9.9,3.46-19.74,7.07-29.09,1.46-3.75,3.84-7.12,5.44-10.82,2.54-5.9,7.33-9.43,12.08-13-4.64,9.06-4.18,24.71-3.43,31.21,2.28.12,4.45-.69,6.63-1.21s4.22-1.27,6.58-2c.78,2.52,1.62,4.9,2.25,7.34,2.21,8.68,5.69,16.85,9.2,25,1.14,2.63,2.37,5.23,3.33,7.92a34.11,34.11,0,0,0,5.93,9.81c1.75,2.17,3.75,2.43,5.65.54a29.9,29.9,0,0,0,4.71-5.59c4.81-8.1,9.62-16.22,14-24.56,1.9-3.61,2.84-7.77,4.21-11.69.29-.82.57-1.65.9-2.63a17.44,17.44,0,0,1,2.34.37c2.57.76,5.12,1.6,7.69,2.38,1.49.46,2.42.09,2.89-1.55a31.91,31.91,0,0,0,1.15-6.12,53.268,53.268,0,0,0,.26-9.52c-.39-3.92-1.4-7.76-2.16-11.64a3.75,3.75,0,0,1-.09-1.92q2.57,2.82,5.12,5.65A80,80,0,0,1,364,120.32a117,117,0,0,1,6.63,18.9,84.492,84.492,0,0,1,2,19.77,66.785,66.785,0,0,0,.64,7h-6c-.49-2.45-1.15-4.99-1.55-7.57Zm13.69,25.87c-3.49,1.51-7.07,1.36-10.76,1.76-.44-5.74-.85-11.09-1.28-16.72h9.53a35,35,0,0,1,2.51,14.99Z" fill="#13100d"/>
      <path id="Path_6449" data-name="Path 6449" d="M273.08,86.06c-4.64,9.06-4.18,24.71-3.43,31.21,2.28.12,4.45-.69,6.63-1.21s4.22-1.27,6.58-2c.78,2.52,1.62,4.9,2.25,7.34,2.21,8.68,5.69,16.85,9.2,25,1.14,2.63,2.37,5.23,3.33,7.92a34.111,34.111,0,0,0,5.93,9.81c1.75,2.17,3.75,2.43,5.65.54a29.9,29.9,0,0,0,4.71-5.59c4.81-8.1,9.62-16.22,14-24.56,1.9-3.61,2.84-7.77,4.21-11.69.29-.82.57-1.65.9-2.63a17.44,17.44,0,0,1,2.34.37c2.57.76,5.12,1.6,7.68,2.38,1.5.46,2.43.09,2.9-1.55a31.908,31.908,0,0,0,1.15-6.12,53.271,53.271,0,0,0,.26-9.52c-.39-3.92-1.4-7.76-2.16-11.64a3.75,3.75,0,0,1-.09-1.92q2.57,2.82,5.12,5.65A80,80,0,0,1,364,120.32a117,117,0,0,1,6.63,18.9,84.49,84.49,0,0,1,2,19.77,66.785,66.785,0,0,0,.64,7h-6c-.52-2.43-1.18-5-1.58-7.55-.64-4.11-1.16-8.24-1.6-12.37a35.122,35.122,0,0,0-1.95-9.55c-.54-1.34-1.14-1.71-2.33-1.37s-1.27,1.51-.91,2.42c1.47,3.74,1.65,7.73,2.28,11.62.68,4.3,1.09,8.64,1.63,13,.39,3.15.91,6.29,1.18,9.44.42,4.83.67,9.67,1,13.92l-2.17,2.37c-8.59-.83-17.22-1.8-25.88-2.42-3.6-.26-7.25.31-10.87.37-5.74.09-11.48,0-17.22.12-5.93.13-11.88.13-17.78.73-11.14,1.14-22.35,1.6-33.37,3.82-.46.09-.93.09-1.7.16.19-3.89.3-7.65.58-11.39.55-7.51,1.14-15,1.84-22.51.26-2.86.85-5.68,1.29-8.52a8.292,8.292,0,0,0,.22-1.47c-.06-5.61,1.41-11,2.21-16.47.22-1.48-.37-2.66-1.48-2.72-1.29-.08-1.71.7-1.92,2-.61,3.79-1.57,7.52-2.1,11.32s-.71,7.68-1.1,11.52c-.18,1.78-.6,3.53-.74,5.3-.5,6.28-.92,12.56-1.4,18.84-.08,1.07-.28,2.12-.49,3.57l-9.66-1.65c.25-2.82.37-5.86.79-8.86,1.43-10.21,2.87-20.42,4.47-30.6,1.55-9.9,3.46-19.74,7.07-29.09,1.46-3.75,3.84-7.12,5.44-10.82C263.54,93.2,268.33,89.67,273.08,86.06Z" fill="#e6e5e5"/>
      <path id="Path_6450" data-name="Path 6450" d="M351.37,353.07H339.78c.19-2.86.32-5.57.57-8.28.22-2.46.66-4.9.84-7.36.14-1.85-.25-3.77.06-5.57a237.032,237.032,0,0,0,3-24.2,13.376,13.376,0,0,1,.43-2.34c1.66-6.2,1-12.65,1.92-18.93.39-2.74.89-5.48,1.05-8.24.49-8.71,1-17.41,1.2-26.12a49.9,49.9,0,0,0-4.19-21.12,12.1,12.1,0,0,0-6.77-6.15c-9.17-3.86-18.53-7.1-28.59-7.25-3.53,0-7.07.05-10.6.08h-2c1.15-5.87,2.24-11.48,3.33-17.1.26-.17.48-.47.73-.48,6.66-.29,13.32-.68,20-.76,4.49-.06,9,.33,13.46.5,5.25.21,10.49.38,15.74.58a10.71,10.71,0,0,1,2.26.32c4.54,1.17,9.07,2.38,13.83,3.63-.31,4.51-.68,9.12-.94,13.75-.25,4.25-.35,8.52-.6,12.78-.13,2.26-.48,4.52-.66,6.79-.25,3.14-.44,6.29-.65,9.44-.39,5.64-.75,11.29-1.19,16.92-.41,5.34-.9,10.67-1.35,16-.39,4.72-.7,9.45-1.18,14.16-.78,7.79-1.58,15.58-2.52,23.36-1.05,8.76-2.16,17.51-3.43,26.24C353.1,346.82,352.14,349.85,351.37,353.07Z" fill="#e6e5e5"/>
      <path id="Path_6451" data-name="Path 6451" d="M365.46,192.12c.2,2.7.39,5.3.63,8.46-3.82-.87-7.18-1.5-10.46-2.43-4.69-1.32-9.5-1.06-14.26-1.46-4.48-.38-9-.57-13.46-.78-5.33-.24-10.62-.92-16-.13a87.487,87.487,0,0,1-12.86.48,2.16,2.16,0,0,0-2.51,2.13c-.83,5.07-1.66,10.13-2.52,15.19-1.09,6.44-2.22,12.86-3.31,19.3-.53,3.13-1,6.26-1.51,9.4a4.09,4.09,0,0,1-2.9,3.62,56.689,56.689,0,0,1-21.7,3.56c-4.21-.18-8.43-.39-12.63-.77a47.581,47.581,0,0,1-5.71-1.22c-.9-4.21-.64-8.46-.33-12.68a146.607,146.607,0,0,1,2.36-18.89c1-4.84,1.26-9.84,1.87-14.76.16-1.28.48-2.54.62-3.82a2.36,2.36,0,0,1,2.4-2.37c7.29-1,14.53-2.39,21.83-3.13,10.07-1,20.11-2.49,30.27-2.45,3.83,0,7.66.12,11.49,0,7.47-.13,14.94-.52,22.41-.48a114.449,114.449,0,0,1,12.5,1.12c4,.48,7.95,1.14,11.93,1.72A18.837,18.837,0,0,0,365.46,192.12Z" fill="#fff"/>
      <path id="Path_6452" data-name="Path 6452" d="M307,162.56c-2.45-3.05-4.49-5.46-5.72-8.59-1.73-4.41-3.95-8.6-5.7-13-2.33-5.86-4.47-11.8-6.57-17.76-2.29-6.49-3-13.32-3.56-20.15-.4-5,.39-9.76,3.87-13.57A9.58,9.58,0,0,1,292.77,87c3-1.08,6.05-1.87,9.09-2.73a21.25,21.25,0,0,1,11.38.15c2.58.69,5.16,1.42,7.71,2.26a15.771,15.771,0,0,1,3.33,1.62c1.31.81,2.51,1.81,3.79,2.66,3.45,2.3,4.47,5.86,4.45,9.75A68.11,68.11,0,0,1,331,116c-.62,2.58-1.61,5.07-2.34,7.64-1.88,6.63-5.3,12.49-8.59,18.4-3.06,5.48-6.33,10.82-9.61,16.15A43,43,0,0,1,307,162.56Z" fill="#fff"/>
      <path id="Path_6453" data-name="Path 6453" d="M257.32,253h14.26c.35,3,.87,6,1,9.05.37,7,.71,14.09.79,21.13.09,7.56.8,15,1.51,22.54.44,4.64.46,9.33.89,14,.46,4.91,1.18,9.79,1.79,14.68q.99,7.83,2,15.65a29.251,29.251,0,0,1,0,3,39.28,39.28,0,0,1-11.95.26c-1.1-.16-1.55-1-1.68-2.13-.19-1.68-.42-3.35-.59-5-.69-6.61-1.4-13.21-2-19.82-.72-7.7-1.34-15.41-2.05-23.12-.32-3.45-.84-6.89-1.11-10.35-.47-6-.78-12.08-1.23-18.12-.49-6.63-1.07-13.25-1.6-19.87A16.4,16.4,0,0,1,257.32,253Z" fill="#e6e5e5"/>
      <path id="Path_6454" data-name="Path 6454" d="M334.05,118.44c.62-3.88,1.34-7.37,1.68-10.9a54.9,54.9,0,0,0,.23-9.76,14.24,14.24,0,0,0-5.68-10c-3.79-3.05-8-5.54-12.89-6.09-4-.45-7.64-2.68-11.78-2a31.718,31.718,0,0,0-3.92.64c-3.75,1.15-7.48,2.4-11.2,3.66a8.48,8.48,0,0,0-3.94,2.83,19,19,0,0,0-4.68,13.32c.15,3,.45,5.93.65,8.9.06.89,0,1.78,0,2.94a39.23,39.23,0,0,1-11.31,3.16,37.48,37.48,0,0,1-.36-4.45q.25-6.69.74-13.37a22.08,22.08,0,0,1,3.13-9.49c.34-.58.54-1.26.87-1.86a8,8,0,0,1,3.62-3.6c4.56-2.27,9.45-3.14,14.29-4.33a55.53,55.53,0,0,1,22.5-.65c4.5.74,8.89,2.32,13.28,3.68a42.461,42.461,0,0,1,5.51,2.39c5.4,2.57,7.16,7.7,9,13,2.43,7,1.59,14.08,1.28,21.16-.13,3-1.13,3.62-4,2.91C338.76,120,336.42,119.16,334.05,118.44Z" fill="#e6e5e5"/>
      <path id="Path_6455" data-name="Path 6455" d="M236.13,181.8c5.77.53,11.38.28,16.77,2.36l-.39,6.51c-1.39,1.26-3.81,0-4.48,2.3l-1.57,5.49a47.229,47.229,0,0,1-10.61-1.09,86.356,86.356,0,0,1,.28-15.57Z" fill="#e6e5e5"/>
      <path id="Path_6456" data-name="Path 6456" d="M367.37,169.33h9.53a35,35,0,0,1,2.51,15c-3.49,1.51-7.07,1.36-10.76,1.76C368.21,180.31,367.8,175,367.37,169.33Z" fill="#cecccc"/>
      <path id="Path_6457" data-name="Path 6457" d="M242.18,240.88c-1.86-.19-2.46-.9-2.49-2.56-.16-9,1-17.82,2.15-26.67.42-3.2,1.25-6.34,1.92-9.61l2.27.12a3.659,3.659,0,0,1,.19,1c-.86,6.59-1.85,13.16-2.58,19.76-.52,4.62-.7,9.28-1,13.93C242.5,238.13,242.34,239.39,242.18,240.88Z" fill="#fff"/>
      <path id="Path_6458" data-name="Path 6458" d="M309.57,177.57c.06,2.48-.8,3.27-3.81,3.46-1.92.11-4.22-2.23-4.27-4.37a3.88,3.88,0,0,1,3.89-3.81C307.93,172.71,309.48,174.47,309.57,177.57Zm-2.27.94c.33-2.28,0-3.45-1.25-3.77a2.67,2.67,0,0,0-2,.54,1.65,1.65,0,0,0-.53,2.3c.74,1.27,1.64,1.53,3.78.93Z" fill="#13100d"/>
      <path id="Path_6459" data-name="Path 6459" d="M307.3,178.51c-2.14.6-3,.34-3.76-.93a1.65,1.65,0,0,1,.53-2.3,2.67,2.67,0,0,1,2-.54C307.31,175.06,307.63,176.23,307.3,178.51Z" fill="#fff"/>
      <path id="Path_6460" data-name="Path 6460" d="M261.41,194.66a61,61,0,0,1,2.72,10.88c1.31.25,1.89-.29,1.79-1.53-.23-3.15-.52-6.29-.75-9.43a45.922,45.922,0,0,1-.22-5.24c.1-2.49.85-3.19,3.21-3.48l4-.5c2.27-.29,3.47.35,3,3-.93,5.22.3,10.24,1.16,15.27,1,.38,1.6.1,1.68-.92.22-3.22.44-6.44.62-9.67.15-2.6.17-5.21.38-7.81s.66-2.95,3.13-3.09c1.77-.1,3.52-.44,5.29-.49,2.18-.06,2.41.36,2.32,2.64-.23,5.7-.4,11.39-.56,17.09a17.532,17.532,0,0,0,.2,2.16,5.83,5.83,0,0,1,2-.19,2.2,2.2,0,0,1,1.39,1.27c.1.46-.4,1.22-.82,1.64a2.27,2.27,0,0,1-1.43.43c-2.11.08-4.22.14-6.33.12a70.44,70.44,0,0,0-16.88,1.42,76.115,76.115,0,0,1-8.3,1c-1.25.14-2.5.35-3.76.46a11.086,11.086,0,0,1-1.72-.06c-1-.06-1.85-.27-1.93-1.58-.07-1.14.56-1.53,1.5-1.72.22,0,.41-.27.59-.39.47-3.22-1.81-6.29-.36-9.53Zm21.13-9.38c-.89,2-1.64,14.86-1.09,18.31.71.06,1.46.15,2.21.18s1.46,0,2.13,0c.88-4.56,1.2-14.93.61-18.93Zm-10.36,3.14-4.27.52c-.74,5.49.61,10.53,1,15.87l4.34-.76c-.35-5.28-.69-10.21-1.07-15.63ZM260,198l-4.32.58,1.32,7.76,4.53-.82Z" fill="#13100d"/>
      <path id="Path_6461" data-name="Path 6461" d="M282.54,185.28l3.86-.44c.59,4,.27,14.37-.61,18.93h-2.13c-.73,0-1.5-.12-2.21-.18C280.9,200.14,281.65,187.28,282.54,185.28Z" fill="#fff"/>
      <path id="Path_6462" data-name="Path 6462" d="M272.18,188.42c.38,5.42.72,10.35,1.09,15.63l-4.34.76c-.41-5.34-1.76-10.38-1-15.87Z" fill="#fff"/>
      <path id="Path_6463" data-name="Path 6463" d="M260,198l1.53,7.52-4.53.82-1.32-7.76Z" fill="#fff"/>
      <path id="Path_6464" data-name="Path 6464" d="M320.07,142.08c3.29-5.91,6.71-11.77,8.59-18.4.73-2.57,1.72-5.06,2.34-7.64a68.111,68.111,0,0,0,1.52-15.33c0-3.89-1-7.45-4.45-9.75-1.28-.85-2.48-1.85-3.79-2.66A15.769,15.769,0,0,0,321,86.68c-1.48-.49-3-.94-4.46-1.36l2.45,5.83s13.71,28.7-12,71.41a43,43,0,0,0,3.5-4.33C313.74,152.9,317,147.56,320.07,142.08Z" fill="#e6e5e5"/>
      <path id="Path_6465" data-name="Path 6465" d="M340.35,344.79c-.25,2.71-.38,5.42-.57,8.28h11.59c.77-3.22,1.73-6.25,2.18-9.35,1.27-8.73,2.38-17.48,3.43-26.24.94-7.78,1.74-15.57,2.52-23.36.48-4.71.79-9.44,1.18-14.16.45-5.33.94-10.66,1.35-16,.44-5.63.8-11.28,1.19-16.92.21-3.15.4-6.3.65-9.44.18-2.27.53-4.53.66-6.79.25-4.26.35-8.53.6-12.78.26-4.63.63-9.24.94-13.75-4.76-1.25-9.29-2.46-13.83-3.63a10.709,10.709,0,0,0-2.26-.32c-5.25-.2-10.49-.37-15.74-.58-4.49-.17-9-.56-13.46-.5-2.11,0-4.22.09-6.33.16-3.79,8.62-7,14.93-8.69,18.1h3.57c10.06.15,19.42,3.39,28.59,7.25a12.15,12.15,0,0,1,6.78,6.15A50,50,0,0,1,348.88,252c-.24,8.71-.71,17.41-1.2,26.12-.16,2.76-.66,5.5-1.05,8.24-.9,6.28-.26,12.73-1.92,18.93a13.38,13.38,0,0,0-.43,2.34q-.91,12.18-3,24.2c-.31,1.8.08,3.72-.06,5.57C341,339.89,340.57,342.33,340.35,344.79Z" fill="#cecccc"/>
      <path id="Path_6466" data-name="Path 6466" d="M362.8,187.86l2.17-2.37c-.28-4.25-.53-9.09-1-13.92-.27-3.15-.79-6.29-1.18-9.44-.54-4.32-.95-8.66-1.63-13-.63-3.89-.81-7.88-2.28-11.62-.36-.91-.39-2,.91-2.42s1.79,0,2.33,1.37a35.12,35.12,0,0,1,1.95,9.55c.44,4.13,1,8.26,1.6,12.37.4,2.59,1.06,5.12,1.58,7.55h6a66.784,66.784,0,0,1-.64-7,84.49,84.49,0,0,0-2-19.77,117,117,0,0,0-6.63-18.9A80,80,0,0,0,350.22,97.8q-2.55-2.83-5.12-5.65a3.751,3.751,0,0,0,.09,1.92c.76,3.88,1.77,7.72,2.16,11.64a53.271,53.271,0,0,1-.26,9.52,31.905,31.905,0,0,1-1.15,6.12c-.47,1.64-1.4,2-2.9,1.55-2-.59-3.91-1.22-5.87-1.83-3.13,24.32-10.31,47.16-17.15,64.72h6c3.62-.06,7.27-.63,10.87-.37C345.58,186.06,354.21,187,362.8,187.86Z" fill="#cecccc"/>
      <path id="Path_6467" data-name="Path 6467" d="M359.35,151.55c-.33,10.64-.65,21-1,31.55A5.921,5.921,0,0,1,357,183c-6.24-2.34-12.7-2.73-19.24-2.43-.39,0-.77.08-1.15.09-2.14,0-2.59-.38-2.63-2.53s0-4.38,0-6.56c.15-6.23.33-12.46.49-18.53C339.52,150.08,355.34,149.2,359.35,151.55Zm-2.94,29.38c1.28-9,.31-17.88.82-26.86-3.56,3.68-6.65,7.72-10.85,10.34-4.34-1.66-6.73-5.48-9.95-9.12a193.471,193.471,0,0,0-.59,23.57c7.04.19,13.88-.52,20.57,2.07Zm-.62-28.11-.4-.93c-5.6.53-11.31,0-17.53,2,1.5,1.37,2.6,2.31,3.62,3.33s1.85,2.27,2.95,3.19c1.88,1.59,2.18,1.63,3.9,0C350.9,158,353.31,155.36,355.79,152.82Z" fill="#13100d"/>
      <path id="Path_6468" data-name="Path 6468" d="M356.41,180.93c-6.69-2.59-13.53-1.88-20.57-2.07a193.477,193.477,0,0,1,.59-23.57c3.22,3.64,5.61,7.46,9.95,9.12,4.2-2.62,7.29-6.66,10.85-10.34C356.72,163.05,357.69,171.92,356.41,180.93Z" fill="#cecccc"/>
      <path id="Path_6469" data-name="Path 6469" d="M355.79,152.82c-2.48,2.54-4.89,5.15-7.46,7.59-1.72,1.64-2,1.6-3.9,0-1.1-.92-1.93-2.17-2.95-3.19s-2.12-2-3.62-3.33c6.22-2.06,11.93-1.48,17.53-2Z" fill="#cecccc"/>
      <path id="Path_6470" data-name="Path 6470" d="M342.75,223.05c.27-2.22.64-4.43.8-6.65a72.416,72.416,0,0,0,.27-8.58,76.73,76.73,0,0,0-1.08-7.64,13.247,13.247,0,0,1-.33-2.05c0-2.36.67-3.44,2.89-4.16a12.14,12.14,0,0,1,3.91-.6,4.12,4.12,0,0,1,3.88,3,53.35,53.35,0,0,1,3.08,18.4c.05,4.74.06,9.53-2.19,13.93a5.6,5.6,0,0,0-.22,2c-.35,5.33-.64,10.68-1.08,16-.27,3.18-.76,3.67-3.78,4.23-1.5.28-3,.31-4.56.45a2,2,0,0,1-2.15-1.59c-1.91-5.07-3.81-10.14-5.76-15.2a5.66,5.66,0,0,0-2.67-3.35c-2.49-1.24-4.05-3.51-5.7-5.73-4.51-6.07-6-13.27-7.22-20.51-.49-2.89-.59-3,2.23-4.4a33.809,33.809,0,0,1,5.93-2c1.9-.49,2.31-.11,2.9,1.84,1.35,4.45,2.53,9,4.13,13.32a54.828,54.828,0,0,0,4.08,7.82,8.782,8.782,0,0,0,1.81,1.73Zm-3.42,8.64c2.43-.56,4.83-1.2,7.26-1.65a6.409,6.409,0,0,0,5-4.73,16.86,16.86,0,0,0,1.12-5.17A96.406,96.406,0,0,0,352.3,208c-.44-3.79-1-7.67-3-11.25l-3.35.38c.23,2,.44,3.61.61,5.26a70.69,70.69,0,0,1,.65,7.38c0,3-.61,5.94-.55,8.9a15.31,15.31,0,0,1-2.51,8.38c-1,1.74-2.28,1.93-3.68.35a40,40,0,0,1-7.9-13.31c-1.06-3-1.82-6.06-2.8-9.07a18.838,18.838,0,0,0-1.33-2.66,27.83,27.83,0,0,1-2.63,1.06c-1.45.41-1.65,1.41-1.43,2.76a52.309,52.309,0,0,0,3.76,13.41,24.76,24.76,0,0,0,6.78,8.78C336.44,229.59,338,230.68,339.33,231.69Zm10.46,15.51.77-16.25c-3.9.85-7.45,1.35-10.8,3.36,1.8,4.66,3.29,9.3,5.74,13.55Z" fill="#13100d"/>
      <path id="Path_6471" data-name="Path 6471" d="M339.33,231.69c-1.32-1-2.89-2.1-4.35-3.32a24.76,24.76,0,0,1-6.78-8.78,52.309,52.309,0,0,1-3.76-13.41c-.22-1.35,0-2.35,1.43-2.76a27.819,27.819,0,0,0,2.63-1.06,18.84,18.84,0,0,1,1.33,2.66c1,3,1.74,6.09,2.8,9.07a40,40,0,0,0,7.9,13.31c1.4,1.58,2.63,1.39,3.68-.35a15.31,15.31,0,0,0,2.51-8.38c-.06-3,.54-5.93.55-8.9a70.7,70.7,0,0,0-.65-7.38c-.17-1.65-.38-3.31-.61-5.26l3.35-.38c2,3.58,2.54,7.46,3,11.25a96.406,96.406,0,0,1,.41,12.14,16.859,16.859,0,0,1-1.12,5.17c-.85,2.43-2.37,4.22-5,4.73C344.16,230.49,341.76,231.13,339.33,231.69Z" fill="#fff"/>
      <path id="Path_6472" data-name="Path 6472" d="M349.79,247.2l-4.29.66c-2.45-4.25-3.94-8.89-5.74-13.55,3.35-2,6.9-2.51,10.8-3.36Z" fill="#b5b3b2"/>
      <path id="Path_6473" data-name="Path 6473" d="M364.49,81.9c1.23,1.34,2.23,2.35,3.15,3.44a5.66,5.66,0,0,1,.83,6.14c-1,2.36-2.08,4.69-3.28,6.94-1.71,3.21-3.67,6.28-5.32,9.52a66.211,66.211,0,0,1-7.65,11.47,70.787,70.787,0,0,0-4.62,6.77,168,168,0,0,1-14.28,18.6c-1.26,1.49-2.44,3.05-3.67,4.57-2.82,3.49-5.68,6.94-8.46,10.46a191.76,191.76,0,0,1-17.76,18.94c-6.23,6-12.39,12.13-18.92,17.8-6.36,5.52-12.56,11.3-19.67,15.87-6.51,4.18-12.94,8.5-19.42,12.74a19,19,0,0,1-12.63,3.15c-3.78-.4-5.81-2.81-6.36-6.71a3.53,3.53,0,0,0-1.16-1.86c-3.86-3.54-4-6.94-.17-10.54a24.38,24.38,0,0,1,4.2-3.08c4.81-2.9,9.8-5.48,14.47-8.59,4.91-3.28,9.55-7,14.24-10.6s9.4-7.15,13.82-11.07a119.881,119.881,0,0,0,11.73-11.38c5-5.86,10.43-11.33,15.65-17,2.56-2.79,5-5.67,7.57-8.49,4.25-4.71,8.62-9.31,12.74-14.13,2.6-3,4.61-6.61,7.3-9.53A118.993,118.993,0,0,0,336.89,102c3.17-4.59,6.09-9.38,9-14.15,1.58-2.57,2.92-5.29,4.39-7.93.34-.6.75-1.15,1.13-1.72,3.17-4.81,6.07-4.43,10.74-2.56a4,4,0,0,1,2.32,3.54C364.56,80.12,364.49,81.12,364.49,81.9ZM225.21,215.19c2.8,2.84,3.71,3,7,1.45a10.078,10.078,0,0,0,1-.59c5.56-3.29,11.09-6.63,16.67-9.87a144.289,144.289,0,0,0,17.2-11.9c4.47-3.55,8.85-7.21,13.26-10.84,3.3-2.72,6.79-5.23,9.83-8.23,4.3-4.23,8.31-8.78,12.36-13.28,7.17-8,14.43-15.9,21.35-24.12a207.748,207.748,0,0,0,16.31-21.48c2.6-4,5.32-8,7.85-12.11,3.4-5.52,6.7-11.09,10-16.7a40.491,40.491,0,0,0,2.94-6.12c.91-2.46-.34-4-2.91-3.93s-3.95,2.12-5.12,4.2c-1.39,2.47-2.59,5.07-4.06,7.49-2.82,4.61-5.69,9.19-8.7,13.67-2.51,3.74-5.17,7.37-7.89,11-2,2.57-4.1,5-6.16,7.45-3.37,4-6.67,8.19-10.15,12.15-4.32,4.92-8.79,9.69-13.2,14.51-.92,1-1.87,2-2.79,3-2.45,2.65-4.92,5.29-7.34,8-1.31,1.45-2.47,3.05-3.83,4.44-4.83,4.93-9.54,10-14.64,14.63-4.75,4.29-9.91,8.12-15,12-4.14,3.22-8.27,6.47-12.62,9.36-5.07,3.37-10.39,6.33-15.57,9.53C228.49,210.39,226.25,212.23,225.21,215.19Zm8.6,9.76c3.22-.08,6.21-.25,8.64-1.9,7.83-5.32,16.27-9.65,23.71-15.59,2.65-2.13,5.28-4.28,7.92-6.42.9-.73,1.84-1.43,2.74-2.17,2.24-1.87,4.55-3.65,6.68-5.64,4.67-4.36,9.25-8.83,13.85-13.27,4-3.84,8-7.61,11.92-11.57q4.61-4.71,8.82-9.81c4.29-5.21,8.37-10.59,12.62-15.84,2.08-2.58,4.5-4.89,6.47-7.56,3.76-5.11,7.12-10.55,11-15.58,5.94-7.73,10.29-16.46,15.12-24.89.78-1.36,1.35-2.86,2-4.29a3.51,3.51,0,0,0-.48-3.64c-1.1-1.61-2.23-1.62-3.35,0-1.62,2.33-3.27,4.64-4.81,7-3.11,4.78-6.14,9.61-9.22,14.41-2.87,4.45-5.7,8.93-8.67,13.3-1.54,2.27-3.31,4.37-5,6.51-4.16,5.2-8.26,10.45-12.55,15.54-3.34,4-6.95,7.67-10.39,11.54-3.17,3.58-6.17,7.33-9.42,10.84-4.9,5.29-9.49,10.94-15.53,15a11.149,11.149,0,0,0-1.12.94c-3.53,3-7,6.22-10.62,9.1-4.95,3.9-10,7.74-15.14,11.31-5.34,3.67-10.87,7.06-16.39,10.43-3.71,2.27-7.54,4.34-11.34,6.44a3,3,0,0,0-1.64,2.61,2.53,2.53,0,0,0,1.76,2.48,21.089,21.089,0,0,0,2.42.77Z" fill="#13100d"/>
      <path id="Path_6474" data-name="Path 6474" d="M225.21,215.19c1-3,3.28-4.8,5.76-6.34,5.18-3.2,10.5-6.16,15.57-9.53,4.35-2.89,8.48-6.14,12.62-9.36,5-3.92,10.21-7.75,15-12,5.1-4.61,9.81-9.7,14.64-14.63,1.36-1.39,2.52-3,3.83-4.44,2.42-2.69,4.89-5.33,7.34-8,.92-1,1.87-2,2.79-3,4.41-4.82,8.88-9.59,13.2-14.51,3.48-4,6.78-8.1,10.15-12.15,2.06-2.48,4.21-4.88,6.16-7.45,2.72-3.58,5.38-7.21,7.89-11,3-4.48,5.88-9.06,8.7-13.67,1.47-2.42,2.67-5,4.06-7.49,1.17-2.08,2.43-4.1,5.12-4.2s3.82,1.47,2.91,3.93A40.5,40.5,0,0,1,358,87.52c-3.25,5.61-6.55,11.18-10,16.7-2.53,4.1-5.25,8.06-7.85,12.11a207.745,207.745,0,0,1-16.31,21.48c-6.92,8.22-14.18,16.13-21.35,24.12-4.05,4.5-8.06,9-12.36,13.28-3,3-6.53,5.51-9.83,8.23-4.41,3.63-8.79,7.29-13.26,10.84a144.29,144.29,0,0,1-17.2,11.9c-5.58,3.24-11.11,6.58-16.67,9.87a10.076,10.076,0,0,1-1,.59C228.92,218.22,228,218,225.21,215.19Z" fill="#dd7500"/>
      <path id="Path_6475" data-name="Path 6475" d="M233.81,225a21.088,21.088,0,0,1-2.45-.74,2.53,2.53,0,0,1-1.76-2.48,3,3,0,0,1,1.64-2.61c3.8-2.1,7.63-4.17,11.34-6.44,5.52-3.37,11-6.76,16.39-10.43,5.18-3.57,10.19-7.41,15.14-11.31,3.65-2.88,7.09-6.06,10.62-9.1a11.148,11.148,0,0,1,1.12-.94c6-4,10.63-9.67,15.53-15,3.25-3.51,6.25-7.26,9.42-10.84,3.44-3.87,7.05-7.58,10.39-11.54,4.29-5.09,8.39-10.34,12.55-15.54,1.71-2.14,3.48-4.24,5-6.51,3-4.37,5.8-8.85,8.67-13.3,3.08-4.8,6.11-9.63,9.22-14.41,1.54-2.38,3.19-4.69,4.81-7,1.12-1.62,2.25-1.61,3.35,0a3.51,3.51,0,0,1,.48,3.64c-.66,1.43-1.23,2.93-2,4.29-4.83,8.43-9.18,17.16-15.12,24.89-3.86,5-7.22,10.47-11,15.58-2,2.67-4.39,5-6.47,7.56-4.25,5.25-8.33,10.63-12.62,15.84q-4.2,5.08-8.82,9.81c-3.87,4-7.93,7.73-11.92,11.57-4.6,4.44-9.18,8.91-13.85,13.27-2.13,2-4.44,3.77-6.68,5.64-.9.74-1.84,1.44-2.74,2.17-2.64,2.14-5.27,4.29-7.92,6.42-7.44,5.94-15.88,10.27-23.71,15.59C240,224.7,237,224.87,233.81,225Z" fill="#dd7500"/>
      <path id="Path_6476" data-name="Path 6476" d="M252.11,103.51c-2.64-8.73,1-14.33,8.44-14.67a21.23,21.23,0,0,0-.48-2.52,10.68,10.68,0,0,1,.78-8.06c2.06-4.37,10.19-5.46,13.26-1.75a6.13,6.13,0,0,1,1.43,2.84,35.889,35.889,0,0,0,4.73,13.53c4.22,7.21,8.7,14.27,12.8,21.55,4,7.09,9.93,12.33,15.47,17.94,3.49,3.53,7.25,6.78,10.92,10.12a22.84,22.84,0,0,0,2.58,1.9c3.61,2.43,7.21,4.88,10.86,7.24a64.112,64.112,0,0,0,9.09,4.9,40.188,40.188,0,0,0,8.79,2.32,135.188,135.188,0,0,0,16.41,2c3.13.22,6.47.4,9,3.08,3.74,3.95,4,8.48.45,12.82,4,5.16,6.87,10.52,1,16.42.72.92,1.27,1.73,1.93,2.42,1.69,1.78,2,4,2,6.33a5.48,5.48,0,0,1-2.75,4.62,27.76,27.76,0,0,1-4.25,2.46,10.629,10.629,0,0,1-3.6,1,65.92,65.92,0,0,1-16.24-.65c-2.82-.54-5.64-1.08-8.42-1.8-8.34-2.17-16.77-4.15-24.42-8.45-4-2.27-7.88-4.94-12-7-4.49-2.25-7.69-6.19-11.8-8.9-6.27-4.12-10.62-10.23-15.42-15.88a56.141,56.141,0,0,1-5.21-6.26c-4.17-6.66-8.94-12.84-13.45-19.23-5.89-8.32-11.92-16.52-16.28-25.9C245,110,246.23,106,252.11,103.51ZM365,193.27l.94.1c3.18.36,6-.7,8.71-2.29a5.17,5.17,0,0,0,2.72-4c.53-4.59-3.5-9.28-8-9.47-3.91-.16-7.76.73-11.72.24a41.69,41.69,0,0,1-10.6-2.45c-3.92-1.56-7.77-3.32-11.7-4.84a70.66,70.66,0,0,1-14.73-7.36c-6-4.1-12.12-8-17.18-13.39-4.77-5-9.45-10.18-13.82-15.58-4.05-5-7.64-10.45-11.42-15.71-.57-.8-1.09-1.63-1.58-2.48-4.22-7.34-8.45-14.67-12.61-22a3.2,3.2,0,0,0-3-1.86,13.6,13.6,0,0,0-3.1.47c-2.38.63-3.66,3.19-3.39,5.72.36,3.25,3.2,5.31,3.52,8.51,2.91,4.55,5.79,9.13,8.75,13.65,3.28,5,6.67,10,10,15a97.129,97.129,0,0,0,12.67,15.79c3.75,3.7,7.55,7.35,11.21,11.14a84.58,84.58,0,0,0,17.55,13.87c2.75,1.64,5.56,3.2,8.13,5.09a37.36,37.36,0,0,0,10.31,5.17,43.9,43.9,0,0,1,4.56,1.71,53.251,53.251,0,0,0,17,5C360.33,193.45,362.55,193.27,365,193.27Zm-1.3,14.23v-.25a33.583,33.583,0,0,1,4-.27c3.45.16,6.36-1.3,9.05-3.26a3.93,3.93,0,0,0,1.47-2.65c.05-3.07-3.59-6.7-6.58-6.24-4.11.64-8.18-.14-12.26.14a12.839,12.839,0,0,1-4-.44c-4.63-1.18-9.32-2.18-13.71-4.21-1.21-.57-2.49-1-3.71-1.52-3.34-1.49-6.78-2.78-10-4.57-4.55-2.55-8.95-5.39-13.32-8.27a75.7,75.7,0,0,1-8.64-6.37c-5.1-4.52-10.1-9.17-14.92-14a106.341,106.341,0,0,1-13.66-16.08c-2.64-4-5.38-7.94-8-11.94-3.51-5.32-7-10.67-10.46-16a39.578,39.578,0,0,0-2.32-3.38c-1.34-1.65-3.15-1.91-5.18-.92-1.4.68-2.1,1.94-1.68,4a16.08,16.08,0,0,0,1.85,4.6c3.12,5.46,6.14,11,9.58,16.23,3.87,5.91,8.13,11.53,12.24,17.26,3.7,5.18,7.28,10.47,11.18,15.49a120.176,120.176,0,0,0,9.87,11.25,124.788,124.788,0,0,0,9.6,8c1.49,1.22,2.94,2.51,4.52,3.58s3.38,1.89,5,2.89c2,1.2,3.84,2.6,5.87,3.71a93.96,93.96,0,0,0,8.54,4.22,99.274,99.274,0,0,0,10.23,3.85c3.39,1,6.88,1.66,10.35,2.35,5.03,1.01,10.04,1.88,15.04,2.8Zm4.88-31.17v-.42c.38,0,.77.08,1.15.1,2.77.08,5.06-1.36,5.72-3.58.79-2.71-.14-4.81-2.44-6.7s-4.93-1.66-7.41-1.86c-5.24-.44-10.45-1.07-15.65-1.86a41,41,0,0,1-14-4.93,172.51,172.51,0,0,1-14.59-9.41,111.674,111.674,0,0,1-9.37-7.78c-4.37-3.85-8.42-8-12.52-12.22A65.559,65.559,0,0,1,290.83,117c-2.27-3.54-4.53-7.1-6.62-10.75-2.62-4.59-5.27-9.19-7.51-14-1.9-4.06-4.2-8-5-12.57-.36-2.09-1.93-2.65-4-2-.65.19-1.29.4-1.93.6a3.7,3.7,0,0,0-2.7,3.77,12.57,12.57,0,0,0,1.4,6.61,5.88,5.88,0,0,1,1,2.44,9.59,9.59,0,0,0,1.62,4.69c2.74,4.79,5.47,9.58,8.23,14.36,1.71,3,3.43,5.94,5.21,8.87.72,1.17,1.59,2.23,2.42,3.33,3.24,4.3,6.43,8.66,9.77,12.89,2.06,2.6,4.29,5.07,6.57,7.48,3.27,3.47,6.65,6.82,10,10.24s7.34,5.36,11.05,8A49,49,0,0,0,330.81,167c5.1,2,10.14,4.16,15.19,6.29a34.68,34.68,0,0,0,13.65,3Z" fill="#13100d"/>
      <path id="Path_6477" data-name="Path 6477" d="M365,193.27c-2.4,0-4.62.18-6.79,0a53.25,53.25,0,0,1-17-5,43.9,43.9,0,0,0-4.56-1.71,37.361,37.361,0,0,1-10.31-5.17c-2.57-1.89-5.38-3.45-8.13-5.09a84.579,84.579,0,0,1-17.55-13.87c-3.66-3.79-7.46-7.44-11.21-11.14a97.128,97.128,0,0,1-12.67-15.79c-3.29-5-6.68-9.95-10-15-3-4.52-5.84-9.1-8.75-13.65-.32-3.2-3.16-5.26-3.52-8.51-.27-2.53,1-5.09,3.39-5.72a13.6,13.6,0,0,1,3.1-.47A3.2,3.2,0,0,1,264,94c4.16,7.37,8.39,14.7,12.61,22a28.066,28.066,0,0,0,1.58,2.48c3.78,5.26,7.37,10.69,11.42,15.71,4.37,5.4,9,10.54,13.82,15.58,5.06,5.34,11.17,9.29,17.18,13.39a70.658,70.658,0,0,0,14.73,7.36c3.93,1.52,7.78,3.28,11.7,4.84a41.69,41.69,0,0,0,10.6,2.45c4,.49,7.81-.4,11.72-.24,4.47.19,8.5,4.88,8,9.47a5.17,5.17,0,0,1-2.72,4c-2.71,1.59-5.53,2.65-8.71,2.29Z" fill="#ee7d00"/>
      <path id="Path_6478" data-name="Path 6478" d="M363.65,207.5c-5-.92-10-1.79-15-2.77-3.47-.69-7-1.33-10.35-2.35a99.275,99.275,0,0,1-10.23-3.85c-2.91-1.25-5.75-2.7-8.54-4.22-2-1.11-3.9-2.51-5.87-3.71-1.65-1-3.43-1.81-5-2.89s-3-2.36-4.52-3.58c-3.23-2.65-6.65-5.08-9.6-8a120.18,120.18,0,0,1-9.87-11.25c-3.9-5-7.48-10.31-11.18-15.49-4.11-5.73-8.37-11.35-12.24-17.26-3.44-5.24-6.46-10.77-9.58-16.23a16.08,16.08,0,0,1-1.85-4.6c-.42-2.08.28-3.34,1.68-4,2-1,3.84-.73,5.18.92A39.585,39.585,0,0,1,259,111.6c3.49,5.34,6.95,10.69,10.46,16,2.64,4,5.38,7.94,8,11.94a106.337,106.337,0,0,0,13.66,16.08c4.82,4.83,9.82,9.48,14.92,14a75.7,75.7,0,0,0,8.64,6.37c4.37,2.88,8.77,5.72,13.32,8.27,3.18,1.79,6.62,3.08,10,4.57,1.22.54,2.5.95,3.71,1.52,4.39,2,9.08,3,13.71,4.21a12.84,12.84,0,0,0,4,.44c4.08-.28,8.15.5,12.26-.14,3-.46,6.63,3.17,6.58,6.24a3.93,3.93,0,0,1-1.47,2.65c-2.69,2-5.6,3.42-9.05,3.26a33.592,33.592,0,0,0-4,.27Z" fill="#ee7d00"/>
      <path id="Path_6479" data-name="Path 6479" d="M368.53,176.33h-8.88a34.68,34.68,0,0,1-13.65-3c-5-2.14-10.09-4.33-15.19-6.33a49,49,0,0,1-10.51-6.09c-3.71-2.63-7.81-4.67-11.05-8s-6.71-6.77-10-10.24c-2.28-2.41-4.51-4.88-6.57-7.48-3.34-4.23-6.53-8.59-9.77-12.89-.83-1.1-1.7-2.16-2.42-3.33-1.78-2.93-3.5-5.9-5.21-8.87-2.76-4.78-5.49-9.57-8.23-14.36a9.59,9.59,0,0,1-1.62-4.69,5.88,5.88,0,0,0-1-2.44,12.57,12.57,0,0,1-1.4-6.61,3.7,3.7,0,0,1,2.7-3.77c.64-.2,1.28-.41,1.93-.6,2-.62,3.62-.06,4,2,.8,4.59,3.1,8.51,5,12.57,2.24,4.79,4.89,9.39,7.51,14,2.09,3.65,4.35,7.21,6.62,10.75a65.559,65.559,0,0,0,8.58,10.67c4.1,4.17,8.15,8.37,12.52,12.22a111.675,111.675,0,0,0,9.37,7.78,172.514,172.514,0,0,0,14.59,9.41,41,41,0,0,0,14,4.93c5.2.79,10.41,1.42,15.65,1.86,2.48.2,5.16,0,7.41,1.86s3.23,4,2.44,6.7c-.66,2.22-2.95,3.66-5.72,3.58-.38,0-.77-.07-1.15-.1Z" fill="#ee7d00"/>
      <path id="Path_6480" data-name="Path 6480" d="M350.81,154.35A129.006,129.006,0,0,1,357,140.09c2.61-5.17,4.89-10.52,7.42-15.75,1.29-2.67,2.78-5.23,4.19-7.84,1.65-3.07,3.35-6.11,5-9.2.9-1.7,2.07-2.61,4.06-2.42,2.56.23,5.13.19,7.69.38a4.33,4.33,0,0,1,1.84.79c2.45,1.56,5,3.07,7.29,4.79s4.42,3.61,6.61,5.43c2,1.67,4,3.37,6,5,1.11.88,1.25.95.61,2.19-.89,1.72-1.93,3.35-2.85,5-1.49,2.76-2.9,5.57-4.43,8.31-1.77,3.19-3.64,6.33-5.46,9.5-2.66,4.61-5.33,9.21-7.95,13.84-1.46,2.57-2.83,5.19-4.24,7.79-.33.63-.74,1-1.5.81-1.09-.31-2.18-.6-3.26-.89l-13.63-3.71c-2.25-.61-4.5-1.21-6.73-1.88a4.21,4.21,0,0,1-1.44-.87,7,7,0,0,1-1-1.18Zm35-46.68a34.6,34.6,0,0,0-2,3.06c-2.49,4.74-5,9.49-7.34,14.29-3.33,6.7-6.5,13.49-9.88,20.17-2.09,4.14-4.45,8.15-6.67,12.22-.46.83-.86,1.68-1.36,2.66,1.48.55,2.74,1.11,4,1.49,5.67,1.62,11.36,3.18,17,4.79,1.43.41,1.4.43,2.19-1q4.85-8.56,9.73-17.09c3.41-6,6.84-12,10.22-18,1.38-2.45,2.62-5,3.89-7.39-6.15-5.7-12.32-11.09-19.81-15.2Zm-28.62,51.87c.91-1.58,1.6-2.75,2.26-3.93a154.009,154.009,0,0,0,8.16-15.6c1-2.37,2.26-4.63,3.45-6.92,2.14-4.12,4.35-8.21,6.46-12.34,1.58-3.1,3.05-6.27,4.59-9.39.65-1.31,1.36-2.59,2.22-4.22a56.912,56.912,0,0,1-6.16,0,2.89,2.89,0,0,0-3.29,1.86c-3.37,6.55-6.89,13-10.19,19.59-2.73,5.42-5.18,11-7.87,16.43a67,67,0,0,0-3.6,9Z" fill="#13100d"/>
      <path id="Path_6481" data-name="Path 6481" d="M385.78,107.67c7.49,4.11,13.66,9.5,19.82,15.27-1.27,2.42-2.51,4.94-3.89,7.39-3.38,6-6.81,12-10.22,18q-4.87,8.53-9.73,17.09c-.79,1.39-.76,1.37-2.19,1-5.68-1.61-11.37-3.17-17-4.79-1.3-.38-2.56-.94-4-1.49.5-1,.9-1.83,1.36-2.66,2.22-4.07,4.58-8.08,6.67-12.22,3.38-6.68,6.55-13.47,9.88-20.17,2.38-4.8,4.85-9.55,7.34-14.29a34.606,34.606,0,0,1,1.96-3.13Z" fill="#2e2b29"/>
      <path id="Path_6482" data-name="Path 6482" d="M357.16,159.54l-4-5.57a67,67,0,0,1,3.6-9c2.69-5.44,5.14-11,7.87-16.43,3.3-6.58,6.82-13,10.19-19.59a2.89,2.89,0,0,1,3.29-1.86,56.912,56.912,0,0,0,6.16,0c-.86,1.63-1.57,2.91-2.22,4.22-1.54,3.12-3,6.29-4.59,9.39-2.11,4.13-4.32,8.22-6.46,12.34-1.19,2.29-2.45,4.55-3.45,6.92a154,154,0,0,1-8.16,15.6C358.76,156.79,358.07,158,357.16,159.54Z" fill="#454240"/>
      <path id="Path_6483" data-name="Path 6483" d="M374.09,122a2.55,2.55,0,0,1-2.3,2.48,1.94,1.94,0,0,1-2.05-1.57,3,3,0,0,1,2.6-2.79,1.9,1.9,0,0,1,1.75,1.88Z" fill="#13100d"/>
      <path id="Path_6484" data-name="Path 6484" d="M373.44,122.08a1.79,1.79,0,0,1-1.61,1.73,1.35,1.35,0,0,1-1.43-1.1,2.13,2.13,0,0,1,1.81-1.95,1.35,1.35,0,0,1,1.23,1.32Z" fill="#2e2b29"/>
      <path id="Path_6485" data-name="Path 6485" d="M372.75,116.2a2.5,2.5,0,0,1,2.79-1.88,2,2,0,0,1,1.65,2,3,3,0,0,1-3.13,2.12A2,2,0,0,1,372.75,116.2Z" fill="#13100d"/>
      <path id="Path_6486" data-name="Path 6486" d="M373.41,116.26a1.75,1.75,0,0,1,1.95-1.31,1.36,1.36,0,0,1,1.15,1.4,2.09,2.09,0,0,1-2.19,1.48A1.37,1.37,0,0,1,373.41,116.26Z" fill="#2e2b29"/>
      <path id="Path_6487" data-name="Path 6487" d="M397.25,124a3.17,3.17,0,0,1,3.53-2.37c1.32.31,2.3,1.5,2.08,2.53a3.77,3.77,0,0,1-4,2.68,2.49,2.49,0,0,1-1.61-2.84Z" fill="#13100d"/>
      <path id="Path_6488" data-name="Path 6488" d="M398.2,124.08a2.08,2.08,0,0,1,2.32-1.56,1.62,1.62,0,0,1,1.36,1.66,2.47,2.47,0,0,1-2.59,1.76,1.63,1.63,0,0,1-1.09-1.86Z" fill="#fff"/>
      <path id="Path_6489" data-name="Path 6489" d="M383.6,132.7a6.86,6.86,0,0,1,7,5.81,7.46,7.46,0,0,1-1.37,5.25,6.22,6.22,0,0,1-4.85,3.1,7.21,7.21,0,0,1-7.15-3.43,7.293,7.293,0,0,1,6.37-10.73Z" fill="#13100d"/>
      <path id="Path_6490" data-name="Path 6490" d="M383.56,145.76a4.87,4.87,0,0,0,1.07-.1,6.36,6.36,0,0,0,4.26-3.4,5.9,5.9,0,0,0,.27-5.33,4.92,4.92,0,0,0-3.67-3.09,6.47,6.47,0,0,0-4.4.76,8.08,8.08,0,0,0-2.93,2.76,5.52,5.52,0,0,0,.42,6A6.71,6.71,0,0,0,383.56,145.76Z" fill="#454240"/>
      <path id="Path_6491" data-name="Path 6491" d="M382,151.79c8.09-.44,13.66,6.17,14.37,11.87a15.16,15.16,0,0,1-2.8,10.7c-2.41,3.68-5.69,6.06-9.89,6.34-6,.4-11.29-1.53-14.6-7a13.31,13.31,0,0,1,.73-15c1.25-1.78,2.6-3.52,4.73-4.31C376.87,151.9,380,152.18,382,151.79Zm-.08,27a11.28,11.28,0,0,0,2.24-.2c3.89-1.15,7.13-3.24,8.95-7.14,1.7-3.64,2.47-7.38.57-11.21-1.65-3.32-4-6-7.71-6.49a13.68,13.68,0,0,0-9.24,1.6,17.05,17.05,0,0,0-6.15,5.81c-2.6,4.19-1.43,9.73.88,12.62,2.75,3.42,6.54,4.69,10.54,5.02Z" fill="#13100d"/>
      <path id="Path_6492" data-name="Path 6492" d="M382,178.8c-4-.33-7.74-1.6-10.46-5-2.31-2.89-3.48-8.43-.88-12.62a17.05,17.05,0,0,1,6.15-5.81,13.68,13.68,0,0,1,9.24-1.6c3.72.52,6.06,3.17,7.71,6.49,1.9,3.83,1.13,7.57-.57,11.21-1.82,3.9-5.06,6-8.95,7.14a11.279,11.279,0,0,1-2.24.19Z" fill="#e6e5e5"/>
      <path id="Path_6493" data-name="Path 6493" d="M393.14,171.46c1.7-3.64,2.47-7.38.57-11.21-1.59-3.22-3.84-5.79-7.36-6.42,1.85,3.89,3.4,11.55-1.54,24.56C388.42,177.2,391.42,175.15,393.14,171.46Z" fill="#cecccc"/>
      <path id="Path_6494" data-name="Path 6494" d="M286.36,84c11.9,2.6,23.95,3.74,35.82,1.35,8.93-1.8,17.37-5.55,25.73-9.26a1.2,1.2,0,0,0,.57-.41,1.31,1.31,0,0,0,.13-.62l.23-7.39a94.18,94.18,0,0,0-3.25-28.41c-2.58-9.75-6.44-16-14.2-20.83A40.77,40.77,0,0,0,315,13.25c-6.82-.63-12.21.72-16.57,6.19-6.22-3.3-14.19-1.11-19.38,3.74S271,35,269.23,42c-2.82,10.89-3.5,22.28-6.31,33.17-.19.75-.35,1.66.18,2.2a2,2,0,0,0,.91.47c3.34,1.05,6.72,2.08,10.11,3.05C278.37,84,282.44,82,286.36,84Z" fill="#9b9b9a" stroke="#13100d" stroke-linecap="round" stroke-linejoin="round" stroke-width="2.78"/>
      <path id="Path_6495" data-name="Path 6495" d="M285,80.8c-1,.33,4.76,5.38,8.79,6.85,7.32,2.67,15.09,4,22.76,2.35,7.92-1.7,13.38-7.34,15.55-9.69.71-1,3.32-4.7,3.91-5.81,3-5.69,4.23-12.61,4.72-19.87-.31-5.66-.28-9.26-2.42-14.19-2.8-6.45-6-11.88-11.38-15.24a47.78,47.78,0,0,0-7.8-4c-2-.78-4.14-1.39-6.18-2-1.34-.39-2.72-.79-4.06-1.23a13.93,13.93,0,0,0-8.88.12c-2.21.73-4.46,1.57-6.69,2.51a24,24,0,0,0-10.27,7.77c-4.74,6.47-6.45,11.78-8.36,19.94a32,32,0,0,0,2.86,22.27A52.331,52.331,0,0,0,285,80.8Z" fill="#13100d"/>
      <path id="Path_6496" data-name="Path 6496" d="M341.12,55.72A45.809,45.809,0,0,1,336,74.5a34.6,34.6,0,0,1-9,10.74c-3.51,2.86-7.69,3.69-11.9,4.39a26.84,26.84,0,0,1-6.49.52,51.78,51.78,0,0,1-15.5-3.51A22.351,22.351,0,0,1,288,83.2c-4-3.28-8.23-6.48-10.66-11.31-3.35-6.65-5-13.64-3.2-21.17a59.2,59.2,0,0,1,9.84-21.65,23,23,0,0,1,9.82-7.4c2.16-.92,4.37-1.75,6.6-2.48a12.78,12.78,0,0,1,8.22-.12c3.38,1.12,6.87,1.92,10.19,3.2a47.609,47.609,0,0,1,7.62,3.9,30.57,30.57,0,0,1,11.94,14.27C340.45,45.32,340.83,50.48,341.12,55.72Z" fill="#13100d"/>
      <path id="Path_6497" data-name="Path 6497" d="M338.18,52.93c-.41-2.11-1-5.74-1.85-9.32-1.54-6.74-6.13-11.09-11.28-14.93a17.17,17.17,0,0,0-3.43-1.91c-2.4-1-4.87-1.86-7.25-2.92a22,22,0,0,0-7.18-2c-.17,0-2-.28-2.12-.28a13.62,13.62,0,0,0-4.1.49,41.8,41.8,0,0,0-4.86,1.71,23.49,23.49,0,0,0-10.66,8.34,60.56,60.56,0,0,0-7.13,14.67,27.64,27.64,0,0,0-1.38,14.58c1.31,6.91,4.4,12.63,9.82,16.94.75.6,1.54,1.17,2.28,1.78a26.14,26.14,0,0,0,10.14,5.3,39.29,39.29,0,0,0,18.6.62,18.16,18.16,0,0,0,8-3.81,33,33,0,0,0,8.05-10.1C336.68,66.52,337.72,60.65,338.18,52.93Z" fill="#fff"/>
      <path id="Path_6498" data-name="Path 6498" d="M336.33,43.61c-1.54-6.74-6.13-11.09-11.28-14.93a17.17,17.17,0,0,0-3.43-1.91c-1.78-.76-3.61-1.42-5.41-2.14.27.48.53,1,.8,1.51,1.74,3.51,2.85,8.24,3.64,13.69.33,2.26.51,3.88.75,6.24a49.145,49.145,0,0,1,.22,5.26c0,.19-.12,2.5-.13,2.71a73.387,73.387,0,0,1-.86,9.22c-.46,3.06-.82,6.24-1.27,9.31-.23,1.54-.5,3.07-.84,4.41a63.283,63.283,0,0,1-3,9.48c.76-.11,1.51-.25,2.27-.42a18.16,18.16,0,0,0,8-3.81,33,33,0,0,0,8.05-10.1c2.88-5.61,3.92-11.48,4.38-19.2C337.77,50.82,337.15,47.19,336.33,43.61Z" fill="#e6e5e5"/>
      <path id="Path_6499" data-name="Path 6499" d="M283.07,28.39c-3.37,4.29-5.53,11.88-7.2,20.68,10.49-7.26,21.8-9.71,32.6-7.78a18.12,18.12,0,0,0-.87-9c3,.61,3.35,5.49,5.76,7.49,6.51,5.41,19.53,5.3,25.9,10.89-1.88-16.38-11.33-27-21.3-30.34A42.67,42.67,0,0,0,300,18.11c-5.08.65-11.65,5.2-17,10.28" fill="#9b9b9a" stroke="#13100d" stroke-linecap="round" stroke-linejoin="round" stroke-width="2.78"/>
      <path id="Path_6500" data-name="Path 6500" d="M256,77.4c-.34-1.44-.72-2.83-1.05-4.21-.19-.65-.34-1.29-.48-1.93-1.39-5.4-4.78-9.06-7.65-11.68-1.92-1.79-4.17-2.53-6.37-3.32l-1.72-.59c-5.55-2.13-11.1-1.54-17,1.83-.52.29-1,.54-1.58.84a9.075,9.075,0,0,1,.2-1.14c.28-1.78.52-3.32,1.77-4.41a3.54,3.54,0,0,0,.86-1.58v-.15c.44-1.38.91-2.82,1.39-4.16a58,58,0,0,0,3.3-12.72,3.469,3.469,0,0,1,.1-1,19.35,19.35,0,0,0,.14-4.75,14.67,14.67,0,0,0-3.54-8.26,31.17,31.17,0,0,0-10.62-7c-1.58-.7-3.11-1.34-4.68-2-2.49-1-5-2.13-7.51-3.22a49.87,49.87,0,0,0-26-4.9h-.43s-10.8.46-16.39,2a8.66,8.66,0,0,0-2.24.89,11.94,11.94,0,0,0-5.31,7c-.71,2.33-1.48,4.6-2.24,7l-.72,2.22c-4.11.85-7.12,3.62-9.79,6.54a27.23,27.23,0,0,0-6.69,14.11,21.1,21.1,0,0,0,.19,6.83,4,4,0,0,0,1.72,2.92,4.34,4.34,0,0,0,3.49.29,10.53,10.53,0,0,0,3.53-1.68c1.2-.89,2.34-1.93,3.44-2.87.48-.4.91-.84,1.39-1.24a5.59,5.59,0,0,0,1.23-1.24v.1a37.62,37.62,0,0,1,.82,4.41c1.53,9.65,4.16,16.48,8.6,22.12a24.69,24.69,0,0,0,8.36,7,2.07,2.07,0,0,0,.34.15,71,71,0,0,0-7.69,14.26c-.53,1.38-1.15,2.77-1.68,4.16-1.05,2.57-2.19,5.19-3.1,7.92-1.63,4.75-3.06,9.65-4.49,14.4l-.72,2.47c-.1.4-.24.8-.34,1.19-.14-.39-.33-.74-.47-1.14-.62-1.53-1.29-3-1.91-4.55-.82-1.93-1.58-3.86-2.39-5.84-1.44-3.61-3-7.33-4.49-10.94-.86-2.08-1.87-4.11-2.87-6-.43-.89-.91-1.78-1.34-2.72-1.15-2.38-2.82-2.77-4.06-2.67s-2.49.14-3.68.24c-3.44.2-7,.45-10.51.84-2.92.35-5.88.9-8.75,1.39-1.33.25-2.63.5-4,.69l-6.74,1.19c-6.16,1.09-12.52,2.23-18.87,2.77-2.25.2-4.54.55-6.69.84-.91.15-1.77.25-2.68.4l-.81.1c-1.39.2-2.82.4-4.25.64-2.25.45-3,1.44-2.82,3.81a11.25,11.25,0,0,0,.52,2.88c.43,1.38.91,2.82,1.58,4.55,1.38,3.71,2.67,7.08,4.06,10.54.48,1.19,1,2.33,1.48,3.47s1,2.27,1.43,3.46l2,5.2c1.29,3.42,2.63,6.93,4.16,10.34a19.25,19.25,0,0,1,1.69,7.13,61.832,61.832,0,0,0,.86,6.64l.15.74a3.36,3.36,0,0,0,3.87,3l1-.15a1.457,1.457,0,0,0,.62-.1c.53-.05,1.1-.15,1.63-.25,1.24-.2,2.53-.34,3.77-.49,2.15-.25,4.3-.45,6.45-.65l5.93-.59a28.31,28.31,0,0,0,6.83,9.8,17.84,17.84,0,0,0,4.45,3c5.87,3.07,12,3.12,17.34,3,1.1-.05,2.15-.15,3.2-.25a9.713,9.713,0,0,1,1.2-.1c.67-.05,1.33-.14,2-.19l1.29-.15c-.2,1.83-.29,3.36-.39,4.85-.19,4-.09,7.92,0,11.78.05,1.24.05,2.47.1,3.71.09,4.7,2,8.42,5.54,10.4a70.454,70.454,0,0,0,7.22,3.61c-.15,1.34-.24,2.72-.39,4.06-.19,2-.43,4-.66,5.94-.34,3.12-.72,6.38-1,9.55-.24,3-.43,6.09-.62,9.06-.14,2.18-.24,4.45-.43,6.68s-.38,4.51-.57,6.68c-.24,2.92-.53,5.89-.72,8.86-.24,4-.43,8-.62,12-.14,3.07-.29,6.19-.48,9.31-.14,2.92-.33,5.89-.52,8.76-.24,3.61-.48,7.37-.67,11.09-.1,2.17-.1,4.4-.15,6.53v4.6c-.05,2.13-.15,4.26-.24,6.34-.1,3-.24,6.14-.29,9.26-.05,4.5.1,11.83.14,16.23l.05,1.73c.05,2,.14,6,.14,6v.25c.24,3.15,1.82,5.28,4.44,6a50.543,50.543,0,0,0,7.42,1.3,6.08,6.08,0,0,0,3-.68,1.331,1.331,0,0,0,.42-.19,3.24,3.24,0,0,0,2.11-3.63,49.721,49.721,0,0,1-.1-5.32v-1.4s.64-4.21.69-6.34c.1-3.61.1-10,.1-13.71,0-2.82-.1-5.69-.15-8.41,0-2.08-.09-4.21-.14-6.29,0-4.35.22-13.07.22-13.07V290.3a140.361,140.361,0,0,1,.44-17.38c.14-1.43.28-2.82.38-4.25a100.871,100.871,0,0,1,2.29-15.94,22.77,22.77,0,0,1,3.73-8,4.22,4.22,0,0,1,1.25-1.24,21.94,21.94,0,0,1,9.18-3c1.39-.2,2.82-.29,4.21-.44,1.2-.1,2.49-.2,3.73-.35a37.41,37.41,0,0,1,15.21,1.19c.82.25,1.68.44,2.59.64a14,14,0,0,1,9.75,7,18.38,18.38,0,0,1,1.87,7.72c.29,6.59.19,13.27.14,19.75v2.13c0,2.28-.09,4.65-.19,6.93-.09,2.08-.09,1.93-.09,4.06-.05,1.83,0,3.66.09,5.44.05,1.34.1,2.68.1,4a33.711,33.711,0,0,1-.24,4.71c-.19,1.38-.43,2.77-.62,4.15s-.48,2.83-.67,4.26c-.39,3.12-.77,6.29-1.15,9.36-.29,2.47-.57,4.95-.91,7.47s-.62,4.95-1,7.38c-.43,3.16-.24,3.81-.62,7.07-.24,2-.43,4.06-.57,6l-.29,3.42a3.44,3.44,0,0,0,1.72,3.66c.19.1.39.25.58.35a7.15,7.15,0,0,0,2.2,1,29.1,29.1,0,0,0,6.5.84,19.439,19.439,0,0,0,6.41-1,6.1,6.1,0,0,0,4.16-4.75,24.9,24.9,0,0,0,.43-3.22v-.69c.15-1.69.34-3.32.53-5,.43-4.11.29-5.74.57-9.95.24-3.71.34-7.48.39-11.09,0-1.58,0-3.22.09-4.8V315.8c0-1.34.05-2.62.14-3.91.15-1.73.34-3.52.53-5.2.33-3,.62-6.09.72-9.2.09-2.58.24-5.25.43-7.83a96.536,96.536,0,0,0,.33-11.28c-.09-2.87.1-5.84.24-8.71.1-1.44.19-2.87.24-4.31,0-1.09.1-2.13.14-3.22.15-3.51.29-7.12.34-10.69.09-4.21.09-8.46.09-12.57V225.76c0-4.95-.14-10.1.24-15.09a9.548,9.548,0,0,0,.05-1.19c1.29-.75,2.54-1.49,3.64-2.18,3.44-2.18,5.26-5,5.5-8.66.09-1,.19-2.08.24-3.07.24-2.87.52-5.89.52-8.81,0-8.71-.05-18.07-.48-27.52-.19-4.71-.67-9.41-1.19-14-.19-1.64-.34-3.27-.53-4.95-.57-6-1.24-12.33-2-19.31a1.32,1.32,0,0,1,.39-1.33,55.7,55.7,0,0,0,7.27-9.75,45.54,45.54,0,0,0,6.88-21l.05-.5C256.64,84.82,256.88,81.11,256,77.4Z"/>
      <path id="Path_6501" data-name="Path 6501" d="M151.38,201.31a91.232,91.232,0,0,1,14.39-2.42c9.7-.69,19.35-.65,29-.45,3.34.05,6.69.55,10,.75,3.59.24,7.17.24,10.75.64,3.35.35,6.65,1,9.94,1.53,2,.35,4,.75,6.07,1.14,1.53.3,2.25.79,2.39,2.33a29.488,29.488,0,0,1,.24,5.79c-.57,7.47-.14,14.95-.19,22.42-.05,6.14-.05,12.28-.14,18.42-.1,4.6-.29,9.25-.48,13.85-.19,4.36-.62,8.77-.48,13.12.24,7.13-.53,11.93-.76,19-.15,4.8-.87,9.55-1.25,14.35-.14,2-.09,4-.19,5.94-.14,5.3-.14,10.6-.48,15.84-.38,5.84-.47,9-1.05,14.85a28.733,28.733,0,0,1-.48,3.71,4.66,4.66,0,0,1-3.2,3.67,21.58,21.58,0,0,1-12.13.2,10.59,10.59,0,0,1-2.44-1.24,2.05,2.05,0,0,1-1-2.18c.28-3.12.52-6.29.9-9.4.67-5.7.86-8.77,1.58-14.46s1.29-11.18,2-16.78c.38-2.82.91-5.59,1.29-8.36a33.509,33.509,0,0,0,.24-4.9c0-3.17-.24-6.29-.19-9.46,0-4.4.28-6.53.33-11,.05-7.32.14-14.65-.14-22a20.06,20.06,0,0,0-2-8.42,15.1,15.1,0,0,0-10.7-7.72,22.237,22.237,0,0,1-2.44-.59,37.56,37.56,0,0,0-15.77-1.24c-2.63.35-5.3.44-7.93.79a24.36,24.36,0,0,0-9.7,3.22,5.75,5.75,0,0,0-1.63,1.63,25.879,25.879,0,0,0-4,8.47c-1.72,6.68-2,13.56-2.72,20.39-.77,7.82-.39,15.64-.34,23.46,0,5.45,0,10.89.05,16.34,0,4.9.29,9.8.29,14.7,0,5.79-.1,14.25-.2,20a54.452,54.452,0,0,0,.1,6.88c.1,1.24-.29,1.83-1.24,2.18a6.88,6.88,0,0,1-2.87.79,47.854,47.854,0,0,1-7.41-1.28c-2.24-.6-3.29-2.43-3.48-4.76-.15-2-.29-4.1-.34-6.13-.09-5.05-.24-12.87-.19-17.92s.38-10.4.53-15.54c.09-3.72,0-7.43.19-11.09.33-6.63.86-13.22,1.19-19.85.38-7.08.62-14.16,1.05-21.24.34-5.19.86-10.34,1.25-15.54s.57-10.49,1-15.74,1.1-10.29,1.62-15.44C150.76,208.89,151.05,205.22,151.38,201.31Zm5.45,152.85c0-1.68-.05-3.11,0-4.55.09-3.56.29-9.85.24-13.41,0-6.54-.24-13.07-.29-19.65-.09-10.6-.09-21.19-.14-31.83a44.232,44.232,0,0,1,0-4.46c.29-4.3.72-8.66,1-13a86.511,86.511,0,0,1,3.24-18.85c1.58-5.45,4.93-9.46,10.37-10.7a136.081,136.081,0,0,1,17.16-2.57,33,33,0,0,1,14.14,2.08,60,60,0,0,1,7.93,2.92,13.61,13.61,0,0,1,6.45,7.13,30.28,30.28,0,0,1,2.11,12c0,2.92,0,5.79-.1,8.71-.09,7.17-.09,12-.24,19.2-.05,2.63-.24,5.2-.28,7.82-.05,1.83.33,3.67.14,5.45-.43,4.7-1.05,9.35-1.63,14.06-.76,5.94-1.57,11.83-2.29,17.77-.86,6.63-1.05,10.64-1.86,17.27-.1.69-.15,1.39-.19,2.13a1.47,1.47,0,0,0,1.1,1.76h.09a39.68,39.68,0,0,0,7.22.94c3.53,0,5.39-1.63,6-5A126.249,126.249,0,0,0,228.36,336c.43-5.05.33-10.1.48-15.15,0-2,.14-3.91.28-5.89.29-3.26.72-6.58,1-9.85.19-3,.1-6,.19-9.06.14-3.41.43-4.55.38-8,0-5.74.29-11.53.48-17.27.19-5.1.48-10.2.62-15.34.1-3-.09-5.94-.05-8.91,0-6.34.1-12.63.1-19,0-2.92-.14-5.79-.14-8.71,0-4.21.14-8.37.24-12.58a1.6,1.6,0,0,0-1.58-1.88c-1.48-.24-3-.64-4.49-.89-3.68-.54-7.41-1.14-11.09-1.48q-8-.75-15.91-1c-5.64-.25-11.28-.3-16.87-.3-3.2,0-6.4.35-9.6.5-6.12.29-12.28.34-18.35,2.17-.19,2.08-.38,4.16-.57,6.29-.67,6.43-1.39,12.87-2,19.3-.53,5.8-.86,11.64-1.29,17.48-.24,3-.58,5.94-.77,9-.38,6.68-.71,13.41-1,20.09-.14,3.32-.24,6.64-.43,9.9-.19,2.92-.62,5.79-.76,8.71-.43,8.67-.91,17.33-1,26-.09,9.06.34,20.89.53,30a7.68,7.68,0,0,0,.48,2.32,1.83,1.83,0,0,0,.81,1.09,12.9,12.9,0,0,0,8.84.74Z"/>
      <path id="Path_6502" data-name="Path 6502" d="M156.73,354.16a13.18,13.18,0,0,1-8.84-.74,2.12,2.12,0,0,1-.81-1.09,10.179,10.179,0,0,1-.48-2.32c-.19-9.06-.62-20.89-.52-30,.09-8.66.62-17.32,1-26,.14-2.92.57-5.79.77-8.71.23-3.31.28-6.63.43-9.9.33-6.68.66-13.41,1.05-20.09.19-3,.52-5.94.76-9,.43-5.84.77-11.64,1.29-17.48.57-6.43,1.29-12.87,2-19.3.19-2.13.38-4.21.57-6.29,6.07-1.78,12.24-1.88,18.35-2.17,3.2-.15,6.41-.45,9.61-.5,5.64,0,11.27,0,16.86.3q8,.3,15.92,1c3.72.34,7.4.94,11.08,1.48,1.53.2,3,.65,4.49.89,1.1.2,1.63.7,1.58,1.88-.1,4.21-.24,8.37-.24,12.58,0,2.92.14,5.79.14,8.71,0,6.33-.09,12.62-.09,19,0,3,.14,5.94,0,8.91-.15,5.09-.43,10.19-.62,15.34-.2,5.74-.48,11.53-.48,17.27,0,3.47-.24,4.61-.38,8-.15,3-.05,6-.2,9.06-.19,3.32-.66,6.59-.95,9.85-.14,1.93-.24,3.91-.29,5.89-.14,5.05-.05,10.1-.48,15.15-.43,5.39-.62,8.12-1.48,13.51-.57,3.37-2.43,5-6,5a39.678,39.678,0,0,1-7.22-.94,1.48,1.48,0,0,1-1.21-1.68s0-.07,0-.1a17.022,17.022,0,0,1,.19-2.13c.81-6.63,1-10.64,1.86-17.27.77-5.94,1.58-11.83,2.3-17.77.57-4.66,1.19-9.36,1.62-14.06.19-1.78-.19-3.62-.14-5.45.05-2.62.24-5.19.29-7.82.14-7.17.14-12,.24-19.2,0-2.92,0-5.79.09-8.71a30.27,30.27,0,0,0-2.1-12,13.89,13.89,0,0,0-6.45-7.13c-2.49-1.29-5.31-1.93-7.93-2.92a33,33,0,0,0-14.15-2.08,125.835,125.835,0,0,0-17.15,2.57c-5.45,1.19-8.79,5.25-10.37,10.7a83.619,83.619,0,0,0-3.25,18.85c-.24,4.31-.67,8.67-1,13-.09,1.49,0,3,0,4.46q.08,15.88.15,31.83c0,6.53.23,13.06.28,19.65,0,3.56-.14,9.85-.24,13.41C156.69,351.05,156.73,352.48,156.73,354.16Z" fill="#ff8300"/>
      <path id="Path_6503" data-name="Path 6503" d="M230.41,204.38c-1.48-.24-3-.64-4.49-.89-3.68-.54-7.4-1.14-11.08-1.48l-1.82-.15c4,7.22,8.32,21.18-3.1,38.11.14.1.33.15.47.25a13.61,13.61,0,0,1,6.45,7.13,30.27,30.27,0,0,1,2.11,12c0,2.93,0,5.8-.1,8.72-.09,7.17-.09,12-.24,19.2-.05,2.63-.24,5.2-.28,7.82-.05,1.83.33,3.67.14,5.45-.43,4.7-1.05,9.35-1.63,14.05-.76,5.94-1.57,11.84-2.29,17.77-.86,6.64-1.05,10.65-1.86,17.28-.1.69-.15,1.39-.19,2.13a1.47,1.47,0,0,0,1.1,1.76h.09a39.68,39.68,0,0,0,7.22.94c3.53-.05,5.39-1.63,6-5A126.247,126.247,0,0,0,228.36,336c.43-5.05.33-10.1.48-15.15,0-2,.14-3.91.28-5.89.29-3.27.72-6.58,1-9.85.19-3,.1-6,.19-9.06.14-3.41.43-4.55.38-8,0-5.74.29-11.53.48-17.27.19-5.1.48-10.2.62-15.34.1-3-.09-5.94-.05-8.91,0-6.34.1-12.63.1-19,0-2.92-.14-5.79-.14-8.71,0-4.21.14-8.37.24-12.58C232.06,205.12,231.51,204.58,230.41,204.38Z" fill="#de7816"/>
      <path id="Path_6504" data-name="Path 6504" d="M155.64,231.41a12.509,12.509,0,0,1,2.24-.74,4.6,4.6,0,0,0,3-1.54q1.35-1.49,2.82-2.82a21,21,0,0,1,2-1.44c.14.1.24.2.38.3-.09.4,0,.94-.24,1.19-1.38,1.48-2.77,2.92-4.25,4.31a5.38,5.38,0,0,1-5.95.74Z"/>
      <path id="Path_6505" data-name="Path 6505" d="M157,152.06a26.36,26.36,0,0,0-4.35-.2c-4.92.15-9.89.35-14.81.6l-2.63.15V172.7a19.06,19.06,0,0,0,7.89-2.37,39.49,39.49,0,0,0,13.09-12.28l3.15-4.9A11.291,11.291,0,0,0,157,152.06Z"/>
      <path id="Path_6506" data-name="Path 6506" d="M135.22,155v15.55a20,20,0,0,0,7.22-2.58c3-1.83,5.44-4.31,8-6.63a22.61,22.61,0,0,0,4.78-7C148.43,154.34,141.82,154.58,135.22,155Z" fill="#5c5957"/>
      <path id="Path_6507" data-name="Path 6507" d="M135.22,155v15.55a20,20,0,0,0,7.22-2.58c3-1.83,5.44-4.31,8-6.63a22.61,22.61,0,0,0,4.78-7C148.43,154.34,141.82,154.58,135.22,155Z" fill="#454240"/>
      <path id="Path_6508" data-name="Path 6508" d="M191,216.37h-7.78a38.23,38.23,0,0,1-10.56-1.93c-5.93-1.69-11.95-3.17-17.78-5.15a73.479,73.479,0,0,1-12.09-5.5c-3.25-1.88-4.73-5.24-4.82-9.15-.1-5.15-.34-10.3,0-15.4.33-6.18,1.29-12.37,1.72-18.56a113.059,113.059,0,0,1,2-12.72c.58-3,1.48-5.89,2.3-8.86,1.43-5.15,2.86-10.3,4.39-15.39,1.67-5.65,3.3-11.29,5.16-16.83,1.39-4.06,3.2-8,4.78-12a67.391,67.391,0,0,1,10.35-17.73c4.25-5.24,9.27-9.6,15.72-11.63a31.911,31.911,0,0,1,6.54-.89c2.2-.2,4.4-.2,6.6-.35,4.11-.24,8.17-.49,12.28-.89a20.439,20.439,0,0,0,4.2-1.09,49.139,49.139,0,0,0,8-3.26c5-2.82,10.22-3.86,15.82-1.74,2.62,1,5.44,1.64,7.64,3.62,3.3,3,6.07,6.43,7.22,10.94L254.33,78c.86,3.67.58,7.38.34,11A44.59,44.59,0,0,1,248,109.4a55.419,55.419,0,0,1-7.07,9.5,2.79,2.79,0,0,0-.77,2.52l2,19.31c.62,6.28,1.43,12.52,1.67,18.81.38,9.16.43,18.31.48,27.47,0,3.91-.48,7.87-.77,11.78-.24,3.42-2.05,5.74-4.82,7.52a42.29,42.29,0,0,1-9.61,4.9,84.859,84.859,0,0,1-19.21,4c-6.21.5-12.47.84-18.73,1.29C191,216.47,191,216.42,191,216.37Zm-50.79-24.31c-.38,4.65.91,7.52,3.92,9.25a54.642,54.642,0,0,0,8.17,4.16c5.3,1.93,10.75,3.52,16.15,5.15,2.34.69,4.78,1,7.12,1.68A39.369,39.369,0,0,0,186,213.49c3.72,0,7.45-.3,11.13-.25a68.16,68.16,0,0,0,11.42-.69c3.25-.5,6.5-.79,9.7-1.49,2.91-.64,5.69-1.73,8.55-2.52a33.19,33.19,0,0,0,11.47-5.74,5.32,5.32,0,0,0,2.29-3.91c.29-2.82.72-5.64.91-8.47.24-3.91.38-7.87.38-11.78,0-3.21-.23-6.43-.38-9.65-.14-4.26-.28-8.46-.52-12.72-.19-3.71-.48-7.37-.77-11-.14-2-.43-3.91-.57-5.89-.34-3.86-.43-7.72-1-11.53-1.39-9.11-2.58-18.22-5.21-27.08-1.63-5.34-3-10.74-4.45-16.13-.19-.8-.24-1.59-.38-2.43,2.1-.25,2.34-.15,2.77,1.39.67,2.52,1.34,5,2,7.52,1.53,6,3.11,12,4.59,18,.52,2.18.95,4.35,1.53,6.88a24.044,24.044,0,0,0,1.81-1.83,59.141,59.141,0,0,0,5.78-8.47,44.85,44.85,0,0,0,5.4-19.35,37.06,37.06,0,0,0-1.38-11.43,26.829,26.829,0,0,0-5.26-10.7c-3.34-4.1-8.22-4.9-12.95-5.74-3.53-.64-6.74,1.14-9.7,2.87a35.06,35.06,0,0,1-12.71,4.36c-4.82.64-9.75.74-14.62,1.09-2.2.15-4.35.39-6.55.39-4.34,0-7.88,2.13-11.32,4.61-7.45,5.39-12.09,13.06-16.15,21.18a121.132,121.132,0,0,0-7.17,18.42c-2.24,7.12-4.54,14.25-6.59,21.43-1.82,6.28-3.35,12.62-4.88,19-.62,2.57-.9,5.19-1.38,8.11,1.62,0,2.91-.1,4.15,0,3,.25,5.93.6,8.84.89,3.64.35,7.27.7,10.9,1.09,2.63.3,5.3.6,7.93,1,2.92.45,5.83,1,8.75,1.44,3.58.54,7.21,1,11,1.48-1.62,13.57,2.15,25.89,7.31,38.12-2.82.94-5.4,1.83-8.31,1.68a103.352,103.352,0,0,1-17.44-2c-6.55-1.38-13.28-2-19.54-4.7-3.11-1.34-6.22-2.62-9.27-4-1.77-.94-3.68-1.89-5.86-2.88Zm51.22-25.2c-4.63-.79-9.17-1.63-13.76-2.27-5.59-.8-11.18-1.54-16.77-2.18-4.25-.5-8.46-.79-12.71-1-2-.15-4.11,0-6,0-1.43,3.22-2.72,24.1-1.91,29.1,2.1,1,4.25,2.08,6.35,3.17a74,74,0,0,0,13.81,5.59A108,108,0,0,0,173,201.76c4.2.69,8.55,1.39,12.85,1.93a52,52,0,0,0,8,.44,25.77,25.77,0,0,0,4.83-.94c-1.91-6.13-3.87-11.92-5.5-17.81s-1.05-12.23-1.72-18.52Z"/>
      <path id="Path_6509" data-name="Path 6509" d="M140.25,192.06c2.15,1,4.06,1.93,6,2.82,3.06,1.34,6.21,2.62,9.27,4,6.26,2.72,13,3.32,19.54,4.7a109,109,0,0,0,17.45,2c2.86.15,5.49-.79,8.31-1.68-5.16-12.23-8.94-24.55-7.31-38.12-3.82-.49-7.41-.94-11-1.48-2.91-.45-5.83-1-8.74-1.44-2.63-.39-5.31-.69-7.94-1-3.63-.39-7.26-.74-10.89-1.09-3-.29-5.88-.64-8.84-.89-1.29-.1-2.58,0-4.16,0,.48-2.87.77-5.54,1.39-8.11,1.53-6.34,3.06-12.73,4.87-19,2.06-7.18,4.35-14.31,6.6-21.43A119.262,119.262,0,0,1,161.94,93c4.07-8.12,8.75-15.79,16.15-21.18,3.45-2.48,6.93-4.56,11.33-4.61,2.2,0,4.35-.24,6.55-.39,4.87-.35,9.79-.45,14.62-1.09a35.12,35.12,0,0,0,12.71-4.36c3-1.68,6.16-3.51,9.7-2.87,4.68.84,9.6,1.64,12.95,5.74a26.68,26.68,0,0,1,5.25,10.7,38.52,38.52,0,0,1,1.39,11.43,45.18,45.18,0,0,1-5.4,19.35,61.422,61.422,0,0,1-5.78,8.47,22.45,22.45,0,0,1-1.82,1.83c-.57-2.53-1-4.7-1.53-6.88q-2.295-9-4.58-18c-.67-2.52-1.34-5-2-7.52-.43-1.54-.62-1.69-2.77-1.39a13.358,13.358,0,0,0,.38,2.43c1.43,5.39,2.87,10.79,4.44,16.13,2.68,8.86,3.83,18,5.21,27.08.57,3.81.67,7.67,1,11.53.2,2,.43,3.91.58,5.89.28,3.67.57,7.38.76,11,.24,4.26.34,8.46.53,12.72.14,3.22.38,6.44.38,9.65,0,3.91-.14,7.87-.38,11.78-.19,2.83-.62,5.65-.91,8.47a5.35,5.35,0,0,1-2.29,3.91,34.55,34.55,0,0,1-11.47,5.74c-2.87.79-5.69,1.88-8.55,2.52-3.21.7-6.45,1-9.7,1.49a68.288,68.288,0,0,1-11.42.69c-3.73-.05-7.46.3-11.14.25a41.29,41.29,0,0,1-10.41-1.19c-2.35-.64-4.78-1-7.12-1.68-5.4-1.63-10.85-3.22-16.15-5.15a55.15,55.15,0,0,1-8.18-4.16C141.16,199.58,139.87,196.71,140.25,192.06Zm92.7-113c1.19.55,2,.65,2.72.1a35.659,35.659,0,0,0,5.4-3.86c1.72-1.73,3-4.06,2-6.63-1.15-2.77-3.2-4.75-6.45-4.8a18,18,0,0,0-10.46,3.56c-5.31,3.52-10.9,6-17.3,6.09a5.26,5.26,0,0,0-1.15.35c.05,1.18.81,1,1.34,1A26.29,26.29,0,0,0,218,73.21a48.42,48.42,0,0,0,9.7-5.19,15.46,15.46,0,0,1,9.5-2.83c3.25.15,5.5,3.86,4.4,7-.86,2.43-2.68,3.76-4.68,5-1.1.65-2.34,1.14-3.92,1.88Z" fill="#fff"/>
      <path id="Path_6510" data-name="Path 6510" d="M191.47,166.86c.67,6.29.05,12.53,1.68,18.47s3.58,11.68,5.49,17.82a33.1,33.1,0,0,1-4.82.94,53.172,53.172,0,0,1-8-.45c-4.3-.54-8.61-1.19-12.86-1.93a118.771,118.771,0,0,1-12.56-2.52,74.432,74.432,0,0,1-13.81-5.6c-2.11-1.09-4.26-2.13-6.36-3.17-.81-5,.48-25.88,1.91-29.1,2,0,4-.1,6,0,4.26.3,8.51.59,12.71,1,5.59.64,11.18,1.34,16.77,2.18C182.3,165.23,186.86,166.07,191.47,166.86Z" fill="#fff"/>
      <path id="Path_6511" data-name="Path 6511" d="M233,79.05a42.551,42.551,0,0,0,4-1.93c2-1.19,3.82-2.57,4.68-5,1.1-3.11-1.15-6.83-4.4-7A15.62,15.62,0,0,0,227.69,68a48.148,48.148,0,0,1-9.7,5.19,26.23,26.23,0,0,1-8.93,1.64c-.58,0-1.29.14-1.34-1a4.25,4.25,0,0,1,1.15-.35c6.4-.1,12-2.57,17.29-6.09,3.16-2.08,6.6-3.61,10.47-3.56,3.3,0,5.3,2,6.45,4.8,1,2.57-.19,4.9-2,6.63a37.56,37.56,0,0,1-5.4,3.86C234.91,79.7,234.17,79.6,233,79.05Z"/>
      <path id="Path_6512" data-name="Path 6512" d="M218.28,211.06c2.91-.64,5.69-1.73,8.55-2.52a33.19,33.19,0,0,0,11.47-5.74,5.32,5.32,0,0,0,2.29-3.91c.29-2.82.72-5.64.91-8.47.24-3.91.38-7.87.38-11.78,0-3.21-.23-6.43-.38-9.65-.14-4.26-.28-8.46-.52-12.72-.19-3.71-.48-7.37-.77-11-.14-2-.43-3.91-.57-5.89-.34-3.86-.43-7.72-1-11.53-1.39-9.11-2.58-18.22-5.21-27.08-1.63-5.34-3-10.74-4.45-16.13-.19-.8-.24-1.59-.38-2.43,2.1-.25,2.34-.15,2.77,1.39.67,2.52,1.34,5,2,7.52,1.53,6,3.11,12,4.59,18,.52,2.18.95,4.35,1.53,6.88a24.044,24.044,0,0,0,1.81-1.83,59.138,59.138,0,0,0,5.78-8.47,44.85,44.85,0,0,0,5.4-19.35,37.06,37.06,0,0,0-1.38-11.43,26.83,26.83,0,0,0-5.26-10.7c-3.34-4.1-8.22-4.9-12.95-5.74-3.53-.64-6.74,1.14-9.7,2.87a35.06,35.06,0,0,1-12.71,4.36,8.967,8.967,0,0,0-1.62.2c.71,2.47,1.43,5,2,7.42,5.5-.54,10.42-2.82,15.1-5.94,3.15-2.08,6.6-3.61,10.47-3.56,3.29,0,5.3,2,6.45,4.8,1.05,2.57-.19,4.9-2,6.63a38.131,38.131,0,0,1-5.4,3.86c-.77.5-1.53.4-2.73-.1a42.549,42.549,0,0,0,4-1.93c2-1.18,3.82-2.57,4.68-5,1.1-3.11-1.14-6.83-4.39-7a15.6,15.6,0,0,0-9.51,2.83,48.42,48.42,0,0,1-9.7,5.19,23.75,23.75,0,0,1-6.69,1.49c12.71,52.47,2.48,115.43-2,137.7a74.24,74.24,0,0,0,9.14-1.24Z" fill="#e6e5e5"/>
      <path id="Path_6513" data-name="Path 6513" d="M148.88,43.76A9.26,9.26,0,0,0,145.2,46c-1.58,1.33-3.11,2.82-4.78,4.06a10.17,10.17,0,0,1-3.1,1.48c-1.87.55-3.06-.1-3.4-2.08a18.63,18.63,0,0,1-.19-6.28,26.08,26.08,0,0,1,6.36-13.37c2.72-3,5.73-5.69,9.84-6.23,1.1-3.42,2.2-6.79,3.25-10.15a10.36,10.36,0,0,1,4.68-6.14,8,8,0,0,1,1.91-.74,67.61,67.61,0,0,1,16.11-2A60,60,0,0,1,187,4.9a57.26,57.26,0,0,1,14.38,4.41c4,1.83,8.13,3.47,12.19,5.25a29,29,0,0,1,10.13,6.68,12.58,12.58,0,0,1,3.15,7.42,25.839,25.839,0,0,1-.24,5.4c-.57,5.79-2.91,11.09-4.63,16.58a2.55,2.55,0,0,1-.48,1.09c-2.1,1.88-2,4.6-2.53,7a35,35,0,0,1-7.89,15,44.71,44.71,0,0,1-4.63,4.9c-6.12,5.39-13.24,7.08-21.07,6a62.15,62.15,0,0,1-19.55-6.24A23.28,23.28,0,0,1,158,71.78c-4.92-6.34-7.07-13.66-8.32-21.44A63.518,63.518,0,0,1,148.88,43.76Zm68.62,7.77c-3.25-1.44-6.07-2.77-9-3.86s-6.26-2-9.36-3.07c-1-.35-1.44.2-2.06.59a27.55,27.55,0,0,1-9.6,3.62,41.72,41.72,0,0,1-12.43.34,4.08,4.08,0,0,1-4-3.11c-.62-2-1.29-4.21-2-6.29-.57-1.78-1.19-2.28-3-2.18-1.43,0-2.87.4-4.35.4-3-.1-5.64,1.09-8.27,2.47A2.18,2.18,0,0,0,152,42.37a48.9,48.9,0,0,0-.29,5.89,49.59,49.59,0,0,0,4.5,16.54,21.83,21.83,0,0,0,6.35,8.51,43.539,43.539,0,0,0,8.17,4.6A49.21,49.21,0,0,0,179,80.64c4.25,1.18,8.46,2,12.81,1.38,4.73-.69,9.22-2.13,12.75-5.74,1.44-1.44,2.73-3,4.11-4.41a32,32,0,0,0,7.55-13.56,47.621,47.621,0,0,0,1.22-6.78ZM153,22.44a66.783,66.783,0,0,1,7.35.4c4.5.69,8.94,1.43,13.14,3.41,2.87,1.34,5.93,2.38,8.89,3.47,2.51.91,4.05,3.21,6.82,3.81a12.32,12.32,0,0,1,8,6.53c1.63,3,4,3.79,6.41,4.71,3.3,1.18,6.64,2.17,9.94,3.31,1.91.64,3.77,1.49,5.83,2.28,2.53-6.63,4.58-13.07,4.82-19.9a10.46,10.46,0,0,0-3.15-7.87c-2.53-2.57-5.78-4-8.89-5.64-2.2-1.19-4.59-2-6.93-3-1.81-.79-3.68-1.44-5.49-2.28a39.71,39.71,0,0,0-11-3.61c-2.25-.3-4.54-.55-6.83-.65A76,76,0,0,0,161,9.23a7.24,7.24,0,0,0-4.83,4A18.6,18.6,0,0,0,155,15.81C154.31,17.94,153.69,20.16,153,22.44Zm43.48,20.89a21.362,21.362,0,0,0-1.44-1.74,55.092,55.092,0,0,0-9.15-7c-2.15-1.34-4.15-3-6.45-3.91-4.25-1.68-8.6-3-13-4.36a47,47,0,0,0-5.26-.94,1.46,1.46,0,0,0,.48.94c1.81,1.54,3.63,3,5.35,4.61,2,1.83,2.92,4.4,3.82,6.88a45.658,45.658,0,0,1,1.87,6.83,3.3,3.3,0,0,0,3.48,3c5.64.34,11.23.1,16.44-2.43,1.24-.54,2.39-1.13,3.82-1.87Zm-60,6a19.587,19.587,0,0,0,2.34-1.58c2.25-1.78,4.35-3.66,6.64-5.3a58.9,58.9,0,0,1,6-3.66,19.81,19.81,0,0,1,5.21-2.28c3.44-.69,7-.89,10.66-1.33a18.71,18.71,0,0,0-6-6.49,13.23,13.23,0,0,0-7.7-2.52,11.26,11.26,0,0,0-6.59,1.23c-5.54,3.27-8.89,8.27-10.47,14.56a14.17,14.17,0,0,0-.16,7.37Z"/>
      <path id="Path_6514" data-name="Path 6514" d="M217.47,51.88a63.214,63.214,0,0,1-1.1,6.63,32,32,0,0,1-7.55,13.56c-1.38,1.44-2.72,3-4.11,4.41-3.53,3.61-8,5-12.75,5.74-4.4.64-8.61-.2-12.81-1.38a58.231,58.231,0,0,1-8.22-2.73,43.54,43.54,0,0,1-8.17-4.6A22.71,22.71,0,0,1,156.4,65a49.81,49.81,0,0,1-4.49-16.54,48.9,48.9,0,0,1,.29-5.89,2.26,2.26,0,0,1,1.43-1.93c2.58-1.38,5.21-2.57,8.27-2.47,1.43,0,2.87-.3,4.35-.4,1.81-.1,2.39.4,3,2.18.67,2.08,1.29,4.21,2,6.29a4.08,4.08,0,0,0,4,3.11A41.77,41.77,0,0,0,187.61,49a27.55,27.55,0,0,0,9.6-3.62c.62-.39,1.15-.94,2.06-.59,3.1,1.09,6.26,1.93,9.36,3.07C211.4,49.06,214.22,50.44,217.47,51.88Z" fill="#a09d9c"/>
      <path id="Path_6515" data-name="Path 6515" d="M152.29,22.08c.67-2.28,1.34-4.5,2.06-6.73a12.341,12.341,0,0,1,1.14-2.57,7.38,7.38,0,0,1,4.83-4A76,76,0,0,1,181.2,6.93c2.29.1,4.54.35,6.83.65a36.59,36.59,0,0,1,11,3.61c1.82.84,3.68,1.54,5.5,2.28,2.29,1,4.68,1.83,6.93,3,3.1,1.63,6.35,3.07,8.88,5.64a10.68,10.68,0,0,1,3.2,7.89c-.24,6.83-2.3,13.27-4.83,19.9-2.05-.79-3.92-1.63-5.83-2.28-3.3-1.14-6.64-2.13-9.94-3.31a11.87,11.87,0,0,1-5.11-2.88,49.741,49.741,0,0,0-11.47-9.25c-1.58-.89-2.87-2.28-4.63-2.92a92,92,0,0,1-8.89-3.47c-4.21-2-8.65-2.72-13.14-3.41C157.36,22.13,155,22.23,152.29,22.08Z" fill="#e6e5e5"/>
      <path id="Path_6516" data-name="Path 6516" d="M212.88,47.67c1.91.64,3.78,1.48,5.83,2.27,2.53-6.63,4.59-13.06,4.83-19.9a10.43,10.43,0,0,0-3.16-7.87c-2.53-2.57-5.78-4-8.88-5.64-2.2-1.19-4.59-2-6.93-3-1-.44-2-.84-3.06-1.23A82.42,82.42,0,0,1,203,44.45C206.33,45.59,209.63,46.58,212.88,47.67Z" fill="#cecccc"/>
      <path id="Path_6517" data-name="Path 6517" d="M195.77,43.07c-1.43.74-2.58,1.28-3.72,1.83-5.26,2.52-10.8,2.77-16.44,2.42a3.36,3.36,0,0,1-3.49-3,42.419,42.419,0,0,0-1.86-6.84c-.91-2.47-1.86-5-3.82-6.88-1.72-1.63-3.59-3.06-5.36-4.6a1.3,1.3,0,0,1-.47-.94,46.941,46.941,0,0,1,5.25.94c4.35,1.34,8.75,2.67,13,4.36,2.29.94,4.3,2.57,6.45,3.91a54.81,54.81,0,0,1,9.13,7C194.77,41.73,195.11,42.28,195.77,43.07Z" fill="#e6e5e5"/>
      <path id="Path_6518" data-name="Path 6518" d="M135.81,49.35A14.07,14.07,0,0,1,136,42c1.58-6.29,4.92-11.29,10.46-14.55,2.06-1.24,4.26-1.29,6.6-1.24a13.19,13.19,0,0,1,7.69,2.52,18.7,18.7,0,0,1,6,6.49c-3.67.44-7.21.64-10.65,1.33a19.53,19.53,0,0,0-5.21,2.28,51.379,51.379,0,0,0-6,3.66c-2.29,1.64-4.44,3.57-6.64,5.3a21.333,21.333,0,0,1-2.44,1.56Z" fill="#b6b4b3"/>
      <path id="Path_6519" data-name="Path 6519" d="M208.05,72.07a32,32,0,0,0,7.55-13.56,52.392,52.392,0,0,0,1.1-6.63c-3.25-1.44-6.07-2.77-9-3.86-1.62-.6-3.3-1.14-5-1.64a79.64,79.64,0,0,1-16.44,36.09,23.42,23.42,0,0,0,4.88-.15c4.73-.69,9.22-2.13,12.76-5.74C205.38,75,206.67,73.51,208.05,72.07Z" fill="#898584"/>
      <path id="Path_6520" data-name="Path 6520" d="M208.77,39.75c0-2.23,1.91-4.56,3.73-4.61,2.48,0,5.11,2.38,5.11,4.71,0,3-1.77,5.14-4.16,5.09a4.77,4.77,0,0,1-4.68-5.19Zm1.33.19c0,2.13,1.29,3.67,3,3.67s3-1.44,3.06-3.62a3.31,3.31,0,0,0-3.06-3.51h-.19c-1.69.05-2.82,1.44-2.82,3.47Z"/>
      <path id="Path_6521" data-name="Path 6521" d="M210.11,40c0-2.08,1.1-3.47,2.87-3.47a3.37,3.37,0,0,1,3.25,3.45V40c0,2.23-1.25,3.61-3.06,3.61S210.16,42.08,210.11,40Z" fill="#ff8300"/>
      <path id="Path_6522" data-name="Path 6522" d="M214.7,28.61a2.34,2.34,0,0,1-2.34,1.79,2.8,2.8,0,0,1-2-2.92c.33-1.44,1.43-2.28,2.62-1.93a2.4,2.4,0,0,1,1.72,2.9Z"/>
      <path id="Path_6523" data-name="Path 6523" d="M207.05,31.83c1,1.33.81,3.56-.24,4.4-1.43,1.14-4,.94-5-.44-1.25-1.74-1.15-3.81.28-4.9a3.39,3.39,0,0,1,4.86.78.911.911,0,0,1,.1.16Z"/>
      <path id="Path_6524" data-name="Path 6524" d="M205.9,32.48a1.981,1.981,0,1,1-3.08,2.47.858.858,0,0,1-.07-.1,1.986,1.986,0,1,1,3.15-2.37Z" fill="#5c5957"/>
      <path id="Path_6525" data-name="Path 6525" d="M194.72,129.15a9.291,9.291,0,0,1-1.91-.85c-2-1.38-3.53-.54-5.21.7-3.58,2.72-6.16,6.53-9,9.95-1.38,1.68-2.58,2-4.44.89-1.34-.84-2.63-1.79-3.92-2.78a1.66,1.66,0,0,1-.57-2.12,64.432,64.432,0,0,1,3.44-7.43c2.77-4.45,5.68-8.76,8.74-13a52,52,0,0,1,9.18-9.85c3.39-2.72,7.16-3.12,11.23-1.78a30.47,30.47,0,0,1,8.74,3.91,30.15,30.15,0,0,1,7.64,8.27,23.74,23.74,0,0,1,2.44,5.29,4.09,4.09,0,0,1-.24,2.92c-2.48,5.2-6.16,8.91-11.94,9.85a13.67,13.67,0,0,1-7.6-1c-2.25-.89-4.49-2-6.69-3C194.68,129.24,194.68,129.19,194.72,129.15ZM176,138c1.15-1.49,2.29-2.88,3.39-4.26a39.9,39.9,0,0,1,6.64-6.73c1.77-1.44,3.49-2.53,5.83-1.44,1,.45,2,.74,3,1.19a78.567,78.567,0,0,0,7.79,3.37,12.21,12.21,0,0,0,5.78.59c4.2-.74,7.26-3.42,9.46-7.13a4.37,4.37,0,0,0,.33-4.26,25.85,25.85,0,0,0-8.31-10.19A24.34,24.34,0,0,0,199.79,105a9,9,0,0,0-7.55,1.93,61.309,61.309,0,0,0-6.31,6.48,50.177,50.177,0,0,0-4.25,5.85c-2.73,4.15-5.54,8.31-8,12.67-2.2,3.86-2,4.06,2.34,6Z"/>
      <path id="Path_6526" data-name="Path 6526" d="M176,138c-4.3-2-4.54-2.23-2.34-6.14,2.44-4.36,5.26-8.52,8-12.67a64.5,64.5,0,0,1,4.25-5.84,56.094,56.094,0,0,1,6.31-6.49,9,9,0,0,1,7.55-1.93,25,25,0,0,1,10.13,4.11,26.19,26.19,0,0,1,8.31,10.2,4.36,4.36,0,0,1-.33,4.25c-2.2,3.76-5.26,6.44-9.46,7.13a12.75,12.75,0,0,1-5.78-.59c-2.68-.89-5.21-2.23-7.79-3.37-1-.45-2-.69-3-1.19-2.34-1.09-4.06,0-5.83,1.44a41.461,41.461,0,0,0-6.64,6.73C178.33,135.13,177.23,136.57,176,138Z" fill="#a09d9c"/>
      <path id="Path_6527" data-name="Path 6527" d="M218.23,119.34a25.79,25.79,0,0,0-8-9.94,92.28,92.28,0,0,0-21.36,15.93,4,4,0,0,1,3,.25c.95.45,2,.74,3,1.19a78.576,78.576,0,0,0,7.79,3.37,12.21,12.21,0,0,0,5.78.59c4.2-.69,7.26-3.42,9.46-7.13a4.27,4.27,0,0,0,.33-4.26Z" fill="#898584"/>
      <path id="Path_6528" data-name="Path 6528" d="M203.28,140.63c-.1,2.33-.24,4.85-.29,7.37,0,1.29-.48,1.84-1.72,2-3.39.4-6.79.89-10.18,1.39-1.57.2-3.15.59-4.73.64-3.73.1-7.4,0-11.13.05-2.25.05-4.49.35-6.79.6-4.68.49-9.36,1.23-14.09,1.48-5.64.3-11.28.2-16.92.3-1.24,0-2.44.15-3.68.2-6.07.29-12.18.44-18.25.89-3.73.25-7.41,1-11.09,1.48-5.44.65-10.94,1.14-16.39,1.69-1.81.19-3.63.49-5.44.74-.53.05-1,.15-1.58.25A1.89,1.89,0,0,1,78.71,158c-.44-2.4-.76-4.83-1-7.27A20.91,20.91,0,0,0,75.94,143c-2.3-5-4.07-10.29-6.12-15.44-.91-2.33-2-4.6-2.92-6.93-1.38-3.46-2.72-7-4-10.49-.57-1.49-1.1-3-1.53-4.46a16,16,0,0,1-.48-2.57c-.09-1.63.1-1.93,1.68-2.23s3.29-.54,5-.74c3.1-.45,6.16-1,9.27-1.24,8.64-.74,17.15-2.52,25.7-4,4.21-.69,8.41-1.58,12.62-2.08,4.68-.54,9.46-.74,14.14-1,1.34-.1,2.1.7,2.68,1.88,1.38,2.88,2.86,5.75,4.15,8.72,2.35,5.54,4.59,11.18,6.88,16.73,1.72,4.2,3.54,8.36,5.21,12.62.72,1.88,1.77,2.67,3.78,2.52,4.73-.34,9.41-.49,14.14-.69,3.2-.15,6.36-.2,9.56-.35s6.07-.44,9.08-.49c3.34,0,6.69.2,10,.3,1.29.05,2.58,0,3.82.14a10.89,10.89,0,0,1,3.06.8,2.31,2.31,0,0,1,1.15,1.53,33.479,33.479,0,0,1,.47,5.1Zm-61.93-3.91c-1-2.38-1.72-4.51-2.63-6.54q-5-10.91-9.94-21.82c-1-2.23-2.15-4.36-3.25-6.54-1-2-2.1-4-3.25-5.94a2.72,2.72,0,0,0-1.67-.94,4.6,4.6,0,0,0-1.81,0c-7,1-14.1,1.83-21,3.17a166.75,166.75,0,0,1-16.53,2.47c-3.92.4-7.84,1.09-11.76,1.64-2,.29-4.06.54-6.06.84.24,3.86,13.23,37.22,16,41.38,3.25-.5,6.45-.94,9.7-1.44,4.06-.64,8.13-1.23,12.19-1.93s8.26-1.53,12.42-2.08c3.92-.54,7.89-.94,11.8-1.23,5.26-.45,10.47-.75,15.82-1.09ZM80.79,156.67c1.86-.15,3.39-.2,4.87-.35,3.63-.25,7.26-.4,10.85-.84,6.11-.69,12.18-1.83,18.3-2.33,7.45-.59,14.9-.79,22.36-1.09,2-.1,4.06,0,6.26,0-.43-4.8-.86-9.35-1.29-14.1l-2,.14-12.52,1c-4.2.35-8.46.6-12.66,1.09-4.4.55-8.7,1.44-13.09,2.13-5.55.89-11.14,1.68-16.68,2.58-1.77.29-3.49.89-5.11,1.28C80.33,149.89,80.52,153.15,80.79,156.67Zm119.93-20.35a108,108,0,0,0-22.08-.89c-6.45.3-12.9.74-19.35,1.09-1.67.1-3.34-.05-5,.15s-3.21-.4-4.45,1c-1.62-.79-3.3,0-4.92,0a4.48,4.48,0,0,0-1.29.44c.43,4.61.86,9.11,1.29,13.81,4-.09,7.84-.14,11.61-.24a33.319,33.319,0,0,0,3.87-.35c3.25-.4,6.5-1.09,9.75-1.29,6.21-.44,12.47-.49,18.68-.94,3.39-.24,6.79-.84,10.18-1.18a1.52,1.52,0,0,0,1.48-1.54c.11-3.33.11-6.59.23-10.06Zm-53.47-.51c-.91-2.22-1.81-4.3-2.67-6.38l-7.17-17.38c-1.53-3.76-3.06-7.57-4.64-11.28a49.206,49.206,0,0,0-2.48-5c-.29-.5-.86-1.19-1.29-1.19a15.42,15.42,0,0,0-5.26.4c1.39,2.87,2.68,5.64,4,8.36,2.2,4.61,4.49,9.16,6.64,13.76,2.39,5.2,4.63,10.5,7,15.69,1.65,3.62,1.75,3.57,5.86,3.07Z"/>
      <path id="Path_6529" data-name="Path 6529" d="M141.35,136.72c-5.35.35-10.61.64-15.82,1.09-4,.29-7.88.69-11.8,1.23-4.16.6-8.26,1.44-12.42,2.08l-12.19,1.93c-3.25.5-6.45.94-9.7,1.44-2.77-4.16-15.76-37.52-16-41.38,2-.3,4-.55,6.06-.84,3.92-.55,7.84-1.24,11.76-1.64,5.54-.54,11-1.38,16.53-2.47,7-1.39,14-2.18,21-3.17a4.42,4.42,0,0,1,1.81,0,2.72,2.72,0,0,1,1.67.94c1.2,1.93,2.25,3.91,3.25,5.94s2.25,4.31,3.25,6.54c3.35,7.27,6.64,14.5,9.94,21.82C139.63,132.21,140.39,134.34,141.35,136.72Z" fill="#454240"/>
      <path id="Path_6530" data-name="Path 6530" d="M80.79,156.67c-.24-3.52-.43-6.78-.63-10.4,1.63-.39,3.35-1,5.12-1.29,5.54-.89,11.13-1.68,16.67-2.57,4.35-.69,8.7-1.53,13.1-2.13,4.2-.54,8.45-.74,12.66-1.09l12.52-1c.62-.05,1.19-.1,2-.14.43,4.7.86,9.3,1.29,14.1-2.2,0-4.26-.1-6.26,0-7.46.3-14.91.5-22.37,1.09-6.11.5-12.18,1.63-18.3,2.33-3.58.39-7.21.54-10.84.84C84.13,156.42,82.62,156.52,80.79,156.67Z" fill="#454240"/>
      <path id="Path_6531" data-name="Path 6531" d="M200.72,136.32c-.1,3.47-.1,6.73-.24,10.05a1.55,1.55,0,0,1-1.48,1.54c-3.39.39-6.79,1-10.18,1.18-6.21.4-12.47.5-18.68.94-3.25.2-6.5.89-9.75,1.29-1.29.15-2.58.3-3.87.35-3.77.1-7.55.19-11.61.24-.43-4.7-.86-9.25-1.29-13.81a6.551,6.551,0,0,1,1.29-.44c1.62,0,3.3-.74,4.92.05,1.24-1.39,3-.84,4.45-1,1.67-.2,3.34-.05,5-.15,6.45-.35,12.9-.84,19.35-1.09a104.471,104.471,0,0,1,22.09.85Zm-41.05,9.94a20.771,20.771,0,0,0-.57-2.93,2.07,2.07,0,0,0-2-1.58c-1.91.1-3.78.25-5.59.35a7.08,7.08,0,0,0,.14,5.34c2.7-.39,5.28-.74,8.05-1.18Zm33.6,0c1.29,0,2.58-1.79,2.43-3.37-.09-1.34-2-2.67-3.68-2.62-1.29.09-3,1.63-3,2.82,0,1.63,2.18,3.26,4.23,3.17ZM182.51,141c-1.81.15-3.24,1.64-3,3.17a3.45,3.45,0,0,0,3.49,2.38c1.82-.2,2.54-1.14,2.39-3a2.5,2.5,0,0,0-2.89-2.53Z" fill="#2e2b29"/>
      <path id="Path_6532" data-name="Path 6532" d="M147.23,135.93c-4.16.49-4.21.54-5.88-3.12-2.39-5.2-4.59-10.5-7-15.69-2.15-4.61-4.4-9.16-6.65-13.76-1.33-2.73-2.62-5.5-4-8.37a15.64,15.64,0,0,1,5.3-.39c.43,0,1,.69,1.29,1.18a47.3,47.3,0,0,1,2.49,5c1.58,3.76,3.1,7.53,4.63,11.29l7.17,17.37C145.41,131.62,146.32,133.7,147.23,135.93Z" fill="#2e2b29"/>
      <path id="Path_6533" data-name="Path 6533" d="M159.65,146.57c-2.77.39-5.4.79-8.07,1.24a7.1,7.1,0,0,1-.15-5.35c1.82-.1,3.68-.25,5.59-.35a2.09,2.09,0,0,1,2.06,1.59A15.35,15.35,0,0,1,159.65,146.57Zm-2-1.06c0-2.08-.05-2.23-1.58-2.18a38.145,38.145,0,0,0-3.91.4c.14.94.28,1.58.38,2.37,1.86-.19,3.49-.39,5.14-.59Z"/>
      <path id="Path_6534" data-name="Path 6534" d="M193.24,146.37c-2.05.1-4.25-1.53-4.2-3.17,0-1.14,1.72-2.72,3-2.82,1.62-.1,3.53,1.29,3.68,2.62C195.82,144.59,194.58,146.32,193.24,146.37Zm1-3.32c0-.84-.67-1.33-1.77-1.33a1.76,1.76,0,0,0-1.91,1.58,1.83,1.83,0,0,0,2,1.78c1.02,0,1.64-.79,1.64-2.03Z"/>
      <path id="Path_6535" data-name="Path 6535" d="M182.49,141a2.49,2.49,0,0,1,2.87,2.58c.14,1.88-.58,2.77-2.39,3-1.48.15-3.35-1.09-3.49-2.38a3.07,3.07,0,0,1,3.01-3.2Zm.24,4.26c1-.1,1.43-.84,1.29-2.08-.1-.79-.57-1-1.29-.94-1,.1-1.91.94-1.86,1.73a1.56,1.56,0,0,0,1.86,1.31Z"/>
      <path id="Path_6536" data-name="Path 6536" d="M157.72,145.73c-1.63.2-3.25.39-5.07.59-.14-.79-.24-1.43-.38-2.37,1.43-.15,2.67-.4,3.92-.4C157.64,143.5,157.72,143.65,157.72,145.73Z" fill="#454240"/>
      <path id="Path_6537" data-name="Path 6537" d="M194.2,143.05c0,1.24-.67,2-1.67,2a1.83,1.83,0,0,1-2-1.78,1.75,1.75,0,0,1,1.91-1.58C193.53,141.72,194.2,142.21,194.2,143.05Z" fill="#454240"/>
      <path id="Path_6538" data-name="Path 6538" d="M182.73,145.28a1.52,1.52,0,0,1-1.82-1.29,2.076,2.076,0,0,1,1.87-1.73c.67,0,1.19.15,1.29.94C184.16,144.39,183.69,145.18,182.73,145.28Z" fill="#454240"/>
      <path id="Path_6539" data-name="Path 6539" d="M127.58,153.1c-2.92.29-3.16.24-4.35-2.53-.86-1.93-1.58-3.91-2.53-5.84a12.48,12.48,0,0,0-5.12-5.59c-3.29-1.73-6.83-2.43-10.51-.69-2.34,1.08-4.35,2.37-4.83,5.19a23.45,23.45,0,0,0-.52,5.15,26.61,26.61,0,0,0,8.5,18.76,18.758,18.758,0,0,0,4.11,2.82c5.31,2.77,11,3,16.68,2.82,1.43-.05,2.87-.19,4.3-.34a11.764,11.764,0,0,0,1.91-.2v-20.1C132.64,152.71,130.11,152.85,127.58,153.1Z"/>
      <path id="Path_6540" data-name="Path 6540" d="M123.28,156.12c-.34-.64-.77-1.29-1.1-2-1.15-2.47-2.2-5-3.35-7.52A11,11,0,0,0,111,140a7.06,7.06,0,0,0-6.26,1.34,7.68,7.68,0,0,0-2.82,6.63,28.94,28.94,0,0,0,2,9.21c3.06,7.62,8.36,12.13,16.34,13.37a56.4,56.4,0,0,0,13.86.09l1.19-.14V155C131.26,155.33,127.24,155.68,123.28,156.12Z" fill="#a09d9c"/>
      <path id="Path_6541" data-name="Path 6541" d="M123.28,156.27c-.34-.65-.77-1.29-1.1-2-1.15-2.48-2.2-5-3.35-7.53a11,11,0,0,0-7.88-6.58s2.44,28.81,23,30.69H134l1.19-.15V155.18C131.26,155.47,127.24,155.82,123.28,156.27Z" fill="#898584"/>
      <path id="Path_6542" data-name="Path 6542" d="M180.63,58.26c.05,2.63-1.91,5.15-4.16,5.05-3.25-.15-5.35-1.88-5.44-4.11-.1-2.82,2.24-5.54,4.82-5.59A5,5,0,0,1,180.63,58.26Z"/>
      <path id="Path_6543" data-name="Path 6543" d="M178.86,58c.15,2.22-.86,3.56-2.58,3.66-2.2.1-3.49-.69-3.58-2.23-.14-2.08,1.43-4.45,3-4.45A3.45,3.45,0,0,1,178.86,58Z" fill="#fff"/>
      <path id="Path_6544" data-name="Path 6544" d="M154.64,59.2c0-2.62,1.91-5.14,4.15-5,3.25.14,5.36,1.88,5.45,4.1.1,2.83-2.24,5.55-4.82,5.6A5,5,0,0,1,154.64,59.2Z"/>
      <path id="Path_6545" data-name="Path 6545" d="M156.4,59.5c-.14-2.23.86-3.56,2.59-3.66,2.19-.1,3.48.69,3.58,2.23.14,2.07-1.43,4.45-3,4.45A3.54,3.54,0,0,1,156.4,59.5Z" fill="#fff"/>
      <path id="Path_6546" data-name="Path 6546" d="M287.94,60.44c-.13-1.78,1-3,2.52-3.9,1.19-.74,3.65-.1,4.83.89,1.67,1.4,1.66,3,1.12,4.82s-1.36,3-3.22,3.29-5.09-2.18-5.24-4.06C287.92,61.22,287.94,61,287.94,60.44ZM290.32,62c1.54,1,1.54,1,3.21.84,1.25-2.29,1.29-2.73.29-3.9a1.69,1.69,0,0,0-2.2-.66C290.42,58.89,290.07,59.87,290.32,62Z" fill="#13100d"/>
      <path id="Path_6547" data-name="Path 6547" d="M290.32,62c-.25-2.16.1-3.14,1.3-3.72a1.69,1.69,0,0,1,2.2.66c1,1.17,1,1.61-.29,3.9C291.86,63.05,291.86,63.05,290.32,62Z" fill="#fff"/>
      <path id="Path_6548" data-name="Path 6548" d="M323.7,60.9c0,2.59-2,5-4.23,4.8-3.21-.27-5.2-2-5.21-4.21,0-2.78,2.36-5.36,4.9-5.35a4.89,4.89,0,0,1,4.54,4.76Zm-2.36-.31a2.73,2.73,0,0,0-2.41-2.42c-1.2,0-2.47,1.72-2.41,3.35,0,1.18,1,1.82,2.72,1.81,1.36,0,2.14-1.02,2.1-2.74Z" fill="#13100d"/>
      <path id="Path_6549" data-name="Path 6549" d="M321.34,60.59c0,1.72-.74,2.74-2.1,2.74-1.71,0-2.68-.63-2.72-1.81-.06-1.63,1.21-3.39,2.41-3.35A2.73,2.73,0,0,1,321.34,60.59Z" fill="#fff"/>
      <path id="Path_6550" data-name="Path 6550" d="M4.14,151.53c.37-.1.76-.14,1.1-.22A27.239,27.239,0,0,1,10,150.25c2.76-.16,5.62.18,8.39.29.53,0,.91.39,1.42.5a7,7,0,0,1,1.57.33,1.45,1.45,0,0,1,.74,1.47v10.29c0,1.29.57,3.71-1,4.23-.84.28-1.71-.1-2.56,0a129.5,129.5,0,0,1-14.6.69,1.4,1.4,0,0,1-1.43-1.21c.14-4.53.28-9.05.38-13.58a2,2,0,0,1,.35-1.19,1.62,1.62,0,0,1,.88-.54Z" fill="#ff8300"/>
      <path id="Path_6551" data-name="Path 6551" d="M20.68,169.59l-5.33,1.15c-1.76.37-3.61-.5-4.15,1.69a7.11,7.11,0,0,0,0,2.48c.4,3.57.18,7.28.24,10.88.09,5-.15,10.21.64,15.13.41,2.58.64,5.18.8,7.79.16,2.82-1.2,6,0,8.66.87,2,1.67,3.5,3.54,4.43,1.49.75,4.51,2.78,5.76,1.49.41-.42.23-2,.24-2.54,0-1.56.05-3.12.05-4.69,0-4.64-.13-9.29-.33-13.94-.08-2-.17-3.89-.32-5.84-.25-3.24-.81-6.46-.82-9.72,0-2.41.28-4.77.22-7.19C21.09,176.3,21.38,172.59,20.68,169.59Z" fill="#fff"/>
    </g>
  </g>
</svg>
