<svg id="Layer_1" data-name="Layer 1" xmlns="http://www.w3.org/2000/svg" xmlns:xlink="http://www.w3.org/1999/xlink" viewBox="0 0 300 300"><defs><style>.cls-1{fill:#13100d;}.cls-2{fill:url(#linear-gradient);}.cls-3{fill:url(#linear-gradient-2);}.cls-4{fill:url(#linear-gradient-3);}.cls-5{fill:#fff;}.cls-6{fill:none;}</style><linearGradient id="linear-gradient" x1="-173.03" y1="789.88" x2="-136.17" y2="821.03" gradientTransform="matrix(0.81, 0.09, 0.05, 0.97, 263.91, -611.5)" gradientUnits="userSpaceOnUse"><stop offset="0.5" stop-color="#bc4817"/><stop offset="1" stop-color="#e8530e"/></linearGradient><linearGradient id="linear-gradient-2" x1="92.06" y1="519.97" x2="171.62" y2="585.91" gradientTransform="translate(0 -484.4)" gradientUnits="userSpaceOnUse"><stop offset="0.5" stop-color="#ef7f16"/><stop offset="1" stop-color="#e8530e"/></linearGradient><linearGradient id="linear-gradient-3" x1="27.87" y1="664.84" x2="97.53" y2="722.57" xlink:href="#linear-gradient-2"/></defs><path class="cls-1" d="M155.68,144.46s-2,16.47,3.45,26.63c16.28,30,42.43,16,42.43,16-2.2-8.34-1.63-19.16-1.63-19.16,3.07-39.28-23.46-38-23.46-38Z"/><path class="cls-2" d="M191.79,142.64c3.74,9.48,4.79,24.43-3,30.75s-21.26,2-27.68-8.53a39.71,39.71,0,0,1-5.75-21.07l20.79-14.66C176.18,129,188.06,133.15,191.79,142.64Z"/><path class="cls-3" d="M157.31,179.61a290.52,290.52,0,0,1-23.47,20.89,26.78,26.78,0,0,1-9.77,4.79c-30.66-18.87-33-50.58-30.28-75.68.87.19,1.73.48,2.69.67,11.4,2.3,25.48-4.5,31.32-7.76a41.29,41.29,0,0,1-24.52,1,28.35,28.35,0,0,1-8.14-3.73c-.2-.19-.48-.29-.67-.48-.58-.38-1.06-.77-1.54-1.15-.28-.29-.57-.48-.86-.77a12.3,12.3,0,0,0-1.24-1l-.87-.86a15.21,15.21,0,0,1-1.15-1.25c-.28-.28-.48-.57-.76-.86a10.37,10.37,0,0,1-1.25-1.63,4.07,4.07,0,0,1-.48-.67c-.57-.77-1-1.53-1.53-2.3-.19-.29-.29-.57-.48-.86-.29-.57-.57-1-.86-1.63-.19-.38-.29-.67-.48-1a12.14,12.14,0,0,1-.67-1.63c-.1-.38-.29-.67-.38-1.05-.2-.67-.39-1.25-.58-1.92a2.9,2.9,0,0,1-.19-.77,24.56,24.56,0,0,1-.57-2.68c0-.19-.1-.38-.1-.67-.1-.67-.19-1.44-.29-2.11a3,3,0,0,0-.09-1V90.62a12.24,12.24,0,0,1,.19-1.91c0-.29.09-.58.09-.87.2-1,.29-1.82.58-2.77a29.49,29.49,0,0,1,1.24-3.45,5.56,5.56,0,0,1,.39-.77,22.88,22.88,0,0,1,1.53-2.68c.1-.1.19-.29.29-.39a26.91,26.91,0,0,1,5.27-5.65h0c7.75-6.32,18.87-9.1,27.49-8.71,9.58.47,17.53,9.1,21.17,13.79-3.16-8.53-15-31.32-48.19-16.48,6.42-21.65,16.19-46.55,27.78-49.23,15.52-3.64,15.81,5.93,14.85,10.92a150.65,150.65,0,0,1,22.13-11.21c-14,17.72-26.73,42.53-8.33,60.73,31.8,31.61,62.93,2.59,62.93,2.59s-38.6-4.79-46.65-28.64c-4.88-14.66,2.49-30.47,8.91-40.53A105.14,105.14,0,0,1,186.24,2.2s53.64-9,55.46,22.32c1.15,20.22-14.56,64.09-44.93,107.87C196.87,132.39,170.14,166.78,157.31,179.61Z"/><path class="cls-4" d="M88.14,221.38A70.29,70.29,0,0,1,94.75,215c-4.31-2.39-20.69-15.13-30.75-75.68-11.68,85,3.45,98.39,8.62,100.59a51.6,51.6,0,0,1,6.14,20.59c.86,14.18,1.53,38.32,8.14,39.47s17.82-14.75,18.39-28.07S86,233.55,85.36,232.68,83.35,228.76,88.14,221.38Z"/><path class="cls-1" d="M91,284.6c-4.89,3.36-8.24,2.3-10.54-.19,1,8.24,2.87,14.95,6.32,15.52,6.61,1.25,17.82-14.75,18.39-28.07.48-9.58-9.77-25.19-15.71-33.52C93,249.06,101.27,277.52,91,284.6Z"/><path class="cls-1" d="M197.06,23.47a8.43,8.43,0,1,0-8.43,8.43A8.42,8.42,0,0,0,197.06,23.47Z"/><path class="cls-1" d="M170.24,42.63c-4.7-15,7.95-31.71,12.83-39.95-2.49.48-6.41,1.34-11.3,2.68-6.42,10.06-13.89,25.87-8.91,40.53,8,23.85,46.65,28.64,46.65,28.64S176.08,61.4,170.24,42.63Z"/><path class="cls-1" d="M117.07,63.42c9.58.47,17.53,9.1,21.17,13.79-3.45-9.2-16.76-34.68-55.65-12.64,0,0-12.94,6.89-24.14,8.14,0,0-5.46,46.55,35.34,56.9-2.68,25.1-.38,56.81,30.28,75.68,0,0-29.89-36.79-18.49-74.82,9-1.15,17.82-5.55,22.22-8a41.29,41.29,0,0,1-24.52,1C87.57,119.36,76.55,100.68,80.86,85S103.85,62.75,117.07,63.42Z"/><path class="cls-1" d="M60.46,173.2c11.59,32,25.77,41.86,31.23,44.64,1-1,2-1.92,3.06-2.78-4.31-2.4-20.69-15.14-30.75-75.68C62.28,152.22,61.13,163.42,60.46,173.2Z"/><path class="cls-5" d="M171.77,5.46c-6.42,10.06-13.89,25.86-8.91,40.52,8,23.85,46.65,28.64,46.65,28.64s-31.13,29-62.93-2.58c-18.4-18.3-5.65-43.11,8.33-60.74C154.82,11.3,158.46,9.68,171.77,5.46Z"/><path class="cls-5" d="M94.75,215c5.56-4.79,11.69-8.33,17.72-8.14a39.87,39.87,0,0,0,11.6-1.44h0c-30.66-18.87-33-50.58-30.28-75.67-12-3.07-19.92-9.2-25.28-16.39-1.06,4.6-2,9.39-2.78,14.37-.67,4-1.25,7.95-1.73,11.79h0C74.06,199.73,90.35,212.57,94.75,215Z"/><rect class="cls-6" x="58.26" width="183.54" height="298.97"/></svg>